SnideHand.sfdir
StartChar: exclam
Encoding: 33 33 4
Width: 214
GlyphClass: 2
Flags: MW
HStem: -6 21G<80 122> -6 142<80 109 75 122>
VStem: 56 114<22 88> 64 78<630 636 636 718>
LayerCount: 2
Fore
SplineSet
94 894 m 0x90
 106 894 108 888 122 878 c 0
 132 870 136 862 138 852 c 0
 140 842 144 818 144 778 c 0
 144 770 142 750 142 718 c 2
 142 636 l 2
 142 538 144 452 146 378 c 0
 148 362 148 344 148 322 c 0
 148 296 140 278 130 272 c 0
 122 268 116 266 112 266 c 0
 102 266 94 280 84 312 c 0
 78 332 70 342 66 502 c 0
 66 540 64 584 64 630 c 2
 64 740 l 2
 64 766 62 786 62 802 c 0
 62 876 66 894 94 894 c 0x90
88 136 m 0x60
 130 136 142 128 162 72 c 0
 166 58 170 46 170 32 c 0
 170 12 148 -6 96 -6 c 0
 64 -6 56 22 56 72 c 0
 56 104 62 136 88 136 c 0x60
EndSplineSet
EndChar
StartChar: quotedbl
Encoding: 34 34 5
Width: 414
GlyphClass: 2
Flags: MW
HStem: 900 20G 908 20G<265 286>
VStem: 72 82<806 841> 237 83<786 839>
LayerCount: 2
Fore
SplineSet
245 920 m 0xb0
 247 926 258 928 272 928 c 0x70
 300 928 320 902 320 822 c 0
 320 750 324 716 326 710 c 0
 332 692 338 668 340 650 c 0
 342 630 344 603 340 591 c 0
 336 581 334 578 324 578 c 0
 308 578 290 588 278 606 c 0
 241 663 237 734 237 800 c 0
 237 878 241 918 245 920 c 0xb0
72 818 m 0x70
 72 864 82 882 90 888 c 0
 96 892 106 892 118 892 c 0
 144 892 154 886 154 820 c 0
 154 792 154 772 156 760 c 0
 160 732 170 696 176 668 c 0
 180 648 182 636 182 626 c 0
 182 610 155 576 148 576 c 0
 140 576 124 578 110 610 c 0
 74 691 72 727 72 818 c 0x70
EndSplineSet
EndChar
StartChar: quotesingle
Encoding: 266 39 10
Width: 185
VWidth: 1000
GlyphClass: 2
Flags: HMW
LayerCount: 2
Fore
SplineSet
49 882 m 0
 57 904 81 914 95 914 c 0
 129 914 140 861 140 834 c 0
 140 808 134 784 130 754 c 0
 126 720 126 678 122 666 c 0
 118 656 103 638 89 638 c 0
 77 638 53 652 49 662 c 0
 45 672 45 692 45 724 c 0
 45 746 45 772 47 804 c 0
 47 814 49 820 49 828 c 0
 49 838 49 846 47 852 c 0
 45 854 45 858 45 862 c 0
 45 868 47 874 49 882 c 0
EndSplineSet
EndChar
StartChar: parenleft
Encoding: 267 40 11
Width: 396
VWidth: 1000
GlyphClass: 2
Flags: HMW
LayerCount: 2
Fore
SplineSet
80 586 m 0
 111 679 214 826 324 826 c 0
 338 826 348 820 348 792 c 0
 348 760 344 756 320 748 c 0
 273 733 208 660 186 616 c 0
 146 547 114 400 114 324 c 0
 114 228 147 35 192 -54 c 0
 211 -100 251 -182 310 -182 c 0
 322 -182 328 -180 340 -180 c 0
 352 -180 362 -192 362 -208 c 0
 362 -240 322 -270 308 -270 c 0
 153 -270 80 -13 62 108 c 0
 52 180 38 228 38 304 c 0
 38 407 47 486 80 586 c 0
EndSplineSet
Substitution2: "'case' +WSdlh1tXfUQwf3UoMGuKv2V0MFcwX1tXX2IA lookup 12 +MLUw1jDGMPww1jDr" parenleft.case
EndChar
StartChar: parenright
Encoding: 41 41 12
Width: 412
GlyphClass: 2
Flags: MW
HStem: -290 21G<83 105>
VStem: 296 74
LayerCount: 2
Fore
SplineSet
254 66 m 0
 258 78 296 204 296 258 c 0
 296 352 284 364 272 434 c 0
 260 502 216 588 122 706 c 0
 70 770 48 808 48 820 c 0
 48 832 74 860 100 860 c 0
 132 860 144 812 174 780 c 0
 262 684 276 666 292 624 c 0
 336 514 350 472 364 374 c 0
 368 344 376 290 366 210 c 0
 362 178 358 156 352 138 c 0
 332 78 310 -26 224 -152 c 0
 206 -177 120 -290 90 -290 c 0
 76 -290 50 -272 50 -254 c 0
 50 -236 70 -216 86 -198 c 0
 106 -176 138 -146 148 -136 c 0
 192 -84 240 26 254 66 c 0
EndSplineSet
Substitution2: "'aalt' +MFkweTBmMG51cE9TW1cweDBuMKIwrzC7MLkA lookup 0 +MLUw1jDGMPww1jDr" parenright.case
EndChar
StartChar: comma
Encoding: 44 44 15
Width: 182
GlyphClass: 2
Flags: HMW
LayerCount: 2
Fore
SplineSet
116 108 m 0
 144 108 148 86 148 48 c 0
 148 -16 139 -69 130 -120 c 0
 124 -152 120 -178 116 -194 c 0
 112 -211 89 -280 68 -280 c 0
 54 -280 46 -250 46 -194 c 0
 46 -113 52 -29 62 52 c 0
 68 99 86 108 116 108 c 0
EndSplineSet
EndChar
StartChar: hyphen
Encoding: 272 45 16
Width: 410
VWidth: 1000
GlyphClass: 2
Flags: HMW
LayerCount: 2
Fore
SplineSet
404 270 m 0
 404 242 358 216 328 216 c 0
 250 216 192 218 124 222 c 0
 72 226 42 236 32 246 c 0
 22 256 16 264 16 272 c 0
 16 288 44 314 60 320 c 0
 70 322 84 324 112 324 c 0
 154 324 188 320 212 310 c 0
 234 302 272 296 326 294 c 0
 372 292 404 298 404 270 c 0
EndSplineSet
EndChar
StartChar: period
Encoding: 273 46 17
Width: 236
VWidth: 1000
GlyphClass: 2
Flags: HMW
LayerCount: 2
Fore
SplineSet
82 138 m 0
 88 144 98 146 112 146 c 0
 128 146 138 140 142 136 c 0
 156 118 164 96 170 84 c 0
 176 74 182 66 182 54 c 0
 182 42 176 26 166 14 c 0
 154 2 140 -4 128 -4 c 0
 108 -4 96 4 84 26 c 0
 72 48 64 62 64 82 c 0
 64 104 72 128 82 138 c 0
EndSplineSet
EndChar
StartChar: one
Encoding: 276 49 20
Width: 343
VWidth: 1000
GlyphClass: 2
Flags: HMW
LayerCount: 2
Fore
SplineSet
230 560 m 0
 254 560 264 550 276 536 c 0
 284 526 288 488 288 404 c 0
 288 380 288 342 286 290 c 0
 284 238 284 202 284 180 c 0
 284 110 288 74 296 66 c 0
 304 58 306 46 306 24 c 0
 306 10 306 4 302 2 c 0
 296 -4 256 -16 246 -16 c 0
 222 -16 202 -2 202 20 c 0
 202 65.3333333333 198.444444444 93.7777777778 198.444444444 144.444444444 c 0
 198.444444444 169.777777778 199.333333333 200.666666667 202 242 c 0
 206 316 210 350 210 370 c 0
 210 386 208 400 206 410 c 1
 196 404 178 390 136 350 c 0
 96 310 74 288 64 288 c 0
 56 288 42 302 36 316 c 0
 32 324 30 332 30 340 c 0
 30 348 32 350 36 358 c 0
 70 410 112 440 144 470 c 0
 174 500 190 514 196 528 c 0
 206 552 210 560 230 560 c 0
EndSplineSet
Substitution2: "'sups' +TgowZDBNZYdbVwAA lookup 4 +MLUw1jDGMPww1jDr" onesuperior
EndChar
StartChar: five
Encoding: 53 53 24
Width: 528
GlyphClass: 2
Flags: MW
HStem: -311 21G<156.5 193> -311 109<174.5 192.5 174.5 193> 124 90<287.5 334> 430 90<232.5 306.5 249 306.5>
VStem: 29 87 41 87 379 89 391 89<25 68>
LayerCount: 2
Fore
SplineSet
85 72 m 0xb5
 29 72 37 110 51 278 c 0
 57 352 69 424 74 463 c 1
 54 484 51 512 56 520 c 0
 63 531 66 536 89 536 c 0
 109 536 144 532 211 525 c 0
 241 522 268 520 296 520 c 0
 317 520 339 521 362 523 c 0
 387 525 408 527 423 527 c 0
 470 527 480 515 480 484 c 0
 480 449 420 436 279 430 c 0
 269 430 259 430 249 430 c 0
 216 430 187 431 159 435 c 1
 153 388 141 346 134 274 c 0
 132 250 129 198 128 176 c 1
 156 187 242 214 303 214 c 0
 422 214 480 166 480 49 c 0
 480 -38 396 -151 283 -254 c 0
 249 -286 204 -311 182 -311 c 0
 131 -311 104 -250 104 -210 c 0
 104 -197 114 -187 130 -187 c 0
 157 -187 164 -202 185 -202 c 0
 200 -202 246 -165 274 -135 c 0x7a
 343 -61 391 4 391 46 c 0
 391 90 366 124 302 124 c 0
 273 124 237 117 192 101 c 0
 145 85 97 72 85 72 c 0xb5
EndSplineSet
EndChar
StartChar: semicolon
Encoding: 59 59 30
Width: 180
GlyphClass: 2
Flags: MW
HStem: 414 124<60 112> 518 20G<89 112>
VStem: 38 114<467 487> 48 74<-139 -122 -139 -122> 56 98<37 91>
LayerCount: 2
Fore
SplineSet
106 538 m 0x60
 118 538 142 533 146 520 c 0x60
 150 512 152 496 152 484 c 0
 152 450 105 414 72 414 c 0
 48 414 38 436 38 478 c 0xa0
 38 496 40 506 42 510 c 0
 46 526 72 538 106 538 c 0x60
66 112 m 0x48
 74 120 86 122 102 122 c 0
 126 122 140 116 148 106 c 0
 152 98 154 94 154 88 c 0
 154 78 150 80 146 6 c 0x48
 144 -20 140 -58 130 -86 c 0
 126 -100 122 -116 122 -128 c 0
 122 -150 100 -172 78 -172 c 0
 58 -172 48 -164 48 -130 c 0x50
 48 -114 48 -100 50 -88 c 0
 54 -12 56 32 56 42 c 0
 56 80 58 104 66 112 c 0x48
EndSplineSet
EndChar
StartChar: C
Encoding: 67 67 38
Width: 642
GlyphClass: 4
Flags: HMW
AnchorPoint: "acute" 354 942 basechar 0
AnchorPoint: "ogonek" 576 142 basechar 0
AnchorPoint: "cedilla" 316 32 basechar 0
LayerCount: 2
Fore
SplineSet
138 726 m 0
 197 821 256 884 372 884 c 0
 443 884 493 851 542 802 c 0
 562 782 576 770 580 760 c 0
 584 750 586 734 586 714 c 0
 586 696 584 684 580 676 c 0
 564 645 505 642 476 642 c 0
 454 642 444 644 444 650 c 0
 444 654 452 662 470 676 c 0
 488 690 500 700 500 702 c 0
 500 708 488 724 464 752 c 0
 448 770 435 775 425 779 c 0
 415 785 380 791 357 791 c 0
 284 791 233 742 206 679 c 0
 174 614 170 628 155 562 c 0
 140 499 129 468 129 405 c 0
 129 309 131 223 202 148 c 0
 235 113 264 89 343 89 c 0
 382 89 415 95 443 107 c 0
 506 136 529 160 545 171 c 0
 558 181 574 182 590 182 c 0
 606 182 616 168 616 158 c 0
 616 148 612 140 592 118 c 0
 546 68 506 44 442 10 c 0
 420 -2 380 -8 326 -8 c 0
 240 -8 210 11 146 68 c 0
 49 154 42 287 42 408 c 0
 42 519 81 632 138 726 c 0
EndSplineSet
EndChar
StartChar: D
Encoding: 68 68 39
Width: 682
GlyphClass: 4
Flags: MW
HStem: -26 21G<182 202> 775 94<195.5 222.5 192.5 241> 888 20G<116 123>
VStem: 72 84 558 82
AnchorPoint: "acute" 323 946 basechar 0
AnchorPoint: "ogonek" 427 174 basechar 0
AnchorPoint: "cedilla" 309 78 basechar 0
LayerCount: 2
Fore
SplineSet
96 898 m 0
 108 904 114 908 118 908 c 0
 128 908 154 886 164 868 c 1
 176 869 187 869 198 869 c 0
 247 869 290 863 336 856 c 0
 344 856 360 850 392 846 c 0
 476 832 525 807 584 744 c 0
 622 704 642 620 640 550 c 0
 636 448 620 402 556 298 c 0
 518 236 476 190 450 164 c 0
 372 90 318 40 294 24 c 0
 246 -8 212 -26 192 -26 c 0
 172 -26 156 -19 156 4 c 0
 156 12 160 24 168 32 c 0
 206 66 194 62 248 100 c 0
 330 160 358 182 408 240 c 0
 456 290 466 308 508 374 c 0
 538 422 556 480 558 548 c 0
 560 586 554 616 544 640 c 0
 516 690 506 704 456 726 c 0
 386 763 280 775 202 775 c 0
 189 775 178 774 164 770 c 1
 162 750 158 700 154 622 c 0
 150 550 158 524 156 376 c 0
 154 298 162 206 164 202 c 0
 176 166 192 160 192 144 c 0
 190 117 171 90 142 90 c 0
 134 90 128 102 118 118 c 0
 96 152 90 164 80 206 c 0
 74 236 72 308 72 426 c 1
 76 532 74 544 72 602 c 0
 68 716 74 810 64 842 c 0
 56 856 82 890 96 898 c 0
EndSplineSet
EndChar
StartChar: E
Encoding: 296 69 40
Width: 662
VWidth: 1000
GlyphClass: 4
Flags: HMW
AnchorPoint: "acute" 316 911 basechar 0
AnchorPoint: "ogonek" 592 96 basechar 0
AnchorPoint: "cedilla" 372 42 basechar 0
LayerCount: 2
Fore
SplineSet
177 250 m 0
 177 186 179 137 200 103 c 0
 214 80 231 79 269 79 c 0
 275 79 281 79 288 79 c 0
 330 79 360 83 373 87 c 0
 448 111 531 123 610 123 c 0
 622 123 629 122 629 110 c 0
 629 75 577 49 549 43 c 0
 533 40 513 39 499 35 c 0
 411 14 309 -3 220 -3 c 0
 167 -3 113 49 101 113 c 0
 97.4782608696 131.782608696 96.4064272212 163.88657845 96.4064272212 204.758280595 c 0
 96.4064272212 268.336483932 99 353.130434783 99 442 c 0
 99 519 92 718 83 792 c 0
 81 792 79 792 78 792 c 0
 65 792 51 793 42 804 c 0
 33 817 31 829 31 838 c 0
 31 848 44 860 58 865 c 0
 70 871 75 877 82 881 c 1
 83 881 l 1
 111 887 129 889 224 889 c 0
 360 889 456 891 491 901 c 0
 500 903 508 909 518 909 c 0
 532 909 551 907 575 901 c 0
 585 899 589 896 589 882 c 0
 589 852 579 841 539 828 c 0
 486 812 358 806 298 802 c 0
 260 800 232 798 171 796 c 1
 173 767 177 741 177 710 c 2
 177 604 l 2
 177 568 179 529 179 495 c 1
 236 490 275 486 321 486 c 0
 368 486 422 490 511 501 c 0
 528 503 535 504 544 505 c 0
 554 505 569 486 569 468 c 0
 569 456 558 443 531 437 c 0
 484 432 410 407 330 407 c 0
 278 407 222 408 179 412 c 1
 179 368 177 306 177 250 c 0
EndSplineSet
EndChar
StartChar: F
Encoding: 70 70 41
Width: 668
GlyphClass: 4
Flags: MW
HStem: -12 21G<149 160> 398 94<229 355> 796 86<494 555> 915 20G<102.5 117>
VStem: 96 86
AnchorPoint: "acute" 336 940 basechar 0
AnchorPoint: "ogonek" 164 44 basechar 0
AnchorPoint: "cedilla" 158 46 basechar 0
LayerCount: 2
Fore
SplineSet
67 897 m 0
 67 915 94 935 111 935 c 0
 123 935 138 928 148 902 c 0
 154 890 156 864 156 864 c 1
 242 870 280 870 382 876 c 0
 436 878 468 880 482 880 c 0
 500 882 520 882 542 882 c 0
 568 882 584 878 594 868 c 0
 608 848 616 834 616 824 c 0
 616 814 596 788 576 788 c 0
 550 788 534 796 504 796 c 0
 484 796 416 796 318 788 c 0
 299 786 223 783 166 779 c 1
 172 755 172 652 178 596 c 0
 186 526 180 452 182 376 c 2
 182 220 l 2
 182 172 198 138 198 64 c 0
 198 40 202 32 192 14 c 0
 182 -4 166 -12 154 -12 c 0
 144 -12 136 -4 128 16 c 0
 112 70 110 92 100 172 c 0
 90 220 98 369 96 569 c 0
 95 653 85 735 77 817 c 0
 73 851 75 875 69 889 c 0
 69 891 67 895 67 897 c 0
212 462 m 0
 212 476 222 492 236 492 c 0
 362 492 530 486 560 482 c 0
 578 480 586 468 586 454 c 0
 586 448 584 442 582 436 c 0
 580 430 562 426 530 416 c 0
 498 406 476 400 446 400 c 0
 414 400 372 398 338 398 c 0
 290 398 256 402 236 414 c 0
 220 424 212 440 212 462 c 0
EndSplineSet
EndChar
StartChar: I
Encoding: 300 73 44
Width: 572
VWidth: 1000
GlyphClass: 4
Flags: HMW
AnchorPoint: "acute" 294 944 basechar 0
AnchorPoint: "ogonek" 480 48 basechar 0
AnchorPoint: "cedilla" 308 40 basechar 0
LayerCount: 2
Fore
SplineSet
251 408 m 0
 251 476 255 597 255 666 c 0
 255 737 253 769 252 784 c 1
 210 776 165 773 152 773 c 0
 139 773 74 774 65 778 c 0
 60 781 51 789 51 820 c 0
 51 828 55 834 63 835 c 0
 116 844 211 856 248 866 c 1
 249 869 l 2
 252 880 262 889 280 889 c 0
 291 889 310 885 318 876 c 1
 320 875 l 1
 346 876 374 877 396 877 c 0
 417 877 434 876 441 875 c 0
 470 871 479 862 479 849 c 0
 479 832 467 809 450 803 c 0
 445 800 431 796 409 796 c 0
 396 796 380 797 364 797 c 0
 353 797 342 796 333 795 c 1
 336 769 337 736 337 678 c 0
 337 558 335 449 335 324 c 0
 335 288 341 211 341 176 c 0
 341 171 340 159 337 156 c 0
 333 154 329 149 323 144 c 0
 308 131 289 115 278 115 c 0
 276 116 275 117 273 118 c 0
 257 132 255 158 255 198 c 0
 255 255 251 329 251 408 c 0
500 101 m 0
 517 101 531 88 531 62 c 0
 531 47 491 1 475 1 c 0
 451 3 416 4 381 4 c 0
 304 4 210 9 155 17 c 0
 105 24 83 32 83 68 c 0
 83 103 98 125 126 125 c 0
 139 125 150 121 156 114 c 0
 179 96 297 87 327 87 c 0
 395 87 438 101 500 101 c 0
EndSplineSet
EndChar
StartChar: J
Encoding: 301 74 45
Width: 678
VWidth: 1000
GlyphClass: 4
Flags: HMW
AnchorPoint: "acute" 382 920 basechar 0
AnchorPoint: "ogonek" 520 106 basechar 0
AnchorPoint: "cedilla" 334 42 basechar 0
LayerCount: 2
Fore
SplineSet
176 42 m 0
 114 83 52 130 52 212 c 0
 52 240 60 258 74 268 c 0
 84 274 90 276 94 276 c 0
 100 276 102 270 108 256 c 0
 150 154 217 84 334 84 c 0
 392 84 440 98 478 134 c 0
 508 162 522 186 526 206 c 0
 532 244 532 348 532 514 c 2
 532 514 531.68 532.56 531.68 559.568 c 0
 531.68 600.08 532.4 659.6 536 704 c 0
 538 742 542 780 544 798 c 1
 486 780 450 782 378 772 c 0
 368 770 324 766 298 764 c 0
 254 760 220 754 196 752 c 0
 186 750 178 750 166 750 c 0
 144 750 128 766 128 788 c 0
 128 812 152 832 162 838 c 0
 172 844 198 846 234 848 c 0
 274 850 328 848 398 862 c 0
 472 876 514 884 526 888 c 0
 538 894 580 906 594 906 c 0
 626 906 652 892 652 874 c 0
 652 842 634 826 628 768 c 0
 624 734 620 704 618 682 c 0
 618 674 614 606 614 478 c 0
 614 248 614 198 596 154 c 0
 557 54 434 6 334 6 c 0
 244 6 216 14 176 42 c 0
EndSplineSet
EndChar
StartChar: K
Encoding: 75 75 46
Width: 682
GlyphClass: 4
Flags: HMW
AnchorPoint: "acute" 314 922 basechar 0
AnchorPoint: "ogonek" 602 44 basechar 0
AnchorPoint: "cedilla" 346 42 basechar 0
LayerCount: 2
Fore
SplineSet
81 870 m 0
 85 902 108 912 132 912 c 0
 142 912 146 896 146 864 c 2
 146 786 l 2
 143.676209992 702.343559722 141.352419985 665.487119444 141.352419985 622.44826699 c 0
 141.352419985 609.924199846 141.549193338 596.87661983 142 582 c 0
 144 520 148 496 152 454 c 1
 176 478 190 498 208 518 c 0
 260 572 274 588 284 602 c 0
 312 638 342 672 380 710 c 0
 386 716 420 754 434 772 c 0
 474 822 486 844 500 864 c 0
 507 874 514 880 534 880 c 0
 548 880 580 876 580 856 c 0
 580 827 519 750 506 730 c 0
 490 708 454 660 372 578 c 0
 252 458 248 438 216 398 c 1
 250 362 272 344 316 306 c 0
 370 258 394 238 450 192 c 0
 480 166 538 126 574 112 c 0
 632 88 664 72 664 52 c 0
 664 22 646 10 608 10 c 0
 554 10 512 32 468 60 c 0
 392 109 322 164 258 228 c 0
 220 266 200 286 160 320 c 1
 160 274 161 260 166 224 c 0
 174 168 198 88 198 56 c 0
 198 30 192 20 162 20 c 0
 142 20 122 32 112 54 c 0
 80 126 74 248 70 344 c 0
 64.6666666667 453.333333333 63.7777777778 481.333333333 63.7777777778 539.111111111 c 0
 63.7777777778 568 64 604.333333333 64 662 c 0
 64 712 76 829 81 870 c 0
EndSplineSet
EndChar
StartChar: L
Encoding: 303 76 47
Width: 612
VWidth: 1000
GlyphClass: 4
Flags: HMW
AnchorPoint: "acute" 278 942 basechar 0
AnchorPoint: "ogonek" 542 76 basechar 0
AnchorPoint: "cedilla" 316 34 basechar 0
LayerCount: 2
Fore
SplineSet
94 876 m 0
 104 888 112 894 118 894 c 0
 150 894 162 880 162 852 c 0
 162 822 160 814 160 670 c 0
 160 588 158 506 158 430 c 0
 158 400 164 342 174 168 c 0
 176 132 176 108 176 84 c 1
 228 88 272 94 322 104 c 0
 354 112 430 122 466 122 c 0
 544 122 584 114 584 94 c 0
 584 66 562 48 548 48 c 0
 542 48 538 50 534 50 c 0
 490 50 424 36 364 22 c 0
 290 6 200 -20 142 -20 c 0
 122 -20 98 6 88 48 c 0
 80.8571428571 78 79.8367346939 135.551020408 79.8367346939 201.702623907 c 0
 79.8367346939 228.163265306 80 256 80 284 c 2
 80 660 l 2
 80 716 80 720 78 752 c 0
 76 784 76 800 76 828 c 0
 76 848 84 866 94 876 c 0
EndSplineSet
EndChar
StartChar: N
Encoding: 305 78 49
Width: 772
VWidth: 1000
GlyphClass: 4
Flags: HMW
AnchorPoint: "acute" 376 934 basechar 0
AnchorPoint: "ogonek" 648 36 basechar 0
AnchorPoint: "cedilla" 398 44 basechar 0
LayerCount: 2
Fore
SplineSet
242 468 m 0
 232 478 168 612 150 656 c 1
 148 628 146 612 146 548 c 0
 146 400 148 478 148 340 c 0
 150 222 162 140 182 98 c 0
 192 78 198 60 198 48 c 0
 198 20 170 -6 142 -6 c 0
 122 -6 108 2 102 22 c 0
 96 60 94 94 90 122 c 0
 88 132 72 312 70 322 c 0
 66 354 64 454 64 616 c 0
 64 734 66 808 68 838 c 0
 70 868 74 886 80 892 c 0
 88 898 96 900 106 900 c 0
 132 900 154 880 168 842 c 0
 168 840 186 798 226 716 c 0
 256 658 262 614 314 520 c 0
 354 448 400 392 430 318 c 0
 452 266 584 94 608 94 c 0
 620 94 626 96 626 148 c 0
 626 166 620 180 618 196 c 0
 613.31216396 225.689628252 611.981742838 254.463597891 611.981742838 280.891089765 c 0
 611.981742838 315.582555963 614.274312525 346.230592826 614.274312525 369.598631383 c 0
 614.274312525 373.997599249 614.193070713 378.13858575 614 382 c 0
 604 598 596 752 586 786 c 0
 584 794 582 798 582 804 c 0
 582 830 594 854 614 878 c 0
 626 890 646 898 674 898 c 0
 692 898 702 898 706 896 c 0
 710 894 714 888 714 878 c 0
 714 866 708 852 698 840 c 0
 684 824 670 816 670 806 c 0
 670 736 678 656 682 584 c 0
 682.666666667 576.666666667 682.888888889 570.222222222 682.888888889 564.518518519 c 0
 682.888888889 553.111111111 682 544.666666667 682 538 c 0
 688 464 688 430 694 362 c 0
 694.530406813 354.574304623 694.744315815 347.922270559 694.744315815 341.796752045 c 0
 694.744315815 316.251985888 691.024279226 299.863716591 691.024279226 274.708131501 c 0
 691.024279226 260.404831405 692.22696138 243.267071489 696 220 c 0
 700 194 704 186 704 132 c 0
 704 76 698 46 688 14 c 0
 678 -12 648 -12 636 -12 c 0
 550 -12 422 146 364 262 c 0
 360 270 292 398 242 468 c 0
EndSplineSet
EndChar
StartChar: P
Encoding: 307 80 51
Width: 606
VWidth: 1000
GlyphClass: 4
Flags: HMW
AnchorPoint: "acute" 292 934 basechar 0
AnchorPoint: "ogonek" 182 46 basechar 0
AnchorPoint: "cedilla" 176 42 basechar 0
LayerCount: 2
Fore
SplineSet
176 790 m 1
 176 729 174 621 174 591 c 0
 174 456 180 416 182 374 c 1
 231 382 277 391 331 418 c 0
 357 431 396 451 419 469 c 0
 443 489 492 532 492 562 c 0
 492 578 473 618 464 630 c 0
 433 671 401 692 348 730 c 0
 295 767 252 790 176 790 c 1
314 319 m 0
 284 307 220 295 186 290 c 1
 186 280 187 258 188 248 c 0
 190 218 189 182 194 156 c 0
 204 108 224 100 224 70 c 0
 224 36 209 -2 170 -2 c 0
 152 -2 136 18 130 40 c 0
 126 56 125 88 122 102 c 0
 112 144 112 170 106 210 c 0
 100 250 96 320 94 428 c 0
 92 546 90 622 90 650 c 0
 90 700 93 732 94 744 c 0
 96 766 98 776 98 786 c 1
 90 782 66 768 64 762 c 0
 62 756 62 738 62 706 c 0
 62 686 56 672 46 672 c 0
 36 672 22 712 22 754 c 0
 22 812 44 857 104 874 c 1
 106 884 104 894 106 898 c 0
 110 906 116 912 136 912 c 0
 152 912 168 910 172 906 c 0
 174 904 176 882 176 878 c 0
 253 872 324 838 384 800 c 0
 459 753 484 735 524 684 c 0
 555 643 574 610 574 578 c 0
 574 518 546 489 524 461 c 0
 484 408 372 341 314 319 c 0
EndSplineSet
EndChar
StartChar: Q
Encoding: 81 81 52
Width: 762
GlyphClass: 4
Flags: HMW
AnchorPoint: "acute" 390 957 basechar 0
AnchorPoint: "ogonek" 692 -11 basechar 0
AnchorPoint: "cedilla" 372 45 basechar 0
LayerCount: 2
Fore
SplineSet
231 173 m 0
 247 155 262 141 278 131 c 0
 309 112 325 92 374 92 c 0
 401 92 446 133 472 169 c 1
 468 179 452 195 442 209 c 0
 430 229 428 231 414 253 c 0
 408 261 362 315 362 325 c 0
 362 337 397 373 429 373 c 0
 453 373 483 313 499 291 c 0
 519 265 525 255 535 245 c 1
 573 299 586 353 597 447 c 0
 613.666666667 566.166666667 615.055555556 639.5 615.055555556 669.314814815 c 0
 615.055555556 675.277777778 615 679.5 615 682 c 0
 615 702 613 727 594 753 c 0
 572 778 531 800 492 806 c 0
 482 807 468 808 450 808 c 0
 437 808 422 808 405 806 c 0
 290 794 229 780 180 702 c 0
 156 663 143 620 135 569 c 0
 132.656854249 554.941125497 131.686291501 540.539105243 131.686291501 525.391918986 c 0
 131.686291501 514.681240867 132.171572875 503.597979746 133 492 c 0
 137 427 147 339 172 286 c 0
 194 241 200 210 231 173 c 0
360 891 m 0
 384 896 414 902 451 902 c 0
 470 902 490 900 512 897 c 0
 582 887 610 877 650 833 c 0
 686 795 704 755 704 687 c 0
 704 599 702 569 692 501 c 0
 668 333 643 260 611 206 c 0
 601 192 600 182 590 168 c 1
 606 140 613 131 635 105 c 0
 645 91 669 73 701 51 c 0
 733 27 749 7 749 -7 c 0
 749 -17 738 -33 732 -37 c 0
 722 -45 710 -49 694 -49 c 0
 688 -49 684 -47 678 -47 c 0
 652 -43 648 -23 630 -11 c 0
 616 -1 608 11 594 23 c 0
 572 43 554 65 530 99 c 1
 498 65 426 3 364 3 c 0
 312 3 252 37 212 63 c 0
 172 89 156 127 130 167 c 0
 118 185 110 203 90 259 c 0
 58 351 50 437 50 483 c 0
 50 497 50 529 56 573 c 0
 68 669 76 679 98 735 c 0
 108 759 126 781 160 807 c 0
 220 853 270 875 360 891 c 0
EndSplineSet
EndChar
StartChar: R
Encoding: 82 82 53
Width: 708
GlyphClass: 4
Flags: HMW
AnchorPoint: "acute" 298 949 basechar 0
AnchorPoint: "ogonek" 626 37 basechar 0
AnchorPoint: "cedilla" 370 35 basechar 0
LayerCount: 2
Fore
SplineSet
298 767 m 0
 280 769 248 777 214 777 c 0
 196 777 176 779 162 781 c 1
 162 772.764705882 152.505190311 651.948096886 152.505190311 503.444941991 c 0
 152.505190311 471.62283737 152.941176471 438.529411765 154 405 c 1
 154 405 192 403 218 403 c 0
 276 403 384 427 454 487 c 0
 492 519 514 573 514 597 c 0
 514 621 502 641 486 661 c 0
 442 714 367 756 298 767 c 0
160 321 m 1
 162 263 167 145 192 91 c 0
 200 77 202 65 202 59 c 0
 202 49 192 35 176 19 c 0
 160 1 154 -1 144 -1 c 0
 136 -1 122 11 112 27 c 0
 94 55 88 83 84 147 c 0
 82 187 82 217 74 293 c 0
 70.4 330.2 69.68 364.52 69.68 396.824 c 0
 69.68 418.36 70 439 70 459 c 0
 70 583 70.8888888889 635.888888889 70.8888888889 700.62962963 c 0
 70.8888888889 733 70.6666666667 768.333333333 70 817 c 1
 58 827 44 847 44 861 c 0
 44 885 74 921 102 921 c 0
 130 921 164 885 166 871 c 1
 198 869 270 865 306 857 c 0
 342 849 376 835 394 829 c 0
 468 804 525 766 568 701 c 0
 580 677 602 623 602 601 c 0
 602 531 542 469 498 429 c 0
 460 395 402 369 370 357 c 1
 408 341 452 299 472 277 c 0
 504 241 562 161 588 133 c 0
 624 95 646 75 656 71 c 0
 666 67 670 57 670 45 c 0
 670 21 654 -5 628 -5 c 0
 589 -5 535 55 510 83 c 0
 498 95 468 131 448 157 c 0
 426 187 388 221 362 249 c 0
 320 293 270 311 160 321 c 1
EndSplineSet
EndChar
StartChar: S
Encoding: 310 83 54
Width: 552
VWidth: 1000
GlyphClass: 4
Flags: HMW
AnchorPoint: "acute" 298 942 basechar 0
AnchorPoint: "ogonek" 326 56 basechar 0
AnchorPoint: "cedilla" 296 48 basechar 0
LayerCount: 2
Fore
SplineSet
208 342 m 0
 186 350 96 388 76 420 c 0
 48 466 36 484 36 550 c 0
 36 636 94 726 118 760 c 0
 128 772 138 790 158 810 c 0
 189 841 270 896 312 896 c 0
 368 896 398 886 416 874 c 0
 422 870 430 864 442 858 c 0
 468 844 480 826 480 806 c 0
 480 786 464 768 440 768 c 0
 434 768 430 768 424 770 c 0
 378 794 362 798 318 798 c 0
 263 798 212 753 182 710 c 0
 148 662 126 628 126 554 c 0
 126 514 130 482 146 466 c 0
 168 442 218 424 252 414 c 0
 348 382 434 324 504 258 c 0
 534 230 538 204 538 192 c 0
 538 168 522 138 490 106 c 0
 436 52 265 -6 192 -6 c 0
 132 -6 56 26 56 66 c 0
 56 95 78 114 106 114 c 0
 112 114 128 114 138 108 c 0
 158 98 166 84 212 84 c 0
 250 84 312 98 338 108 c 0
 388 130 408 146 434 162 c 0
 440 166 442 168 442 176 c 0
 442 186 436 194 426 204 c 0
 308 320 268 324 208 342 c 0
EndSplineSet
EndChar
StartChar: T
Encoding: 311 84 55
Width: 730
VWidth: 1000
GlyphClass: 4
Flags: HMW
AnchorPoint: "acute" 354 906 basechar 0
AnchorPoint: "ogonek" 410 52 basechar 0
AnchorPoint: "cedilla" 404 44 basechar 0
LayerCount: 2
Fore
SplineSet
602 896 m 0
 608 900 618 904 634 904 c 0
 658 904 678 900 692 892 c 0
 704 884 712 874 712 862 c 0
 712 838 698 835 682 827 c 0
 668 819 640 815 602 813 c 0
 570 813 538 813 504 807 c 0
 446 799 440 797 396 793 c 1
 396 793 398 728 398 694 c 0
 402 520 412 334 418 250 c 0
 422 204 420 128 424 118 c 0
 428 108 432 100 438 96 c 0
 452 84 460 66 460 54 c 0
 460 38 448 22 420 10 c 0
 404 0 408 -2 400 -2 c 0
 394 -2 390 0 380 6 c 0
 346 22 343 68 339 118 c 0
 335 170 335 246 333 270 c 0
 329 318 318 438 318 630 c 0
 318 672.5 319.953125 708.359375 319.953125 737.578125 c 0
 319.953125 755.109375 319.25 770.25 317 783 c 1
 291 781 250 779 200 779 c 0
 76 779 28 780 28 830 c 0
 28 834 30 838 36 844 c 0
 42 854 46 862 54 864 c 0
 62 866 78 868 106 868 c 0
 138 868 148 858 182 858 c 0
 206 858 240 858 286 864 c 0
 296 866 310 866 328 868 c 0
 346 870 374 870 410 874 c 0
 446 878 484 880 520 882 c 0
 574 888 596 892 602 896 c 0
EndSplineSet
EndChar
StartChar: V
Encoding: 86 86 57
Width: 692
GlyphClass: 4
Flags: HMW
AnchorPoint: "acute" 344 934 basechar 0
AnchorPoint: "ogonek" 402 20 basechar 0
AnchorPoint: "cedilla" 392 20 basechar 0
LayerCount: 2
Fore
SplineSet
248 398 m 0
 280 322 272 340 310 264 c 0
 316 254 322 240 332 220 c 0
 346 188 346 188 352 178 c 0
 356 170 376 130 384 120 c 1
 394 138 394 152 404 176 c 0
 410 188 408 208 418 234 c 0
 442 298 458 352 468 396 c 0
 470 406 472 424 482 448 c 0
 498 492 508 536 514 554 c 0
 533 631 543 709 550 788 c 0
 554 836 550 846 556 876 c 0
 562 904 594 922 610 922 c 0
 633 922 650 875 650 856 c 0
 650 844 646 840 640 830 c 0
 634 820 628 800 622 768 c 0
 610 642 586 530 554 430 c 0
 540 384 536 336 510 264 c 0
 504 246 500 224 492 192 c 0
 480 140 462 84 444 30 c 0
 434 -1 423 -28 386 -28 c 0
 374 -28 364 -24 354 -16 c 0
 340 -6 334 16 318 50 c 0
 296 96 290 126 266 162 c 0
 258 172 242 202 208 274 c 0
 194 304 186 328 164 384 c 0
 144 438 118 510 98 608 c 0
 80 702 76 736 42 800 c 0
 32 816 28 832 28 846 c 0
 28 864 56 894 74 894 c 0
 127 894 149 786 156 750 c 0
 188 618 204 546 208 530 c 0
 224 456 220 464 248 398 c 0
EndSplineSet
EndChar
StartChar: Y
Encoding: 316 89 60
Width: 660
VWidth: 1000
GlyphClass: 4
Flags: HMW
AnchorPoint: "acute" 332 940 basechar 0
AnchorPoint: "ogonek" 384 -2 basechar 0
AnchorPoint: "cedilla" 384 4 basechar 0
LayerCount: 2
Fore
SplineSet
490 800 m 0
 514 854 520 880 554 914 c 0
 578 938 600 950 620 950 c 0
 642 948 654 940 654 928 c 0
 654 916 646 902 632 888 c 0
 620 874 604 854 590 830 c 0
 554 768 554 746 526 678 c 0
 516 654 510 630 484 574 c 0
 474 548 464 524 456 496 c 0
 452 480 450 460 444 442 c 0
 438 424 432 408 428 392 c 0
 424 376 422 352 418 322 c 0
 412 266 400 188 400 118 c 0
 400 80 406 54 416 44 c 0
 426 34 432 24 432 14 c 0
 432 -8 393 -38 372 -38 c 0
 362 -38 356 -36 350 -30 c 0
 344 -24 340 -12 332 4 c 0
 322 28 316 56 316 88 c 0
 316 106 318 150 324 220 c 0
 328 264 330 296 330 316 c 0
 330 344 334 354 338 380 c 1
 331 378 325 378 319 378 c 0
 298 378 282 389 266 406 c 0
 232 446 222 470 192 510 c 0
 162 548 152 582 128 626 c 0
 122 636 114 662 90 708 c 0
 52 782 18 816 18 864 c 0
 18 890 32 902 62 902 c 0
 82 902 88 898 90 890 c 0
 92 884 96 878 106 862 c 0
 114 852 134 818 144 792 c 0
 154 768 184 720 202 684 c 0
 234 624 236 624 276 550 c 0
 288 528 304 510 320 496 c 0
 336 480 352 460 354 450 c 1
 372 508 390 550 414 608 c 0
 440 670 468 752 490 800 c 0
EndSplineSet
EndChar
StartChar: Z
Encoding: 317 90 61
Width: 786
VWidth: 1000
GlyphClass: 4
Flags: HMW
AnchorPoint: "acute" 389 979 basechar 0
AnchorPoint: "ogonek" 717 59 basechar 0
AnchorPoint: "cedilla" 423 33 basechar 0
LayerCount: 2
Fore
SplineSet
695 874 m 0
 695 859 693 846 686 834 c 0
 668 804 659 789 639 751 c 0
 569 638 504 555 424 445 c 0
 366 365 346 333 287 252 c 0
 262 217 201 123 185 96 c 1
 201 88 229 82 255 82 c 0
 354 82 397 87 435 91 c 0
 506 99 579 110 641 110 c 0
 657 110 681 104 698 101 c 0
 748 95 764 83 764 66 c 0
 764 36 720 19 696 17 c 0
 536 7 376 0 208 0 c 0
 157 2 125 4 113 6 c 0
 91 10 61 37 61 59 c 0
 61 78 79 112 115 154 c 0
 180 227 216 280 235 311 c 0
 273 365 306 417 348 479 c 0
 434 606 543 728 582 826 c 1
 543 824 501 819 463 812 c 0
 396 801 327 796 263 796 c 0
 152 796 83 807 55 831 c 0
 43 841 38 853 38 862 c 0
 38 870 53 892 60 896 c 0
 66 897 76 899 93 899 c 0
 121 899 128 892 145 889 c 0
 175 882 201 880 293 880 c 0
 387 880 426 885 446 889 c 0
 483 895 518 904 558 906 c 0
 568 906 578 907 587 907 c 0
 644 907 674 899 683 896 c 0
 690 893 695 882 695 874 c 0
EndSplineSet
EndChar
StartChar: bracketleft
Encoding: 318 91 62
Width: 456
VWidth: 1000
GlyphClass: 2
Flags: HMW
LayerCount: 2
Fore
SplineSet
167 402 m 0
 173 340 179 32 179 -84 c 0
 179 -138 177 -192 175 -230 c 1
 205 -228 252 -222 296 -222 c 0
 322 -222 382 -222 396 -226 c 0
 404 -228 408 -230 410 -238 c 0
 414 -248 416 -256 416 -262 c 0
 416 -272 412 -283 402 -287 c 0
 392 -291 374 -299 344 -303 c 0
 292 -309 238 -311 192 -315 c 0
 159 -318 140 -324 130 -324 c 0
 112 -324 78 -291 78 -272 c 0
 78 -270 78 -268 80 -266 c 0
 94 -232 100 -164 100 -66 c 0
 100 48 96 308 90 384 c 0
 86 440 76 690 76 754 c 0
 76 770 75 786.5 75 803.5 c 0
 75 820.5 76 838 80 856 c 0
 88 892 94 916 104 926 c 0
 109 931 115 933 123 933 c 0
 129 933 136 932 144 930 c 0
 166 924 210 924 280 924 c 0
 338 924 378 922 394 916 c 0
 410 910 418 900 418 882 c 0
 418 866 410 860 394 854 c 0
 378 848 340 846 284 846 c 0
 254 846 229 846 210 846 c 0
 181 846 164 846 163 842 c 0
 161 838.666666667 160.333333333 832.666666667 160.333333333 824.962962963 c 0
 160.333333333 809.555555556 163 787.333333333 163 766 c 0
 163 712.545454545 161.214876033 640.049586777 161.214876033 568.311044328 c 0
 161.214876033 508.52892562 162.454545455 449.272727273 167 402 c 0
EndSplineSet
Substitution2: "'case' +WSdlh1tXfUQwf3UoMGuKv2V0MFcwX1tXX2IA lookup 12 +MLUw1jDGMPww1jDr" bracketleft.case
EndChar
StartChar: b
Encoding: 98 98 69
Width: 600
GlyphClass: 4
Flags: MW
HStem: -22 88<226 241> 442 96<406 418> 888 20G<77 98>
VStem: 50 86<656 731 656 740> 478 82<311 356>
AnchorPoint: "acute" 282 934 basechar 0
AnchorPoint: "ogonek" 402 74 basechar 0
AnchorPoint: "cedilla" 316 32 basechar 0
LayerCount: 2
Fore
SplineSet
478 314 m 0
 478 398 472 416 440 438 c 0
 434 442 424 442 412 442 c 0
 366 442 326 418 298 392 c 0
 278 374 268 360 258 350 c 0
 193 282 178 220 178 130 c 0
 178 114 184 84 188 72 c 1
 196 68 212 66 240 66 c 0
 272 66 296 82 326 96 c 0
 408 133 478 222 478 314 c 0
48 892 m 0
 58 902 72 908 82 908 c 0
 114 908 130 869 130 842 c 0
 130 832 136 778 136 684 c 0
 136 628 134 404 142 340 c 1
 162 368 164 372 214 424 c 0
 268 480 296 508 352 526 c 0
 376 534 398 538 414 538 c 0
 471 538 530 482 552 432 c 0
 560 414 560 380 560 336 c 0
 560 286 558 254 552 236 c 0
 506 131 468 75 370 18 c 0
 304 -20 282 -22 200 -22 c 0
 144 -22 114 -18 108 -10 c 0
 102 -2 94 54 82 158 c 0
 66 284 50 286 50 692 c 0
 50 788 48 846 40 862 c 0
 34 872 38 882 48 892 c 0
EndSplineSet
EndChar
StartChar: d
Encoding: 100 100 71
Width: 586
GlyphClass: 4
Flags: HMW
AnchorPoint: "acute" 354 942 basechar 0
AnchorPoint: "ogonek" 510 0 basechar 0
AnchorPoint: "cedilla" 308 2 basechar 0
LayerCount: 2
Fore
SplineSet
252 432 m 0
 178 432 128 328 128 222 c 0
 128 144 136 102 192 102 c 0
 246 102 324 248 380 354 c 1
 360 374 310 432 252 432 c 0
42 182 m 0
 42 346 98 520 264 520 c 0
 316 520 356 496 388 460 c 1
 378 602 370 680 370 794 c 0
 370 842 390 898 424 898 c 0
 474 898 478 834 478 784 c 0
 478 762 482 708 482 618 c 0
 482 436 494 350 518 178 c 0
 524 136 530 60 542 28 c 0
 546 20 552 16 552 6 c 0
 552 -32 520 -36 506 -36 c 0
 436 -36 448 92 418 246 c 1
 322 84 280 2 176 2 c 0
 102 2 42 92 42 182 c 0
EndSplineSet
EndChar
StartChar: e
Encoding: 101 101 72
Width: 509
GlyphClass: 4
Flags: HMW
AnchorPoint: "acute" 252 594 basechar 0
AnchorPoint: "ogonek" 430 70 basechar 0
AnchorPoint: "cedilla" 282 8 basechar 0
LayerCount: 2
Fore
SplineSet
134 312 m 1
 206 327 304 353 366 388 c 1
 335 423 294 468 244 468 c 0
 228 468 212 462 200 452 c 0
 170 432 134 358 134 312 c 1
154 533 m 0
 172 548 202 560 230 560 c 0
 288 560 350 524 394 484 c 0
 432 448 458 422 458 380 c 0
 458 356 424 330 394 312 c 0
 380 302 326 276 302 266 c 0
 248 248 188 228 136 212 c 1
 140 160 158 114 182 90 c 0
 198 74 228 62 288 62 c 0
 316 62 354 86 370 100 c 0
 380 110 416 126 436 126 c 0
 452 126 470 112 470 98 c 0
 470 76 418 44 404 32 c 0
 362 -4 336 -18 284 -18 c 0
 198 -18 151 -11 120 22 c 0
 62 84 41 146 41 250 c 0
 41 403 78 469 154 533 c 0
EndSplineSet
EndChar
StartChar: g
Encoding: 330 103 74
Width: 521
VWidth: 1000
GlyphClass: 4
Flags: HMW
AnchorPoint: "acute" 258 596 basechar 0
AnchorPoint: "ogonek" 392 -272 basechar 0
AnchorPoint: "cedilla" 290 -288 basechar 0
LayerCount: 2
Fore
SplineSet
324 194 m 0
 324 184 348 164 371 136 c 0
 427 71 461 -3 461 -98 c 0
 461 -194 399 -267 323 -267 c 0
 258 -267 212 -246 157 -201 c 0
 81 -139 63 -112 63 -53 c 0
 63 -15 182 70 241 70 c 0
 268 70 286 54 286 33 c 0
 286 17 275 2 257 -8 c 0
 238 -17 167 -53 159 -68 c 1
 172 -116 272 -174 318 -174 c 0
 346 -174 376 -155 376 -96 c 0
 376 -60 363 0 311 70 c 0
 260 138 229 157 229 187 c 0
 229 194 230 201 231 209 c 1
 207 199 181 194 150 194 c 0
 71 194 46 243 46 298 c 0
 46 337 57 379 106 443 c 0
 184 546 217 563 261 563 c 0
 306 563 350 530 396 495 c 0
 442 461 477 409 477 343 c 0
 477 329 467 326 454 326 c 0
 446 326 438 327 430 327 c 0
 425 327 420 329 416 333 c 1
 409 322 400 311 388 300 c 0
 337 250 324 216 324 194 c 0
356 421 m 1
 328 449 274 475 261 475 c 0
 246 475 220 457 178 400 c 0
 140 348 133 324 133 303 c 0
 133 291 137 284 151 284 c 0
 224 284 269 326 356 421 c 1
EndSplineSet
EndChar
StartChar: h
Encoding: 104 104 75
Width: 552
GlyphClass: 4
Flags: MW
HStem: -2 21G<458 496> 416 104<382.5 401>
VStem: 64 94<290 486 290 698> 404 84<260 357>
AnchorPoint: "acute" 204 930 basechar 0
AnchorPoint: "ogonek" 494 40 basechar 0
AnchorPoint: "cedilla" 300 18 basechar 0
LayerCount: 2
Fore
SplineSet
534 52 m 0
 534 32 506 -2 486 -2 c 0
 430 -2 408 40 408 122 c 0
 408 232 404 190 404 330 c 0
 404 384 406 416 396 416 c 0
 341 416 235 256 212 214 c 0
 178 150 172 130 162 48 c 0
 158 18 148 -44 124 -44 c 0
 118 -44 104 -42 86 -32 c 0
 68 -22 64 106 64 170 c 0
 64 416 70 590 64 698 c 0
 60 766 54 808 44 826 c 0
 40 836 38 842 38 852 c 0
 38 874 54 892 78 892 c 0
 126 892 124 846 134 792 c 0
 152 680 158 626 158 486 c 0
 158 374 156 340 158 290 c 0
 162 290 172 308 192 340 c 0
 228 408 339 520 426 520 c 0
 448 520 464 508 470 494 c 0
 474 484 486 410 488 378 c 0
 490 340 488 268 488 222 c 0
 488 164 488 100 498 92 c 0
 502 88 534 76 534 52 c 0
EndSplineSet
Substitution2: "'sups' +TgowZDBNZYdbVwAA lookup 4 +MLUw1jDGMPww1jDr" uni02B0
Substitution2: "'aalt' +MFkweTBmMG51cE9TW1cweDBuMKIwrzC7MLkA lookup 0 +MLUw1jDGMPww1jDr" uni02B0
EndChar
StartChar: j
Encoding: 333 106 77
Width: 238
VWidth: 1000
GlyphClass: 4
Flags: HMW
AnchorPoint: "acute" 106 844 basechar 0
AnchorPoint: "ogonek" 128 -214 basechar 0
AnchorPoint: "cedilla" 102 -218 basechar 0
LayerCount: 2
Fore
SplineSet
128 656 m 0
 106 656 68 714 44 742 c 0
 28 762 20 782 20 794 c 0
 20 816 50 836 82 836 c 0
 110 836 164 748 176 740 c 0
 186 734 192 722 192 700 c 0
 192 660 164 656 128 656 c 0
72 464 m 0
 72 496 72 542 94 542 c 0
 106 542 130 534 140 524 c 0
 148 516 154 484 156 416 c 0
 156 302 158 176 172 74 c 0
 180 20 194 -30 194 -80 c 0
 194 -160 176 -220 142 -254 c 0
 132 -264 112 -268 94 -268 c 0
 40 -268 -18 -238 -50 -228 c 0
 -82 -218 -96 -198 -96 -174 c 0
 -96 -152 -74 -142 -54 -142 c 0
 -26 -142 34 -178 66 -178 c 0
 104 -178 108 -142 108 -96 c 0
 108 -42 100 -20 90 74 c 0
 80 192 72 370 72 464 c 0
EndSplineSet
Substitution2: "'sups' +TgowZDBNZYdbVwAA lookup 4 +MLUw1jDGMPww1jDr" uni02B2
EndChar
StartChar: k
Encoding: 334 107 78
Width: 567
VWidth: 1000
GlyphClass: 4
Flags: HMW
AnchorPoint: "acute" 263 916 basechar 0
AnchorPoint: "ogonek" 513 36 basechar 0
AnchorPoint: "cedilla" 313 10 basechar 0
LayerCount: 2
Fore
SplineSet
99 884 m 0
 135 884 139 862 139 804 c 0
 139 758 141 724 147 692 c 0
 157 636 161 454 167 388 c 0
 173 334 171 316 173 298 c 1
 208 319 304 390 325 422 c 0
 335 434 427 500 441 500 c 0
 459 500 465 492 465 470 c 0
 465 438 457 446 425 410 c 0
 405 386 349 328 311 292 c 0
 285 268 245 238 229 224 c 1
 247 206 289 162 335 130 c 0
 359 118 413 84 437 78 c 0
 447 74 463 74 485 74 c 2
 525 74 l 2
 539 74 553 62 553 48 c 0
 553 34 539 16 527 10 c 0
 511 4 475 -10 455 -10 c 0
 451 -10 441 -10 421 -8 c 0
 353 4 287 34 225 86 c 0
 205 102 187 112 181 116 c 1
 181 106 181 92 183 80 c 0
 185 62 197 44 197 34 c 0
 197 4 159 -10 137 -10 c 0
 111 -10 97 2 95 32 c 0
 93 68 93 82 93 100 c 0
 93 110 89 162 87 260 c 0
 85 410 71 472 71 632 c 0
 71 642 53 784 53 826 c 0
 53 850 67 884 99 884 c 0
EndSplineSet
EndChar
StartChar: l
Encoding: 108 108 79
Width: 298
GlyphClass: 4
Flags: MW
HStem: -16 21G<181 187> 906 20G<95 118>
VStem: 67 80 68 80 69 84
AnchorPoint: "acute" 106 974 basechar 0
AnchorPoint: "ogonek" 258 52 basechar 0
AnchorPoint: "cedilla" 172 28 basechar 0
LayerCount: 2
Fore
SplineSet
242 86 m 0xd0
 262 86 290 82 290 62 c 0
 290 32 229 -4 204 -12 c 0
 194 -16 188 -16 186 -16 c 0
 176 -16 162 -14 146 -4 c 0
 98 20 80 64 72 116 c 0
 68 148 66 298 68 438 c 0
 70 622 70 728 70 890 c 0
 70 916 80 926 110 926 c 0xe0
 126 926 146 916 152 898 c 0xc8
 156 888 152 734 154 612 c 0
 156 488 146 386 148 346 c 0
 152 200 146 118 178 80 c 0
 184 72 194 70 204 70 c 0
 210 70 226 86 242 86 c 0xd0
EndSplineSet
EndChar
StartChar: m
Encoding: 109 109 80
Width: 860
GlyphClass: 4
Flags: MW
HStem: -8 21G<100 118> -3 21G<773 817> 518 20G<56.5 81.5> 542 20G<714.5 737>
VStem: 352 94 713 86
AnchorPoint: "acute" 434 568 basechar 0
AnchorPoint: "ogonek" 799 33 basechar 0
AnchorPoint: "cedilla" 429 113 basechar 0
LayerCount: 2
Fore
SplineSet
737 562 m 0x5c
 756 561 773 548 780 537 c 0
 788 526 790 517 793 507 c 0
 797 488 799 467 800 443 c 0
 802 394 800 333 799 272 c 0
 798 212 799 153 804 114 c 0
 806 99 813 77 820 76 c 0
 836 72 848 67 848 45 c 0
 848 21 829 -3 805 -3 c 0x5c
 741 -3 728 51 720 102 c 0
 713 151 713 212 714 274 c 0
 715 335 715 396 713 440 c 0
 713 443 713 446 713 450 c 1
 680 417 628 338 605 299 c 0
 576 248 549 193 523 154 c 0
 510 134 497 116 484 102 c 0
 471 89 457 73 429 73 c 0
 372 73 353 117 348 167 c 0
 344 208 348 254 352 299 c 0
 356 340 360 381 361 410 c 1
 358 405 354 400 350 394 c 0
 328 363 303 317 279 267 c 0
 254 218 230 166 208 120 c 0
 185 74 165 35 143 8 c 0
 135 -2 124 -8 112 -8 c 0
 88 -8 69 10 68 34 c 0
 61 252 51 375 35 468 c 0
 34 480 31 489 31 503 c 0
 31 519 43 538 70 538 c 0
 93 538 114 522 117 499 c 0xac
 126 436 142 319 147 179 c 1
 165 217 185 259 205 299 c 0
 238 367 297 476 326 505 c 0
 341 519 361 531 387 531 c 0
 401 531 417 524 426 515 c 0
 436 506 441 496 444 486 c 0
 450 468 446 424 446 420 c 0
 446 381 441 336 437 291 c 0
 433 247 430 203 432 175 c 2
 432 175 432 174 432 173 c 1
 438 181 445 190 452 201 c 0
 476 236 510 294 540 345 c 0
 569 396 598 448 629 489 c 0
 655 525 692 562 737 562 c 0x5c
EndSplineSet
EndChar
StartChar: n
Encoding: 110 110 81
Width: 578
GlyphClass: 4
Flags: MW
HStem: -14 21G<104 142> -8 21G<470 486.5> 452 92<370 400> 546 20G<114 118>
VStem: 68 82<347.5 440> 422 88<98 371>
AnchorPoint: "acute" 280 598 basechar 0
AnchorPoint: "ogonek" 478 34 basechar 0
AnchorPoint: "cedilla" 316 32 basechar 0
LayerCount: 2
Fore
SplineSet
182 32 m 0xac
 174 6 158 -14 126 -14 c 0
 82 -14 68 325 68 370 c 0
 68 444 70 472 60 480 c 0
 54 484 48 488 48 496 c 0
 50 526 86 568 114 566 c 0
 122 566 126 560 134 554 c 0x9c
 150 536 148 514 150 440 c 0
 150 422 158 266 160 244 c 1
 184 318 218 384 258 456 c 0
 292 518 312 544 404 544 c 0
 484 544 510 506 510 302 c 0
 510 232 508 110 510 98 c 0
 514 74 530 58 530 36 c 0
 530 -4 503 -8 470 -8 c 0
 436 -6 426 16 422 42 c 0x6c
 420 60 416 110 418 124 c 0
 422 180 422 300 422 324 c 0
 422 418 420 452 380 452 c 0
 360 452 338 418 320 382 c 0
 280 302 224 184 182 32 c 0xac
EndSplineSet
EndChar
StartChar: o
Encoding: 111 111 82
Width: 536
GlyphClass: 4
Flags: HMW
AnchorPoint: "acute" 266 574 basechar 0
AnchorPoint: "ogonek" 348 44 basechar 0
AnchorPoint: "cedilla" 274 20 basechar 0
LayerCount: 2
Fore
SplineSet
394 417 m 0
 362 453 354 463 302 463 c 0
 220 463 180 439 148 367 c 0
 138 347 134 307 134 271 c 0
 134 193 152 147 188 105 c 0
 208 81 222 71 238 71 c 0
 260 71 286 91 322 123 c 0
 362 157 388 189 400 217 c 0
 410 235 412 281 412 319 c 0
 412 365 404 405 394 417 c 0
286 544 m 0
 446 544 490 484 490 324 c 0
 490 276 489 221 471 182 c 0
 457 152 419 98 372 57 c 0
 327 18 292 -10 239 -10 c 0
 178 -10 121 33 87 97 c 0
 69 129 46 212 46 322 c 0
 46 376 62 416 90 448 c 0
 142 508 184 544 286 544 c 0
EndSplineSet
Substitution2: "+U1h9FH9uY9sA lookup 7 +MLUw1jDGMPww1jDr" ordmasculine
EndChar
StartChar: q
Encoding: 340 113 84
Width: 570
VWidth: 1000
GlyphClass: 4
Flags: HMW
AnchorPoint: "acute" 280 586 basechar 0
AnchorPoint: "ogonek" 590 -206 basechar 0
AnchorPoint: "cedilla" 234 46 basechar 0
LayerCount: 2
Fore
SplineSet
372 226 m 0
 403 282 414 331 414 394 c 1
 410 402 406 406 390 420 c 0
 364 444 334 454 298 454 c 0
 186 454 136 380 136 246 c 0
 136 178 160 102 208 102 c 0
 282 102 338 162 372 226 c 0
286 540 m 0
 350 540 398 512 434 494 c 0
 462 482 480 474 486 472 c 0
 498 464 506 438 506 388 c 0
 506 378 504 348 502 304 c 0
 498 226 494 164 494 118 c 0
 494 20 486 -42 486 -74 c 0
 486 -148 492 -204 530 -204 c 0
 560 -204 568 -160 600 -160 c 0
 622 -160 630 -184 630 -200 c 0
 630 -244 570 -288 524 -288 c 0
 424 -288 404 -196 404 -96 c 0
 404 -66 416 132 416 156 c 1
 388 106 306 8 234 8 c 0
 110 8 56 102 56 232 c 0
 56 362 76 434 116 472 c 0
 166 518 208 540 286 540 c 0
EndSplineSet
EndChar
StartChar: r
Encoding: 114 114 85
Width: 473
GlyphClass: 4
Flags: MW
HStem: -6 21G<110 133.5> 449 83<427 442.5> 471 85<288 288>
VStem: 32 86 40 86
AnchorPoint: "acute" 254 608 basechar 0
AnchorPoint: "ogonek" 121 33 basechar 0
AnchorPoint: "cedilla" 123 14 basechar 0
LayerCount: 2
Fore
SplineSet
79 554 m 0xa8
 122 554 141 535 134 503 c 0
 123 452 123 359 132 257 c 1
 153 334 179 412 204 482 c 0xb0
 220 524 238 556 287 556 c 0
 337 556 408 532 433 532 c 0
 457 532 473 522 473 499 c 0xd0
 473 471 458 449 427 449 c 0
 384 450 325 470 288 471 c 1
 240 340 194 197 163 46 c 0
 158 24 144 -6 123 -6 c 0
 97 -6 84 20 79 42 c 0
 39 212 32 421 48 509 c 0
 52 526 55 554 79 554 c 0xa8
EndSplineSet
Substitution2: "'sups' +TgowZDBNZYdbVwAA lookup 4 +MLUw1jDGMPww1jDr" uni02B3
Substitution2: "'aalt' +MFkweTBmMG51cE9TW1cweDBuMKIwrzC7MLkA lookup 0 +MLUw1jDGMPww1jDr" uni02B3
EndChar
StartChar: s
Encoding: 115 115 86
Width: 428
GlyphClass: 4
Flags: MW
HStem: -10 84<182 226.5> 476 78<239 268>
VStem: 46 87<369 398 369 411.5> 295 84<456 465>
AnchorPoint: "acute" 221 600 basechar 0
AnchorPoint: "ogonek" 336 42 basechar 0
AnchorPoint: "cedilla" 214 24 basechar 0
LayerCount: 2
Fore
SplineSet
258 554 m 0
 296 554 344 536 365 514 c 0
 373 506 379 494 379 470 c 0
 379 442 355 398 325 398 c 0
 303 398 285 418 285 428 c 0
 285 436 295 448 295 460 c 0
 295 470 283 476 253 476 c 0
 225 476 207 466 172 440 c 0
 139 416 133 404 133 392 c 0
 133 346 184 311 212 290 c 0
 259 255 382 146 382 77 c 0
 382 -1 255 -10 198 -10 c 0
 162 -10 64 -1 64 48 c 0
 64 76 78 90 106 90 c 0
 138 90 146 74 218 74 c 0
 256 74 280 83 290 90 c 1
 262 152 208 187 139 246 c 0
 100 279 46 318 46 396 c 0
 46 427 61 464 128 509 c 0
 173 539 202 554 258 554 c 0
EndSplineSet
Substitution2: "'sups' +TgowZDBNZYdbVwAA lookup 4 +MLUw1jDGMPww1jDr" uni02E2
Substitution2: "'aalt' +MFkweTBmMG51cE9TW1cweDBuMKIwrzC7MLkA lookup 0 +MLUw1jDGMPww1jDr" uni02E2
EndChar
StartChar: t
Encoding: 343 116 87
Width: 550
VWidth: 1000
GlyphClass: 4
Flags: HMW
AnchorPoint: "acute" 292 916 basechar 0
AnchorPoint: "ogonek" 480 82 basechar 0
AnchorPoint: "cedilla" 366 32 basechar 0
LayerCount: 2
Fore
SplineSet
96 540 m 0
 102 540 146 542 174 548 c 1
 174 566 176 562 176 594 c 0
 176 644 180 700 184 764 c 0
 188 838 184 866 210 866 c 0
 246 866 268 860 268 810 c 0
 268 768 262 730 256 642 c 0
 255.333333333 633.333333333 255.111111111 624.666666667 255.111111111 615.925925926 c 0
 255.111111111 598.444444444 256 580.666666667 256 562 c 1
 258 562 354 576 380 584 c 0
 406 592 424 596 456 596 c 0
 476 596 502 586 502 568 c 0
 502 558 492 540 476 530 c 0
 438 506 303 486 256 480 c 1
 256 386 l 2
 256 232 260 140 286 104 c 0
 308 72 346 72 370 72 c 0
 408 72 452 116 456 122 c 0
 460 128 460 134 470 134 c 0
 492 134 524 108 524 86 c 0
 524 74 498 46 488 38 c 0
 440 0 430 -14 346 -14 c 0
 218 -14 180 104 178 246 c 0
 178 288 172 382 172 460 c 1
 118 450 86 444 66 444 c 0
 46 444 24 458 24 490 c 0
 24 522 40 542 72 542 c 0
 82 542 90 540 96 540 c 0
EndSplineSet
EndChar
StartChar: u
Encoding: 344 117 88
Width: 560
VWidth: 1000
GlyphClass: 4
Flags: HMW
AnchorPoint: "acute" 276 592 basechar 0
AnchorPoint: "ogonek" 498 32 basechar 0
AnchorPoint: "cedilla" 278 32 basechar 0
LayerCount: 2
Fore
SplineSet
266 114 m 0
 296 148 355 305 372 354 c 0
 398 426 402 474 404 502 c 0
 406 530 406 544 408 546 c 0
 410 548 420 550 436 550 c 0
 477 550 484 515 484 482 c 0
 484 454 480 418 476 374 c 0
 470 320 468 268 468 168 c 0
 468 124 474 86 490 86 c 0
 504 86 518 100 528 100 c 0
 542 100 546 84 546 62 c 0
 546 16 498 2 466 2 c 0
 450 2 436 6 426 16 c 0
 396 40 392 116 386 170 c 1
 332 36 276 -2 216 -2 c 0
 55 -2 46 225 46 340 c 0
 46 394 50 482 62 528 c 0
 66 540 72 540 84 540 c 0
 100 540 134 532 134 522 c 0
 134.222222222 516.888888889 134.320987654 511.481481481 134.320987654 505.843621399 c 0
 134.320987654 460.740740741 128 400.888888889 128 360 c 0
 128 274 133 226 140 192 c 0
 148 154 165 86 214 86 c 0
 230 86 250 96 266 114 c 0
EndSplineSet
EndChar
StartChar: v
Encoding: 345 118 89
Width: 484
VWidth: 1000
GlyphClass: 4
Flags: HMW
AnchorPoint: "acute" 256 620 basechar 0
AnchorPoint: "ogonek" 272 32 basechar 0
AnchorPoint: "cedilla" 260 34 basechar 0
LayerCount: 2
Fore
SplineSet
434 574 m 0
 462 574 466 558 466 530 c 0
 466 498 454 472 442 446 c 0
 384 323 356 221 336 86 c 0
 328 46 302 -18 262 -18 c 0
 234 -18 198 18 166 68 c 0
 126 130 94 200 74 272 c 0
 58 326 46 368 46 480 c 0
 46 544 48 558 84 558 c 0
 104 558 118 548 124 532 c 0
 132 512 132 470 142 374 c 0
 150 272 198 170 252 108 c 1
 270 176 288 264 308 338 c 0
 330 420 356 462 380 532 c 0
 392 560 410 574 434 574 c 0
EndSplineSet
EndChar
StartChar: w
Encoding: 119 119 90
Width: 682
GlyphClass: 4
Flags: MW
HStem: -8 21G<149.5 191.5> -8 102<156 171 156 191.5> -2 93<412 443.5 412 455> 449 101<523.5 540> 530 20G<520 553.5> 534 20G<91 111>
VStem: 47 82<233 370.5 227 398> 566 82<333.5 387.5>
AnchorPoint: "acute" 334 568 basechar 0
AnchorPoint: "ogonek" 490 52 basechar 0
AnchorPoint: "cedilla" 332 26 basechar 0
LayerCount: 2
Fore
SplineSet
91 28 m 0x87
 64 60 47 168 47 298 c 0
 47 498 57 533 69 545 c 0
 74 550 88 554 94 554 c 0
 128 554 141 528 141 519 c 0
 141 498 129 440 129 301 c 0
 129 153 149 94 163 94 c 0
 179 94 210 116 243 188 c 0x47
 262 230 278 286 287 343 c 0
 294 391 305 434 309 441 c 0
 315 451 323 458 335 458 c 0
 370 458 384 438 384 412 c 0
 384 400 368 326 368 283 c 0
 368 169 390 91 434 91 c 0
 453 91 479 112 500 152 c 0
 551 244 566 302 566 365 c 0
 566 410 555 449 525 449 c 0
 522 449 519 449 515 448 c 0
 513 447 511 447 509 447 c 0x33
 490 447 470 469 470 486 c 0
 470 525 498 550 542 550 c 0
 565 550 599 528 621 489 c 0
 637 462 648 426 648 368 c 0
 648 273 621 195 566 101 c 0
 520 21 475 -2 435 -2 c 0x2b
 369 -2 328 59 302 125 c 1
 281 74 222 -8 161 -8 c 0
 138 -8 115 -1 91 28 c 0x87
EndSplineSet
Substitution2: "'sups' +TgowZDBNZYdbVwAA lookup 4 +MLUw1jDGMPww1jDr" uni02B7
Substitution2: "'aalt' +MFkweTBmMG51cE9TW1cweDBuMKIwrzC7MLkA lookup 0 +MLUw1jDGMPww1jDr" uni02B7
EndChar
StartChar: braceleft
Encoding: 350 123 94
Width: 458
VWidth: 1000
GlyphClass: 2
Flags: HMW
LayerCount: 2
Fore
SplineSet
192 332 m 1
 258 291 297 285 297 172 c 0
 297 130 289 105 287 94 c 0
 284 78 268 11 268 -57 c 0
 268 -89 274 -174 323 -174 c 0
 347 -174 349 -154 377 -154 c 0
 391 -154 403 -156 413 -162 c 0
 425.388536501 -172.323780417 433.011066665 -175.720307236 433.011066665 -182.624033823 c 0
 433.011066665 -210.706846171 366.689607856 -258 325 -258 c 0
 283 -258 248 -235 232 -219 c 0
 205 -192 190 -142 190 -80 c 0
 190 -48 192 -8 200 34 c 0
 212 116 217 164 217 176 c 0
 217 188 215 198 209 204 c 0
 199 214 197 222 147 247 c 0
 111 265 75 278 62 284 c 0
 30 299 20 315 20 332 c 0
 20 366 112 394 138 400 c 0
 163 406 181 420 188 432 c 1
 186 454 159 484 146 510 c 0
 136 529 122 577 122 607 c 0
 122 655 146 711 164 738 c 0
 198 789 267 886 332 886 c 0
 371 886 432 834 432 796 c 0
 432 771 429 760 406 760 c 0
 388 760 370 768 352 780 c 0
 347 785 343 787 337 787 c 0
 326 787 283 754 276 746 c 0
 250 714 204 643 204 604 c 0
 204 590 210 568 222 544 c 0
 256 480 276 455 276 435 c 0
 276 391 233 352 192 332 c 1
EndSplineSet
Substitution2: "'case' +WSdlh1tXfUQwf3UoMGuKv2V0MFcwX1tXX2IA lookup 12 +MLUw1jDGMPww1jDr" braceleft.case
EndChar
StartChar: exclamdown
Encoding: 161 161 99
Width: 222
GlyphClass: 2
Flags: HMW
LayerCount: 2
Fore
SplineSet
46 440 m 0
 46 464 75 480 97 480 c 0
 127 480 150 456 150 426 c 0
 150 402 131 378 106 378 c 0
 82 378 66 392 54 416 c 0
 48 426 46 430 46 440 c 0
104 202 m 0
 124 202 138 198 144 188 c 0
 151 176 188 -241 188 -274 c 0
 188 -306 168 -336 136 -336 c 0
 91 -336 80 -279 80 -244 c 0
 80 -186 78 -80 72 24 c 0
 70 76 68 100 68 154 c 0
 68 190 82 202 104 202 c 0
EndSplineSet
EndChar
StartChar: sterling
Encoding: 163 163 101
Width: 696
GlyphClass: 2
Flags: MW
HStem: -26 80<513 553 507 569> 12 64<163 178 163 184> 139 67<196.5 228> 384 78<456 472> 386 72<144 153.5> 828 68<395 426>
VStem: 84 66<92 110 92 111> 190 68<572.5 625 571 633> 242 79
LayerCount: 2
Fore
SplineSet
210 138 m 1x7680
 209 138 207 139 205 139 c 0
 188 139 150 122 150 98 c 0
 150 86 156 76 170 76 c 0
 186 76 210 118 210 138 c 1x7680
398 896 m 0
 463 896 566 854 566 778 c 0
 566 752 562 738 554 738 c 0
 544 738 532 752 508 778 c 0
 476 812 442 828 410 828 c 0
 380 828 352 814 322 784 c 0
 284 746 258 656 258 594 c 0xb7
 258 548 280 488 298 460 c 1
 308 460 422 462 460 462 c 0xb680
 524 462 538 450 538 406 c 0
 538 396 532 390 522 388 c 0xae80
 512 386 488 384 456 384 c 2
 318 382 l 1
 326 308 316 266 296 192 c 1
 296 192 338 178 362 160 c 0
 392 140 418 102 426 96 c 0
 458 64 480 54 534 54 c 0
 572 54 600 58 614 68 c 0
 638 86 652 94 668 94 c 0
 681 94 682 80 682 70 c 0
 682 42 678 22 668 10 c 0
 650 -16 588 -26 550 -26 c 0
 476 -26 390 14 354 54 c 0xb680
 328 84 314 96 274 118 c 1
 270 98 246 42 222 24 c 0
 212 16 196 12 172 12 c 0
 140 12 122 18 112 28 c 0
 102 38 84 58 84 90 c 0
 84 132 112 164 128 178 c 0
 157 204 191 206 228 206 c 1
 240 248 248 328 238 386 c 1
 214 385 200 385 191 385 c 0
 172 385 171 386 136 386 c 0
 90 386 60 388 48 394 c 0
 36 400 30 412 30 428 c 0
 30 442 32 450 38 450 c 0
 54 454 84 456 144 458 c 2
 216 458 l 1
 191 508 190 545 190 600 c 0x6f
 190 666 204 710 216 738 c 0
 238 790 252 816 268 832 c 0
 306 870 334 896 398 896 c 0
EndSplineSet
EndChar
StartChar: dieresis
Encoding: 168 168 104
Width: 422
GlyphClass: 2
Flags: MW
HStem: 888 20G<294 321> 890 20G<38 42>
VStem: 4 132 4 392 10 392
LayerCount: 2
Fore
SplineSet
16 894 m 0x60
 22 902 36 910 40 910 c 0
 44 910 58 910 72 900 c 0
 84 892 96 862 122 842 c 0
 136 832 142 814 142 792 c 0
 142 786 140 782 138 776 c 0
 136 772 130 770 124 770 c 0
 76 770 47 799 20 834 c 0
 4 856 10 884 16 894 c 0x60
304 908 m 0x90
 338 908 344 900 372 864 c 0
 388 844 402 840 402 816 c 0
 402 784 394 772 370 772 c 0
 356 772 320 804 300 824 c 0
 282 844 270 860 270 880 c 0
 270 900 284 908 304 908 c 0x90
EndSplineSet
EndChar
StartChar: logicalnot
Encoding: 172 172 108
Width: 619
GlyphClass: 2
Flags: MW
HStem: 276 74
VStem: 464 89
LayerCount: 2
Fore
SplineSet
112 344 m 0
 200 346 266 353 354 356 c 0
 405 358 461 368 507 368 c 0
 527 368 539 341 546 322 c 0
 555 297 553 211 553 144 c 0
 553 115 557 66 550 56 c 0
 541 44 531 35 518 35 c 0
 497 35 490 57 481 72 c 0
 451 118 467 214 464 271 c 1
 449 275 410 276 391 276 c 0
 333 276 268 273 215 270 c 0
 188 269 126 266 98 266 c 0
 64 266 37 275 37 305 c 0
 37 335 66 343 112 344 c 0
EndSplineSet
EndChar
StartChar: registered
Encoding: 366 174 110
Width: 944
VWidth: 1000
GlyphClass: 2
Flags: HMW
LayerCount: 2
Fore
SplineSet
660 736 m 0
 627 769 610 771 566 774 c 0
 538 774 518 776 502 776 c 0
 494 776 487 775 480 774 c 0
 460 768 408 762 368 746 c 0
 276 708 252 686 202 636 c 0
 190 624 172 610 160 584 c 0
 148 558 126 512 126 448 c 0
 126 320 140 266 146 252 c 0
 180 172 200 106 214 74 c 0
 238 22 272 -20 308 -62 c 0
 338 -94 356 -106 396 -118 c 0
 412 -124 470 -126 482 -126 c 0
 502 -126 524 -120 536 -116 c 1
 538 -98 552 -82 564 -72 c 0
 596 -48 636 -32 656 -20 c 0
 688 2 712 20 724 32 c 0
 795 103 834 182 834 284 c 0
 834 358 830 408 822 438 c 0
 802 535 771 627 700 698 c 0
 690 708 676 720 660 736 c 0
144 692 m 0
 198 746 234 780 314 814 c 0
 346 830 507 856 556 856 c 0
 594 856 628 852 654 842 c 0
 666 836 690 820 722 790 c 0
 754 760 788 710 800 694 c 0
 854 622 870 580 896 496 c 0
 906 470 908 410 908 316 c 0
 908 220 898 150 872 90 c 0
 856 52 844 32 782 -18 c 0
 750 -42 714 -66 668 -96 c 0
 636 -116 600 -126 582 -134 c 1
 584 -140 584 -142 584 -154 c 0
 584 -198 514 -208 482 -208 c 0
 428 -208 378 -196 330 -170 c 0
 283 -148 173 -18 152 26 c 0
 102 122 90 190 62 260 c 0
 52 288 46 346 46 440 c 0
 46 480 48 510 50 522 c 0
 66 591 94 642 144 692 c 0
542 412 m 0
 542 444 542 472 528 508 c 0
 514 544 496 564 476 564 c 0
 468 564 462 562 456 556 c 0
 433 541 383 436 372 406 c 1
 374 386 378 354 380 324 c 1
 416 324 l 2
 452 324 496 320 512 312 c 1
 528 328 542 384 542 412 c 0
268 618 m 0
 268 650 282 664 306 664 c 0
 338 664 344 592 348 540 c 1
 368 584 390 622 434 646 c 0
 444 652 458 652 468 652 c 0
 523 652 569 609 590 560 c 0
 609 525 616 475 616 436 c 0
 616 346 602 296 568 254 c 1
 594 208 646 158 660 154 c 0
 670 152 680 152 688 152 c 0
 711 152 722 151 722 124 c 0
 722 92 696 74 658 74 c 0
 574 74 526 170 494 202 c 1
 468 196 420 190 396 190 c 1
 402 158 406 116 406 72 c 0
 406 40 392 26 348 26 c 0
 316 26 296 96 282 222 c 0
 277.495097568 257.13823897 275.425492647 291.870595021 275.425492647 323.454373735 c 0
 275.425492647 361.980390272 278.504902432 395.821570701 284 420 c 1
 284 420 268 570 268 618 c 0
EndSplineSet
EndChar
StartChar: macron
Encoding: 175 175 111
Width: 396
GlyphClass: 2
Flags: MW
HStem: 702 92<118 125.5 120 155>
VStem: -4 378
LayerCount: 2
Fore
SplineSet
34 804 m 0
 42 804 48 802 56 800 c 0
 64 798 74 794 82 794 c 0
 86 793 90 793 94 793 c 0
 102 793 110 794 118 794 c 2
 222 794 l 2
 242 794 263 796 283 796 c 0
 290 796 297 796 303 795 c 0
 320 795 373 785 374 776 c 0
 378 742 354 725 309 710 c 0
 287 703 213 702 155 702 c 0
 143 702 131 702 120 702 c 0
 105 702 90 700 75 700 c 0
 46 700 -1 717 -4 750 c 0
 -6 766 4 782 14 794 c 0
 20 800 26 804 34 804 c 0
EndSplineSet
EndChar
StartChar: plusminus
Encoding: 177 177 113
Width: 606
GlyphClass: 2
Flags: MW
HStem: 68 98<94 189> 100 88<403 428> 535 89<183 209.5> 566 94<501 522>
VStem: 246 80<522.5 536>
LayerCount: 2
Fore
SplineSet
296 182 m 0x58
 326 188 370 188 430 188 c 0
 476 188 506 186 516 184 c 0
 526 182 538 178 548 168 c 0
 562 156 570 144 570 132 c 0
 570 104 535 90 512 90 c 0
 506 90 500 90 498 92 c 0
 464 98 438 100 418 100 c 0x58
 388 100 346 98 292 88 c 0
 166 72 132 68 100 68 c 0
 88 68 78 68 74 70 c 0
 56 74 46 90 46 118 c 0
 46 130 48 142 52 152 c 0
 60 168 72 178 88 178 c 0
 102 178 118 176 134 170 c 0
 144 168 158 166 170 166 c 0x98
 208 166 220 170 296 182 c 0x58
170 536 m 0x68
 122 538 56 542 56 578 c 0
 56 611 68 636 106 636 c 0
 118 636 128 632 138 630 c 0
 152 626 172 624 194 624 c 0
 197 624 219 626 246 629 c 1x68
 246 672 244 711 242 754 c 0
 240 774 246 788 256 798 c 0
 267 806 277 809 286 809 c 0
 294 809 301 807 306 802 c 0
 316 796 320 782 328 760 c 0
 336 738 330 674 330 650 c 0
 330 646 330 643 330 639 c 1
 364 644 394 648 404 650 c 0
 434 656 468 660 506 660 c 0
 544 660 554 656 554 638 c 0
 554 628 550 620 548 600 c 0
 542 570 538 566 506 566 c 0
 496 566 484 564 474 564 c 0
 446 564 391 552 326 544 c 1x58
 326 501 328 436 342 396 c 0
 344 390 346 388 346 382 c 0
 346 369 340 330 322 330 c 0
 292 330 244 366 244 398 c 0
 245 453 246 499 246 536 c 1
 232 535 217 535 202 535 c 0
 191 535 181 535 170 536 c 0x68
EndSplineSet
EndChar
StartChar: mu
Encoding: 181 181 117
Width: 536
GlyphClass: 2
Flags: MW
HStem: -306 21G<101 108.5> -24 112<173 205> -14 21G<136 136> 522 20G<361 400>
VStem: 46 90<-14 96> 350 82<275 424>
LayerCount: 2
Fore
SplineSet
340 472 m 0xbc
 340 530 334 542 388 542 c 0
 412 542 412 534 420 514 c 0
 428 494 432 454 432 394 c 0
 432 335 438 89 464 52 c 0
 474 40 514 22 514 12 c 0
 514 -2 512 -32 506 -38 c 0
 502 -42 488 -44 468 -44 c 0
 438 -44 432 -34 422 -22 c 0
 392 10 368 46 364 106 c 1
 346 88 348 74 310 42 c 0
 256 -2 228 -24 182 -24 c 0xdc
 164 -24 140 -16 136 -14 c 1
 136 -14 136 -68 138 -100 c 0xbc
 138 -132 142 -160 142 -180 c 0
 142 -244 150 -260 122 -296 c 0
 116 -303 111 -306 106 -306 c 0
 96 -306 87 -297 74 -288 c 0
 56 -274 54 -256 54 -228 c 0
 54 -138 46 -24 46 86 c 0
 46 106 48 168 50 200 c 0
 52 268 54 278 56 344 c 0
 58 418 58 464 66 478 c 0
 74 492 66 500 96 500 c 0
 126 500 122 492 130 472 c 0
 138 452 146 404 144 328 c 0
 138 134 142 88 190 88 c 0
 234 88 254 96 290 140 c 0xdc
 320 172 350 218 350 332 c 0
 350 386 340 450 340 472 c 0xbc
EndSplineSet
EndChar
StartChar: paragraph
Encoding: 182 182 118
Width: 778
GlyphClass: 2
Flags: HMW
LayerCount: 2
Fore
SplineSet
624 916 m 0
 626 926 630 934 634 936 c 0
 635 937 637 937 639 937 c 0
 644 937 651 936 660 936 c 0
 676 936 690 928 690 906 c 2
 692 746 l 2
 692 682 696 598 700 544 c 0
 704 488 702 452 704 404 c 0
 710 266 710 252 712 228 c 0
 722 120 732 114 732 68 c 0
 732 36 722 -10 698 -10 c 0
 672 -10 638 34 638 66 c 0
 638 112 636 162 634 194 c 0
 624 326 620 380 620 518 c 0
 620 628 618 636 618 772 c 0
 618 856 618 860 624 916 c 0
368 804 m 0
 358 804 340 804 316 798 c 0
 198 768 140 714 140 640 c 0
 140 606 158 572 190 538 c 0
 210 518 250 500 310 484 c 0
 372 470 410 462 426 462 c 0
 440 462 448 464 456 468 c 1
 458 500 462 524 462 612 c 0
 462 689.142857143 457.591836735 742.775510204 457.591836735 780.454810496 c 0
 457.591836735 786.734693878 457.714285714 792.571428571 458 798 c 1
 426 800 400 804 368 804 c 0
472 186 m 0
 466 214 464 240 464 272 c 0
 462 338 460 356 458 374 c 1
 442 370 428 370 414 370 c 0
 342 370 200 404 146 446 c 0
 132 456 46 548 46 634 c 0
 46 678 60 732 88 764 c 0
 120 796 140 820 192 844 c 0
 216 854 248 876 276 886 c 0
 308 896 350 902 400 902 c 0
 446 902 450 900 464 894 c 1
 474 908 486 920 496 920 c 0
 525 920 542 833 542 806 c 0
 542 804 542 792 540 764 c 0
 535 698 534 632 534 566 c 2
 534 478 l 1
 546 472 558 454 558 444 c 0
 558 422 540 400 534 398 c 1
 534 388 534 364 536 348 c 0
 546 274 548 228 558 154 c 0
 560 140 566 130 568 116 c 0
 574 80 576 64 576 22 c 0
 576 -10 562 -28 550 -28 c 0
 530 -28 484 0 484 22 c 0
 484 62 484 124 472 186 c 0
EndSplineSet
EndChar
StartChar: periodcentered
Encoding: 375 183 119
Width: 192
VWidth: 1000
GlyphClass: 2
Flags: HMW
LayerCount: 2
Fore
SplineSet
58 280 m 0
 58 306 72 318 102 318 c 0
 132 318 162 304 162 270 c 0
 162 254 156 240 144 224 c 0
 134 208 122 200 112 200 c 0
 94 200 42 221 42 242 c 0
 42 256 58 250 58 280 c 0
EndSplineSet
Substitution2: "'case' +WSdlh1tXfUQwf3UoMGuKv2V0MFcwX1tXX2IA lookup 12 +MLUw1jDGMPww1jDr" periodcentered.case
EndChar
StartChar: questiondown
Encoding: 191 191 127
Width: 504
GlyphClass: 2
Flags: HMW
LayerCount: 2
Fore
SplineSet
206 502 m 4
 206 534 224 552 260 552 c 4
 298 552 320 538 320 500 c 4
 320 474 298 436 278 436 c 4
 262 436 206 464 206 502 c 4
202 258 m 4
 202 282 214 330 238 330 c 4
 262 330 284 294 284 262 c 4
 284 160 262 112 246 78 c 4
 238 64 228 46 212 26 c 4
 158 -34 136 -80 136 -134 c 4
 136 -186 170 -206 220 -206 c 4
 250 -206 274 -200 300 -190 c 4
 354 -170 384 -124 432 -124 c 4
 454 -124 466 -132 466 -142 c 4
 466 -168 438 -198 382 -234 c 4
 370 -244 332 -260 292 -280 c 4
 272 -290 240 -292 200 -292 c 4
 130 -292 106 -274 76 -242 c 4
 58 -222 48 -200 48 -146 c 4
 48 -56 72 -24 114 28 c 4
 126 44 142 64 156 88 c 4
 166 104 172 114 176 118 c 4
 196 140 202 162 202 258 c 4
EndSplineSet
EndChar
StartChar: AE
Encoding: 198 198 134
Width: 1214
GlyphClass: 2
Flags: MW
HStem: 18 90<754 759> 376 84<372 407> 414 78 792 76<886 934>
VStem: 572 84 576 76
LayerCount: 2
Fore
SplineSet
518 800 m 0xd8
 510 800 470 804 464 804 c 0
 458 804 454 802 448 800 c 0
 430 786 360 672 350 646 c 0
 338 596 272 528 272 464 c 1
 282 462 330 460 396 460 c 0
 442 460 466 462 474 466 c 0
 484 470 510 470 532 472 c 0
 537 473 542 473 547 473 c 0
 556 473 565 472 574 472 c 1
 572 506 574 556 572 600 c 0
 570 640 568 686 566 700 c 0
 562 722 530 800 518 800 c 0xd8
130 34 m 0
 92 34 84 62 84 104 c 0
 84 142 98 178 110 216 c 0
 128 270 136 322 158 404 c 0
 176 472 194 482 208 536 c 1
 212 570 224 588 240 624 c 0
 248 642 260 660 270 682 c 0
 302 742 314 772 364 826 c 0
 386 848 396 882 432 892 c 0
 442 896 460 900 482 900 c 0
 510 900 526 896 532 890 c 0
 554 868 731 864 770 864 c 0
 802 866 838 868 934 868 c 0
 1070 868 1106 860 1106 842 c 0
 1106 818 1094 804 1070 800 c 0
 1046 796 1024 794 934 792 c 0
 814 792 720 786 682 784 c 2
 632 780 l 1
 644 714 l 1
 644 680 656 638 656 598 c 0
 658 552 654 494 656 484 c 1xb8
 670 484 714 492 724 492 c 2
 854 492 l 2
 887 492 913 493 932 493 c 0
 956 493 970 492 972 486 c 0
 974 476 978 470 978 468 c 0
 978 446 962 432 930 426 c 0
 898 420 860 416 810 414 c 0
 760 412 738 408 696 402 c 0
 686 400 652 396 652 396 c 1
 652 396 652 364 654 344 c 0
 664 276 668 224 678 160 c 0
 682 116 728 108 780 108 c 0
 898 108 992 136 1002 140 c 0
 1008 142 1038 148 1066 148 c 0
 1104 148 1114 146 1114 118 c 0
 1114 72 1080 62 1028 56 c 0
 1000 54 956 52 890 38 c 0
 828 24 778 18 740 18 c 0
 653 18 609 57 598 144 c 0
 594 176 586 212 578 312 c 0
 576 340 578 368 576 386 c 1xb4
 560 386 530 386 498 382 c 0
 458 378 416 376 398 376 c 0
 346 376 301 379 250 386 c 1
 248 380 240 362 238 352 c 0
 218 272 200 224 192 210 c 0
 188 202 178 166 168 92 c 0
 162 56 156 34 130 34 c 0
EndSplineSet
EndChar
StartChar: Ccedilla
Encoding: 199 199 135
Width: 720
GlyphClass: 2
Flags: MW
HStem: -324 80<324.5 360 324.5 400.5> -8 87<331.5 404.5> 818 94<340 380 328.5 381>
VStem: 41 89<385 421.5> 464 86<-169.5 -157.5> 512 72<769 776>
LayerCount: 2
Fore
SplineSet
56 315 m 0xf8
 50 340 41 342 41 383 c 0
 41 460 79 669 117 733 c 0
 168 811 221 875 278 902 c 0
 295 910 316 912 341 912 c 0
 419 912 537 881 565 836 c 0
 578 818 584 799 584 780 c 0
 584 758 573 727 540 727 c 0
 525 727 512 742 512 756 c 0xf4
 512 796 406 818 356 818 c 0
 324 818 305 811 293 803 c 0
 252 773 219 731 202 699 c 0
 168 636 130 471 130 419 c 0
 130 351 153 292 187 228 c 0
 229 152 246 150 269 127 c 0
 282 114 354 79 388 79 c 0
 421 79 445 98 483 112 c 0
 495 115 502 115 512 121 c 0
 531 131 544 140 559 152 c 0
 584 176 609 191 643 191 c 0
 668 191 675 188 675 172 c 0
 675 155 615 110 588 89 c 0
 558 64 548 58 518 41 c 0
 508 36 483 11 474 9 c 1
 480 -29 497 -42 510 -63 c 0
 540 -115 550 -116 550 -181 c 0
 550 -248 451 -324 350 -324 c 0
 293 -324 231 -293 231 -268 c 0
 231 -251 248 -229 263 -229 c 0
 269 -229 276 -232 288 -236 c 0
 299 -242 314 -244 335 -244 c 0
 385 -244 421 -230 444 -204 c 0
 457 -187 464 -173 464 -166 c 0
 464 -149 444 -109 425 -90 c 0
 409 -75 400 -59 394 -42 c 0
 392 -37 388 -23 390 -6 c 1
 387 -6 371 -8 358 -8 c 0
 305 -8 235 34 185 81 c 0
 157 110 69 260 56 315 c 0xf8
EndSplineSet
EndChar
StartChar: Ugrave
Encoding: 217 217 153
Width: 650
GlyphClass: 2
Flags: MW
HStem: -7 81<317 354 317 363.5> 891 20G<91.5 106 525 538>
VStem: 50 83<568 613 525.5 649.5> 526 78<491 600 491 651>
LayerCount: 2
Fore
SplineSet
155 1151 m 0
 155 1179 179 1191 205 1191 c 0
 227 1191 249 1181 271 1163 c 0
 317 1125 343 1106 359 1095 c 0
 417 1053 431 1039 431 1029 c 0
 431 1001 405 991 380 991 c 0
 364 991 350 997 338 1005 c 0
 326 1013 305 1023 254 1065 c 0
 210 1101 189 1115 178 1122 c 0
 160 1132 155 1145 155 1151 c 0
52 792 m 0
 52 848 56 882 61 893 c 0
 69 904 82 911 101 911 c 0
 111 911 120 907 123 903 c 0
 132 892 135 864 135 820 c 0
 135 744 133 650 133 576 c 0
 133 475 144 320 179 228 c 0
 191 197 204 170 232 141 c 0
 272 99 304 74 330 74 c 0
 378 74 426 115 472 189 c 0
 503 240 512 268 518 330 c 0
 525 406 526 410 526 534 c 0
 526 768 510 812 483 842 c 0
 480 847 474 851 474 859 c 0
 474 870 485 882 496 894 c 0
 505 905 518 911 532 911 c 0
 544 911 581 876 592 798 c 0
 602 699 604 662 604 538 c 0
 604 444 605 402 596 325 c 0
 587 252 581 219 538 142 c 0
 489 55 403 -7 324 -7 c 0
 264 -7 229 28 187 68 c 0
 151 103 125 144 102 200 c 0
 60 297 50 512 50 624 c 0
 50 675 52 742 52 792 c 0
EndSplineSet
EndChar
StartChar: Thorn
Encoding: 222 222 158
Width: 606
GlyphClass: 2
Flags: MW
HStem: 0 21G<118 123.5> 244 82<230 271.5 229.5 310> 619 83<274.5 321> 902 20G<100.5 113>
VStem: 64 81<470.5 513> 66 83<741 754 690 829.5> 462 78<474.5 511>
LayerCount: 2
Fore
SplineSet
380 608 m 0xf6
 362 614 338 619 304 619 c 0
 245 619 183 614 147 605 c 1
 145 586 145 548 145 500 c 0xfa
 145 441 147 351 149 334 c 1
 168 328 200 326 259 326 c 0
 284 326 326 338 340 343 c 0
 373 354 429 398 441 419 c 0
 451 436 462 468 462 481 c 0
 462 541 444 564 429 579 c 0
 424 587 406 598 380 608 c 0xf6
504 614 m 0
 530 580 540 562 540 477 c 0
 540 339 371 244 249 244 c 0
 211 244 184 246 147 248 c 1
 147 248 148 195 148 162 c 0
 148 110 144 50 140 31 c 0
 136 12 128 0 119 0 c 0
 117 0 113 2 106 4 c 0
 79 15 65 128 64 207 c 0
 63 327 63 394 64 513 c 0xfa
 65 570 68 639 68 661 c 0
 68 686 66 688 66 794 c 0
 66 865 69 903 75 908 c 0
 81 918 92 922 109 922 c 0
 117 922 125 920 132 914 c 0
 138 910 164 872 164 857 c 0
 164 855 162 843 156 821 c 0
 151 805 149 783 149 754 c 2
 149 690 l 1xf6
 163 692 247 702 299 702 c 0
 374 702 460 680 504 614 c 0
EndSplineSet
EndChar
StartChar: germandbls
Encoding: 415 223 159
Width: 634
VWidth: 1000
GlyphClass: 2
Flags: HMW
LayerCount: 2
Fore
SplineSet
138 476 m 0
 138 448 149 119 149 58 c 0
 149 14 142 -8 128 -8 c 0
 96 -8 83 20 75 66 c 0
 68 107 64 259 62 381 c 0
 59.527864045 479.8854382 57.8196601125 505.815368251 57.8196601125 531.970863179 c 0
 57.8196601125 548.135848036 58.472135955 564.38699101 60 598 c 0
 62 655 83 727 126 816 c 0
 148 861 200 911 254 911 c 0
 332 911 404 847 436 788 c 0
 448 771 459 731 459 676 c 0
 459 609 436 522 383 478 c 1
 396 474 417 459 453 434 c 0
 520 389 493 411 535 370 c 0
 565 343 588 259 588 189 c 0
 588 124 576 63 535 12 c 0
 525 1 489 -33 438 -33 c 0
 370 -33 326 -3 288 33 c 0
 267 52 258 71 258 88 c 0
 258 109 271 121 297 121 c 0
 303 121 318 111 347 90 c 0
 372 71 396 58 417 50 c 0
 427 47 434 45 440 45 c 0
 448 45 459 52 474 68 c 0
 493 88 510 147 510 172 c 0
 510 259 465 324 398 377 c 1
 372 403 289 417 250 417 c 0
 242 417 237 417 233 419 c 0
 225 423 221 448 221 451 c 0
 221 467 246 491 261 495 c 0
 282 501 324 524 347 563 c 0
 373 611 379 643 379 696 c 0
 379 712 358 759 334 786 c 0
 316 805 277 829 250 829 c 0
 212 829 172 729 164 693 c 0
 163 683 159 662 149 626 c 0
 142 600 138 550 138 476 c 0
EndSplineSet
EndChar
StartChar: aring
Encoding: 229 229 165
Width: 526
GlyphClass: 2
Flags: HMW
AnchorPoint: "acute" 248 839 basechar 0
LayerCount: 2
Fore
SplineSet
364 122 m 0
 348 140 291 173 249 173 c 0
 235 173 220 171 206 165 c 0
 199 164 186 162 179 158 c 0
 170 155 159 147 152 135 c 0
 148.602752641 128.884954754 146.590460036 117.691742077 146.590460036 106.125395848 c 0
 146.590460036 100.668627468 147.038348415 95.1288084517 148 90 c 0
 154 66 163 56 183 56 c 0
 244 56 316 84 372 106 c 1
 368 117 366 119 364 122 c 0
195 626 m 0
 198 599 214 590 239 590 c 0
 245 590 250 590 255 594 c 0
 280 614 282 608 307 632 c 0
 323 646 334 664 334 678 c 0
 334 714 277 747 246 747 c 0
 240 747 226 743 219 729 c 0
 202 702 188 684 188 660 c 0
 188 648 193 632 195 626 c 0
229 822 m 0
 265 822 348 794 372 770 c 0
 393 749 418 705 418 675 c 0
 418 659 411 644 399 632 c 0
 386 619 375 603 366 592 c 0
 357 581 343 569 323 556 c 1
 337 549 350 542 364 525 c 0
 391 495 386 500 411 468 c 0
 422 452 440 381 442 281 c 0
 444 182 451 126 454 115 c 0
 458 102 462 84 462 75 c 0
 462 61 462 34 456 27 c 0
 453 23 440 14 411 14 c 0
 402 14 400 20 395 27 c 0
 393 29 391 32 390 38 c 1
 372 17 312 -6 285 -13 c 0
 229 -27 192 -34 170 -34 c 0
 154 -34 136 -29 114 -20 c 0
 98 -11 85 -4 78 3 c 0
 71 11 67 27 62 43 c 0
 57.4020202536 54.8233764909 54.9613280325 72.2557005477 54.9613280325 88.2118547784 c 0
 54.9613280325 96.5474734076 55.627416998 104.48023074 57 111 c 0
 66 158 85 201 130 230 c 0
 154 245 174 252 192 252 c 0
 203 252 217 253 230 253 c 0
 236 253 242 253 246 252 c 0
 291 246 318 241 327 237 c 0
 336 234 354 227 364 221 c 1
 361 236 361 243 361 272 c 0
 361 277 357 284 357 293 c 0
 354 340 350 363 348 387 c 0
 346 407 330 435 316 457 c 0
 301 476 292 477 271 477 c 0
 222 470 179 448 145 410 c 0
 118 383 100 371 87 371 c 0
 71 371 64 387 64 419 c 0
 64 432 71 446 87 466 c 0
 103 486 120 493 130 502 c 0
 139 509 156 520 170 531 c 1
 163 533 152 545 147 551 c 0
 130 569 109 596 109 662 c 0
 109 705 113 734 139 768 c 0
 163 795 201 822 229 822 c 0
EndSplineSet
EndChar
StartChar: eth
Encoding: 240 240 176
Width: 612
GlyphClass: 2
Flags: MW
HStem: 8 90<263 290> 456 90<325 347> 812 96<212 233.5>
VStem: 91 94 96 94<264 287> 136 103 457 92 462 92
LayerCount: 2
Fore
SplineSet
190 276 m 0xe9
 190 252 188 204 200 170 c 0
 216 126 248 98 278 98 c 0xf2
 341 98 420 223 436 276 c 0
 452 330 462 418 462 440 c 0
 462 548 446 667 371 751 c 1
 345 729 323 709 298 696 c 0
 262 678 244 660 244 650 c 0
 244 632 212 608 194 608 c 0
 180 608 168 614 152 626 c 0
 136 638 138 662 150 680 c 0xe6
 182 726 222 746 258 774 c 0
 265 780 279 789 297 801 c 1
 273 809 247 812 220 812 c 0
 190 812 162 808 138 800 c 0
 116 792 96 756 76 756 c 0
 54 756 34 758 28 784 c 0
 24 804 20 832 42 848 c 0
 70 868 90 878 108 886 c 0
 124 892 188 908 236 908 c 0
 279 908 338 881 376 860 c 1
 413 889 439 910 462 930 c 0
 490 954 520 972 552 972 c 0
 578 972 600 954 600 932 c 0
 600 920 588 908 566 896 c 0
 513 869 482 840 440 806 c 1
 470 773 493 736 498 716 c 0
 510 666 542 616 550 556 c 1
 558 430 558 368 518 248 c 0
 494 180 467 134 422 80 c 0
 398 50 406 58 360 30 c 0
 338 12 304 8 276 8 c 0
 248 8 204 20 192 32 c 0
 174 48 130 92 122 112 c 0
 110 150 96 188 96 252 c 0
 96 322 104 352 112 368 c 0
 146 440 152 444 214 494 c 0
 264 534 288 546 348 546 c 0
 376 546 414 526 422 514 c 0
 428 506 440 484 440 470 c 0
 440 454 426 442 406 442 c 0
 394 442 392 444 376 450 c 0
 368 454 350 456 344 456 c 0
 306 456 246 414 228 388 c 0
 210 362 190 316 190 276 c 0xe9
EndSplineSet
EndChar
StartChar: divide
Encoding: 247 247 183
Width: 626
GlyphClass: 2
Flags: MW
HStem: -10 21G<308 338> -10 118<318 338> 254 106<541 551> 470 120<282 294.5>
VStem: 242 112 264 124
LayerCount: 2
Fore
SplineSet
256 584 m 0xb8
 266 588 276 590 288 590 c 0
 328 590 350 570 354 528 c 0
 356 514 354 504 350 500 c 0
 335 485 305 470 284 470 c 0
 270 470 260 478 254 492 c 0
 246 508 242 526 242 544 c 0
 242 566 246 578 256 584 c 0xb8
492 348 m 0
 502 350 526 360 556 360 c 0
 598 360 618 356 618 346 c 0
 618 304 600 276 592 272 c 0
 580 266 562 254 540 254 c 0
 520 254 498 248 474 240 c 0
 456 234 438 230 404 224 c 0
 382 220 292 208 136 202 c 1
 130 202 l 2
 85 202 18 223 18 278 c 0
 18 292 30 302 50 306 c 0
 70 310 122 312 208 314 c 0
 396 320 464 340 492 348 c 0
292 102 m 0x74
 302 106 312 108 324 108 c 0
 354 108 374 98 384 78 c 0
 390 64 390 52 380 42 c 0
 356 18 360 -10 316 -10 c 0
 300 -10 264 18 264 40 c 0
 264 56 275 96 292 102 c 0x74
EndSplineSet
EndChar
StartChar: Aogonek
Encoding: 260 260 196
Width: 838
GlyphClass: 2
Flags: MW
HStem: -294 75<711.5 730 711 741.5> 265 76 823 99<436.5 448>
VStem: 554 91<-122 -99 -122 -88.5>
LayerCount: 2
Fore
SplineSet
601 355 m 1
 597 367 593 379 590 392 c 0
 574 452 552 502 533 559 c 0
 515 614 503 647 487 705 c 0
 480 730 453 823 443 823 c 0
 430 823 375 738 362 715 c 0
 354 704 346 693 339 681 c 0
 265 537 230 385 183 200 c 0
 175 163 171 126 164 88 c 0
 160 67 157 46 153 25 c 0
 150 -6 125 -33 94 -39 c 0
 88 -39 82 -36 77 -34 c 0
 71 -32 63 -32 60 -28 c 0
 54 -22 50 -11 50 -3 c 0
 50 2 54 6 56 12 c 0
 58 20 60 27 62 35 c 0
 71 84 79 133 88 179 c 0
 121 377 222 665 331 825 c 0
 360 867 383 922 451 922 c 0
 515 922 521 855 544 802 c 0
 550 787 556 770 561 755 c 0
 569 730 576 705 584 681 c 0
 596 645 607 611 618 574 c 0
 638 506 657 446 679 381 c 0
 681 373 683 366 686 359 c 1
 695 361 727 363 735 363 c 0
 742 363 748 362 753 358 c 0
 765 350 772 318 768 305 c 0
 765 291 747 288 734 284 c 0
 729 282 721 280 711 278 c 1
 728 215 757 125 766 101 c 0
 769 94 778 88 780 80 c 0
 812 6 720 7 685 -28 c 0
 662 -51 645 -83 645 -115 c 0
 645 -129 645 -142 651 -153 c 0
 663 -179 695 -219 727 -219 c 0
 733 -219 739 -218 746 -216 c 0
 753 -214 768 -201 782 -201 c 0
 793 -201 814 -211 814 -231 c 0
 814 -266 762 -294 721 -294 c 0
 702 -294 670 -294 652 -285 c 0
 632 -272 609 -258 595 -241 c 0
 572 -209 554 -171 554 -114 c 0
 554 -63 575 -17 603 12 c 0
 624 34 658 65 687 77 c 1
 665 141 645 204 626 269 c 1
 593 266 560 265 535 265 c 0
 449 265 362 261 276 261 c 0
 265 261 253 257 243 257 c 0
 237 257 231 259 227 263 c 0
 215 274 215 295 223 308 c 0
 233 324 246 341 286 344 c 0
 289 344 292 344 296 344 c 0
 311 344 328 341 345 341 c 0
 431 341 516 346 601 355 c 1
EndSplineSet
EndChar
StartChar: aogonek
Encoding: 261 261 197
Width: 528
GlyphClass: 2
Flags: MW
HStem: -314 82<483.5 514 483.5 519> -73 79<191.5 211 191.5 251> -22 21G<457.5 467> -15 21G -10 21G 210 84<306.5 320.5> 461 87<278 312.5>
VStem: 39 83 45 83 326 78 401 93
LayerCount: 2
Fore
SplineSet
401 109 m 1xc6a0
 399 125 398 140 396 154 c 0
 395 162 394 173 392 185 c 0
 391 185 391 186 390 186 c 0
 362 200 337 210 304 210 c 0
 266 210 214 194 184 172 c 0
 160 154 132 132 128 102 c 0
 124 74 138 38 160 20 c 0
 172 10 185 6 198 6 c 0
 224 6 252 21 272 30 c 0
 296 40 318 54 340 66 c 0
 362 78 380 104 401 109 c 1xc6a0
437 -15 m 1xbf40
 436 -18 435 -21 434 -24 c 0
 426 -57 410 -87 410 -124 c 0
 410 -183 453 -232 514 -232 c 0
 525 -230 537 -222 549 -222 c 0
 550 -222 551 -222 552 -222 c 0
 579 -227 591 -271 568 -294 c 0
 554 -308 531 -314 507 -314 c 0
 440 -314 368 -279 346 -212 c 0
 340 -193 332 -165 332 -144 c 0
 332 -93 339 -60 358 -10 c 1xbf40
 310 -51 282 -73 220 -73 c 0xc740
 141 -73 98 -43 62 28 c 0
 50 53 39 81 48 118 c 0
 60 174 100 205 138 236 c 0
 176 266 218 285 278 292 c 0
 289 294 301 294 312 294 c 0
 336 294 360 290 379 280 c 1
 374 316 368 354 363 385 c 0
 355 427 338 461 287 461 c 0
 263 461 241 457 221 447 c 0
 189 431 181 375 145 375 c 0
 131 375 105 387 105 415 c 0
 105 439 125 461 137 477 c 0
 157 502 183 530 219 537 c 0
 244 544 267 548 289 548 c 0
 346 548 391 525 413 481 c 0
 445 423 459 328 467 247 c 0
 476 177 474 145 486 82 c 0
 489 58 501 19 490 -4 c 0
 483 -16 473 -22 461 -22 c 0
 454 -22 446 -19 437 -15 c 1xbf40
EndSplineSet
EndChar
StartChar: dcroat
Encoding: 273 273 209
Width: 600
GlyphClass: 2
Flags: HMW
LayerCount: 2
Fore
SplineSet
400 607 m 1
 397.83772234 566.637483677 396.194938533 526.274967354 396.194938533 485.912451031 c 0
 396.194938533 470.274967354 396.44151844 454.637483677 397 439 c 1
 420 427 470 390 470 362 c 0
 470 348 458 332 444 328 c 0
 442 327 439 327 437 327 c 0
 428 327 419 331 410 337 c 1
 414 319 418 302 422 284 c 0
 434 234 440 190 458 146 c 0
 467 119 479 99 490 76 c 0
 498 62 508 52 512 38 c 0
 512.894427191 32.633436854 513.788854382 26.466873708 513.788854382 20.5736231912 c 0
 513.788854382 13.289164944 512.422291236 6.422291236 508 2 c 0
 499 -8 484 -13 469 -13 c 0
 460 -13 451 -11 444 -8 c 0
 423 -1 395 68 388 88 c 2
 370 142 l 2
 362 169 354 200 348 227 c 1
 323 145 270 -8 162 -8 c 0
 152 -8 142 -6 132 -2 c 0
 72 16 56 106 50 170 c 1
 50 295 134 476 278 476 c 0
 286 476 295 475 303 474 c 1
 303 496 302 518 302 540 c 0
 302 565 302 584 302 601 c 1
 291 600 279 600 268 600 c 0
 242 600 218 600 192 602 c 0
 188 603 184 603 179 603 c 0
 160 603 138 611 138 634 c 0
 141 663 181 678 206 678 c 0
 214 678 221 678 229 678 c 0
 233 678 236 678 240 678 c 0
 261 681 282 683 303 683 c 1
 304 692 304 701 305 712 c 0
 310 778 306 839 337 880 c 0
 345 888 356 906 371 906 c 0
 376 906 381 904 387 898 c 0
 408.428571429 882.285714286 411.489795918 852.285714286 411.489795918 820.390670554 c 0
 411.489795918 807.632653061 411 794.571428571 411 782 c 0
 411 724 408 718 405 685 c 1
 414 686 423 686 432 686 c 0
 465 686 495 684 522 676 c 0
 539.040717144 672.412480601 560.907795076 668.824961203 560.907795076 650.808556009 c 0
 560.907795076 648.737091907 560.618720902 646.474883608 560 644 c 0
 558 632 548 624 538 618 c 0
 532 615 525 614 517 614 c 0
 510 614 503 614 496 614 c 0
 493 614 491 614 488 614 c 0
 458 612 429 609 400 607 c 1
302 382 m 1
 293 383 285 384 277 384 c 0
 257 384 238 379 222 366 c 0
 173 325 136 266 136 182 c 0
 136 149 137 104 158 88 c 0
 163 85 168 83 173 83 c 0
 199 83 222 126 232 142 c 0
 244 160 248 184 256 204 c 0
 273 255 292 305 300 364 c 0
 301 370 301 376 302 382 c 1
EndSplineSet
Validated: 524289
EndChar
StartChar: Eogonek
Encoding: 280 280 216
Width: 758
GlyphClass: 2
Flags: MW
HStem: -303 87<732 748.5 732 749> 51 97 389 95 786 100<297 335.5 291.5 346.5>
VStem: 127 91<140.5 272.5> 590 84
LayerCount: 2
Fore
SplineSet
122 487 m 1
 125 495 125 628 125 646 c 0
 125 697 123 753 123 802 c 0
 123 826 123 870 140 889 c 0
 145 896 155 897 164 897 c 0
 168 897 172 897 176 897 c 0
 191 897 204 891 220 889 c 0
 249 887 277 886 306 886 c 0
 365 886 425 889 484 889 c 0
 494 889 503 889 512 889 c 0
 531 889 549 892 567 892 c 0
 594 892 630 882 636 851 c 0
 638 840 624 828 613 823 c 0
 558 789 378 786 315 786 c 0
 279 786 242 790 218 794 c 1
 216 766 220 724 220 686 c 0
 220 633 216 590 216 539 c 0
 216 525 216 511 216 497 c 1
 253 503 291 510 330 513 c 0
 347 515 366 515 383 517 c 0
 424 520 465 530 510 530 c 0
 527 530 556 522 569 520 c 0
 581 520 598 509 600 500 c 0
 604 471 526 447 499 443 c 0
 476 437 451 433 429 429 c 0
 394 424 360 418 326 412 c 0
 288 405 252 401 214 398 c 1
 214 383 214 368 214 353 c 0
 214 288 218 223 218 156 c 0
 218 125 218 80 220 64 c 1
 347 76 552 148 636 148 c 0
 638 148 639 148 641 148 c 0
 659 147 679 148 693 137 c 0
 704 127 712 110 712 95 c 0
 712 78 700 63 697 47 c 0
 682 -6 668 -61 674 -124 c 0
 676 -148 676 -177 691 -196 c 0
 701 -211 721 -216 743 -216 c 0
 754 -216 767 -214 778 -213 c 0
 794 -210 811 -200 828 -200 c 0
 835 -200 843 -200 849 -205 c 0
 858 -215 866 -240 862 -251 c 0
 849 -284 767 -303 731 -303 c 0
 700 -303 670 -295 649 -281 c 0
 604 -249 583 -177 590 -99 c 0
 590 -64 599 -33 602 0 c 0
 603 19 619 34 619 51 c 1
 579 47 456 15 356 -8 c 0
 312 -18 269 -29 218 -33 c 0
 188 -33 153 -23 136 4 c 0
 126 17 121 45 121 66 c 0
 121 127 127 175 127 245 c 0
 127 300 124 346 123 392 c 1
 121 391 119 391 117 391 c 0
 105 390 93 389 81 389 c 0
 53 389 26 394 18 418 c 0
 11 456 39 476 62 481 c 0
 82 484 102 485 122 487 c 1
EndSplineSet
EndChar
StartChar: eogonek
Encoding: 281 281 217
Width: 518
GlyphClass: 2
Flags: MW
HStem: -189 81<525 551 517 559.5> -44 85<222 265.5> -5 21G 482 87<300.5 344>
VStem: 36 83<180 216 180 271> 376 89<419 443.5 400.5 445.5> 385 74
LayerCount: 2
Fore
SplineSet
125 461 m 0xda
 174 515 252 569 328 569 c 0
 378 569 425 550 448 513 c 0xba
 459 495 465 454 465 433 c 0
 465 368 421 341 391 321 c 0
 309 267 237 232 119 216 c 1
 119 144 157 41 247 41 c 0xdc
 298 41 363 75 399 109 c 0
 410 121 427 127 442 127 c 0
 460 127 463 64 463 45 c 0
 463 32 459 18 459 5 c 0
 459 -59 489 -108 545 -108 c 0
 557 -108 570 -106 585 -101 c 0
 596 -98 602 -82 613 -81 c 0
 615 -81 617 -80 619 -80 c 0
 641 -80 647 -111 638 -134 c 0
 622 -172 582 -189 537 -189 c 0
 513 -189 487 -184 463 -174 c 0
 437 -162 398 -110 389 -81 c 0
 381 -56 383 -29 385 -5 c 1xba
 362 -24 282 -44 249 -44 c 0
 195 -44 146 -19 114 7 c 0
 63 47 36 122 36 208 c 0
 36 334 76 409 125 461 c 0xda
332 482 m 0
 269 482 189 409 155 357 c 0
 146 342 136 321 134 306 c 1
 180 310 219 325 256 340 c 0
 279 349 376 405 376 433 c 0xbc
 376 458 356 482 332 482 c 0
EndSplineSet
EndChar
StartChar: Ecaron
Encoding: 282 282 218
Width: 682
GlyphClass: 2
Flags: MW
HStem: -3 82<193.5 288> 407 79<304 344.5 298 370> 796 93 889 20G
VStem: 99 78
LayerCount: 2
Fore
SplineSet
316 952 m 0xd8
 280 952 267 972 243 1004 c 0
 227 1025 186 1080 174 1098 c 0
 157 1124 146 1140 146 1152 c 0
 146 1180 160 1196 188 1196 c 0
 208 1196 223 1175 239 1151 c 0
 254 1128 274 1099 291 1078 c 0
 303 1063 314 1051 318 1045 c 1
 342 1074 359 1094 391 1135 c 0
 423 1177 436 1198 460 1198 c 0
 485 1198 492 1178 492 1156 c 0
 492 1120 466 1098 452 1080 c 0
 420 1038 424 1046 372 982 c 0
 357 963 352 952 316 952 c 0xd8
177 250 m 0
 177 186 179 137 200 103 c 0
 214 80 231 79 269 79 c 0
 275 79 281 79 288 79 c 0
 330 79 360 83 373 87 c 0
 448 111 531 123 610 123 c 0
 622 123 629 122 629 110 c 0
 629 75 577 49 549 43 c 0
 533 40 513 39 499 35 c 0
 411 14 309 -3 220 -3 c 0
 167 -3 113 49 101 113 c 0
 92 161 99 296 99 442 c 0
 99 519 92 718 83 792 c 0
 81 792 79 792 78 792 c 0
 65 792 51 793 42 804 c 0
 33 817 31 829 31 838 c 0
 31 848 44 860 58 865 c 0
 70 871 75 877 82 881 c 1
 83 881 l 1
 111 887 129 889 224 889 c 0xe8
 360 889 456 891 491 901 c 0
 500 903 508 909 518 909 c 0
 532 909 551 907 575 901 c 0
 585 899 589 896 589 882 c 0
 589 852 579 841 539 828 c 0xd8
 486 812 358 806 298 802 c 0
 260 800 232 798 171 796 c 1
 173 767 177 741 177 710 c 2xe8
 177 604 l 2
 177 568 179 529 179 495 c 1
 236 490 275 486 321 486 c 0
 368 486 422 490 511 501 c 0
 528 503 535 504 544 505 c 0
 554 505 569 486 569 468 c 0
 569 456 558 443 531 437 c 0
 484 432 410 407 330 407 c 0
 278 407 222 408 179 412 c 1
 179 368 177 306 177 250 c 0
EndSplineSet
EndChar
StartChar: ecaron
Encoding: 283 283 219
Width: 509
GlyphClass: 2
Flags: MW
HStem: -18 80<268 312 268 320> 468 92<246 269 226 279>
VStem: 51 93<312 326.5>
LayerCount: 2
Fore
SplineSet
284 702 m 0
 248 702 235 722 211 754 c 0
 195 775 154 830 142 848 c 0
 125 874 114 890 114 902 c 0
 114 930 128 946 156 946 c 0
 176 946 191 925 207 901 c 0
 222 878 242 849 259 828 c 0
 271 813 282 801 286 795 c 1
 310 824 327 844 359 885 c 0
 391 927 404 948 428 948 c 0
 453 948 460 928 460 906 c 0
 460 870 434 848 420 830 c 0
 388 788 392 796 340 732 c 0
 325 713 320 702 284 702 c 0
144 312 m 1
 216 327 314 353 376 388 c 1
 345 423 304 468 254 468 c 0
 238 468 222 462 210 452 c 0
 180 432 144 358 144 312 c 1
164 533 m 0
 182 548 212 560 240 560 c 0
 298 560 360 524 404 484 c 0
 442 448 468 422 468 380 c 0
 468 356 434 330 404 312 c 0
 390 302 336 276 312 266 c 0
 258 248 198 228 146 212 c 1
 150 160 168 114 192 90 c 0
 208 74 238 62 298 62 c 0
 326 62 364 86 380 100 c 0
 390 110 426 126 446 126 c 0
 462 126 480 112 480 98 c 0
 480 76 428 44 414 32 c 0
 372 -4 346 -18 294 -18 c 0
 208 -18 161 -11 130 22 c 0
 72 84 51 146 51 250 c 0
 51 403 88 469 164 533 c 0
EndSplineSet
EndChar
StartChar: uni0122
Encoding: 290 290 226
Width: 728
GlyphClass: 2
Flags: MW
HStem: -23 95<229 235.5> 832 88<350.5 417>
VStem: 50 90<237.5 401.5> 360 92 588 80<247.5 300 247.5 302 286 300 247.5 302>
LayerCount: 2
Fore
SplineSet
402 -50 m 0
 437 -66 452 -129 452 -164 c 0
 452 -182 450 -198 446 -216 c 0
 437 -247 426 -274 410 -302 c 0
 392 -338 329 -420 292 -420 c 0
 284 -420 274 -420 270 -412 c 0
 254 -378 276 -354 304 -306 c 0
 316 -284 330 -264 340 -242 c 0
 348 -222 360 -202 362 -182 c 0
 364 -168 360 -154 358 -140 c 0
 356 -122 346 -104 350 -86 c 0
 354 -72 362 -58 374 -52 c 0
 379 -50 385 -48 392 -48 c 0
 395 -48 399 -48 402 -50 c 0
668 286 m 0
 668 209 680 134 680 56 c 0
 680 48 684 38 678 32 c 0
 670 21 654 10 640 10 c 0
 637 10 633 10 630 12 c 0
 600 26 592 64 588 176 c 0
 586 224 588 270 588 302 c 1
 543 240 506 170 456 110 c 0
 405 48 351 -15 248 -22 c 0
 243 -22 238 -23 233 -23 c 0
 146 -23 98 52 72 116 c 0
 57 156 50 213 50 262 c 0
 50 314 51 375 58 422 c 0
 80 541 108 658 158 748 c 0
 174 774 188 804 208 826 c 0
 249 874 309 920 392 920 c 0
 454 920 501 891 538 860 c 0
 556 846 574 830 584 810 c 0
 596 788 612 762 604 740 c 0
 600 728 584 716 572 716 c 0
 550 716 536 744 520 762 c 0
 494 795 444 832 390 832 c 0
 296 832 244 719 210 646 c 0
 174 562 140 459 140 344 c 1
 136 289 139 253 144 206 c 0
 148 164 163 124 180 106 c 0
 195 89 218 72 240 72 c 0
 291 72 345 133 376 170 c 0
 430 235 452 264 502 336 c 0
 532 379 553 424 582 462 c 0
 594 478 602 506 622 508 c 0
 623 508 624 508 624 508 c 2
 639 508 650 491 658 478 c 0
 676 444 668 404 670 366 c 0
 672 338 668 314 668 286 c 0
EndSplineSet
EndChar
StartChar: Hbar
Encoding: 294 294 230
Width: 772
GlyphClass: 2
Flags: HMW
LayerCount: 2
Fore
SplineSet
513 830 m 0
 513 833.857142857 512.862244898 839.275510204 512.862244898 845.408892128 c 0
 512.862244898 867.897959184 514.714285714 900 532 900 c 0
 562 900 593 870 604 816 c 0
 609 794 612 782 616 759 c 0
 619 724 619 700 623 670 c 1
 630 670 640 670 652 670 c 0
 683 670 723 669 733 661 c 0
 744.580402929 653.665744812 749.306512889 641.861298557 749.306512889 629.440398035 c 0
 749.306512889 609.683919414 737.349664226 588.367838828 722 581 c 0
 717 578 712 577 707 577 c 0
 699 577 690 579 682 579 c 0
 666 580 646 581 628 581 c 1
 631 532 635 483 640 434 c 0
 650 344 673 168 675 155 c 0
 677.236043949 140.465714334 682.284527451 117.181616724 682.284527451 95.6289379096 c 0
 682.284527451 78.6265984685 679.142747296 62.7017582829 669 53 c 0
 661 48 653 46 646 46 c 0
 618 46 601 78 591 102 c 0
 583 121 585 142 583 163 c 0
 575 234 570 309 562 380 c 1
 544 374 521 372 504 366 c 0
 490 362 479 357 466 353 c 0
 435 344 400 336 371 332 c 0
 313 323 260 320 203 309 c 0
 200 308 196 307 192 307 c 1
 192 301 192 296 192 290 c 0
 192 259 190 228 190 199 c 0
 190 168 192 138 194 108 c 0
 195.584676372 83.4375162338 205.330750157 59.5028322686 205.330750157 35.2010885933 c 0
 205.330750157 28.8319090386 204.661294512 22.4375162338 203 16 c 0
 200 1 190 -22 175 -24 c 0
 174.541561639 -24.0241283348 174.085451985 -24.0360309622 173.631685083 -24.0360309622 c 0
 155.27906084 -24.0360309622 140.758716652 -4.56568997412 131 13 c 0
 105 60 112 121 108 174 c 0
 104.733333333 219.266666667 103.862222222 264.533333333 103.862222222 309.8 c 0
 103.862222222 361.533333333 105 413.266666667 105 465 c 2
 105 518 l 2
 105 526 105 535 105 544 c 1
 86 547 65 553 53 562 c 0
 41.1746758558 569.39082759 19.5169718674 587.160278349 19.5169718674 606.022814737 c 0
 19.5169718674 612.681826724 22.2161517344 619.477068975 29 626 c 0
 34 632 42 633 51 633 c 0
 57 633 64 632 70 632 c 0
 82 632 94 632 106 632 c 1
 105 643 103 655 103 666 c 2
 103 704 l 2
 103 750 95 796 95 843 c 0
 95 855.486486486 91.1110299489 870.447772096 91.1110299489 883.88977948 c 0
 91.1110299489 893.054784514 92.9189189189 901.513513514 99 908 c 1
 126 908 158 905 175 881 c 0
 194 852 188 813 190 778 c 0
 190.792330317 766.379155352 191.096381599 754.20027752 191.096381599 741.68443981 c 0
 191.096381599 706.811565604 188.735889894 669.322714929 188 634 c 1
 208 634 228 636 249 638 c 0
 326 644 394 655 475 661 c 0
 495 662 514 663 534 664 c 1
 522 781 513 814 513 830 c 0
554 465 m 1
 550 501 545 536 542 573 c 0
 541 575 541 576 541 578 c 1
 517 576 494 573 464 571 c 0
 410 568 356 562 302 556 c 0
 257 551 225 546 187 545 c 1
 186 500 184 458 184 412 c 0
 184 407 184 403 185 399 c 1
 192 400 199 401 205 402 c 0
 249 407 291 410 340 417 c 0
 397 426 444 438 496 452 c 0
 513 456 535 463 554 465 c 1
EndSplineSet
Validated: 524289
EndChar
StartChar: hbar
Encoding: 295 295 231
Width: 642
GlyphClass: 2
Flags: MW
HStem: -19 21G<539 548.5> -9 21G<196 206> 369 102<424.5 429> 535 82<91 100> 543 84<318.5 327.5> 899 20G<159 169.5>
VStem: 114 88 118 87 129 87
LayerCount: 2
Fore
SplineSet
319 543 m 0x6e
 290 543 264 544 235 544 c 0
 228 544 221 544 213 544 c 1x6e
 213 503 l 2
 211 431 215 315 216 264 c 1
 264 346 308 420 376 458 c 0
 393 467 410 471 425 471 c 0
 493 471 540 393 549 340 c 0
 561 271 567 187 572 116 c 0
 576 76 602 28 577 -4 c 0
 569 -13 555 -19 542 -19 c 0
 536 -19 530 -18 526 -15 c 0xad
 490 6 482 78 477 131 c 0
 471 197 486 310 443 363 c 0
 440 367 432 369 426 369 c 0
 423 369 420 369 418 368 c 0
 387 359 355 310 334 285 c 0
 286 225 253 123 232 42 c 0
 228 26 234 4 220 -4 c 0
 215 -7 209 -9 203 -9 c 0
 189 -9 174 -2 165 6 c 0
 137 30 139 76 133 114 c 0
 129 135 131 158 129 178 c 0
 127 224 123 272 123 317 c 0
 121 376 125 435 125 494 c 0
 125 508 126 522 126 537 c 1
 116 536 105 535 95 535 c 0x76
 67 535 42 541 25 560 c 0
 3 585 16 598 40 608 c 0
 55 616 73 617 91 617 c 0
 98 617 105 617 112 617 c 0
 117 617 122 617 127 617 c 1
 129 653 129 688 131 724 c 0
 133 767 127 811 135 853 c 0
 139 876 137 914 159 919 c 1
 180 919 192 902 201 885 c 0x75
 220 855 216 823 216 786 c 0
 216 735 213 677 213 624 c 1
 254 626 297 627 340 627 c 0
 382 627 422 625 463 623 c 0
 489 623 525 623 534 602 c 0
 541 583 528 566 513 553 c 0
 501 541 482 545 467 543 c 0
 451 541 435 541 418 541 c 0
 401 541 385 541 368 541 c 0
 351 541 336 543 319 543 c 0x6e
EndSplineSet
EndChar
StartChar: itilde
Encoding: 297 297 233
Width: 252
GlyphClass: 2
Flags: MW
HStem: -3 21G<132.5 169.5> 527 20G<103.5 130.5> 672 83<194 222 194 236> 723 94<43 68.5>
VStem: 93 82
LayerCount: 2
Fore
SplineSet
5 809 m 0xd8
 17 816 31 817 47 817 c 0
 106 817 178 755 210 755 c 0
 234 755 256 766 274 780 c 0
 292 794 308 808 326 808 c 0
 338 808 358 799 358 777 c 0xe8
 358 708 265 672 207 672 c 0
 133 672 88 723 49 723 c 0
 37 723 22 712 12 702 c 0
 -13 677 -56 631 -87 631 c 0
 -103 631 -110 634 -120 652 c 0
 -124 660 -126 666 -126 670 c 0
 -126 685 -14 798 5 809 c 0xd8
97 33 m 0xe8
 94 57 94 86 93 114 c 0
 87 275 82 428 75 464 c 0
 73 473 71 485 71 498 c 0
 71 529 91 547 116 547 c 0
 145 547 157 507 161 462 c 0
 170 372 175 239 175 174 c 0
 175 136 183 80 187 67 c 0
 189 62 197 46 197 32 c 0
 197 14 192 -3 147 -3 c 0
 118 -3 100 12 97 33 c 0xe8
EndSplineSet
EndChar
StartChar: imacron
Encoding: 299 299 235
Width: 252
GlyphClass: 2
Flags: MW
HStem: -3 21G<132.5 169.5> 527 20G<103.5 130.5> 678 92<50 57.5 52 87>
VStem: 93 82
LayerCount: 2
Fore
SplineSet
-34 780 m 0
 -26 780 -20 778 -12 776 c 0
 -4 774 6 770 14 770 c 0
 18 769 22 769 26 769 c 0
 34 769 42 770 50 770 c 2
 154 770 l 2
 174 770 195 772 215 772 c 0
 222 772 229 772 235 771 c 0
 252 771 305 761 306 752 c 0
 310 718 286 701 241 686 c 0
 219 679 145 678 87 678 c 0
 75 678 63 678 52 678 c 0
 37 678 22 676 7 676 c 0
 -22 676 -69 693 -72 726 c 0
 -74 742 -64 758 -54 770 c 0
 -48 776 -42 780 -34 780 c 0
97 33 m 0
 94 57 94 86 93 114 c 0
 87 275 82 428 75 464 c 0
 73 473 71 485 71 498 c 0
 71 529 91 547 116 547 c 0
 145 547 157 507 161 462 c 0
 170 372 175 239 175 174 c 0
 175 136 183 80 187 67 c 0
 189 62 197 46 197 32 c 0
 197 14 192 -3 147 -3 c 0
 118 -3 100 12 97 33 c 0
EndSplineSet
EndChar
StartChar: Iogonek
Encoding: 302 302 238
Width: 626
GlyphClass: 2
Flags: HMW
LayerCount: 2
Fore
SplineSet
79 860 m 0
 117 865 231 880 269 892 c 1
 273 907 286 917 307 917 c 0
 321 917 334 913 344 901 c 1
 371 902 397 903 419 903 c 0
 441 903 459 902 467 901 c 0
 498.541566104 897.571568902 512.216839719 890.851978661 512.216839719 876.650210402 c 0
 512.216839719 870.140218892 509.343334266 862.058040971 504 852 c 0
 498 838 490 831 479 827 c 0
 470 824 385 823 355 820 c 1
 357 806 357 738 357 692 c 0
 357 592 349 512 349 392 c 0
 349 369 347 348 347 324 c 0
 347 295 361 212 361 170 c 0
 361 157 359 147 355 145 c 0
 342 138 326 101 305 101 c 0
 302 101 300 103 296 105 c 0
 280.304347826 119.043478261 278.939508507 141.275992439 278.939508507 172.261280513 c 0
 278.939508507 178.784499055 279 185.695652174 279 193 c 0
 279 250 277 280 269 362 c 0
 268.666666667 366.333333333 268.555555556 371.111111111 268.555555556 376.259259259 c 0
 268.555555556 386.555555556 269 398.333333333 269 411 c 0
 269 476 279 603 279 679 c 0
 279 746 277 802 275 810 c 1
 262 806 186 796 174 796 c 0
 163 796 89 796 79 802 c 0
 74 806 64 806 64 839 c 0
 64 848 70 858 79 860 c 0
514 -3 m 0
 480 -35 461 -88 461 -128 c 0
 461 -149 463 -157 471 -168 c 0
 478 -179 495 -189 511 -189 c 0
 524 -189 550 -179 569 -179 c 0
 583 -179 596 -185 596 -200 c 0
 596 -221 571 -242 552 -253 c 0
 531 -267 517 -271 502 -271 c 0
 487 -271 476 -267 462 -261 c 0
 412 -240 377 -195 377 -139 c 0
 377 -94 398 -35 417 -5 c 1
 337 -5 255 0 176 11 c 0
 125 16 96 28 96 52 c 0
 96 90 112 110 146 110 c 0
 161 110 174 107 182 99 c 0
 195 86 314 80 345 80 c 0
 421 80 465 92 535 92 c 0
 556 92 573 81 573 52 c 0
 573 35 537 18 514 -3 c 0
EndSplineSet
Validated: 524289
EndChar
StartChar: dotlessi
Encoding: 305 305 241
Width: 252
GlyphClass: 4
Flags: MW
HStem: -3 21G<132.5 169.5> 527 20G<103.5 130.5>
VStem: 93 82
AnchorPoint: "acute" 122 620 basechar 0
AnchorPoint: "ogonek" 152 30 basechar 0
AnchorPoint: "cedilla" 144 36 basechar 0
LayerCount: 2
Fore
SplineSet
97 33 m 0
 94 57 94 86 93 114 c 0
 87 275 82 428 75 464 c 0
 73 473 71 485 71 498 c 0
 71 529 91 547 116 547 c 0
 145 547 157 507 161 462 c 0
 170 372 175 239 175 174 c 0
 175 136 183 80 187 67 c 0
 189 62 197 46 197 32 c 0
 197 14 192 -3 147 -3 c 0
 118 -3 100 12 97 33 c 0
EndSplineSet
EndChar
StartChar: IJ
Encoding: 306 306 242
Width: 590
GlyphClass: 2
Flags: MW
HStem: -7 91<285.5 304 274.5 311.5> 357 89<177.5 183> 886 20G<115.5 122.5> 899 20G<444 483.5>
VStem: 62 78<604.5 632.5 604.5 646> 446 80<633.5 770.5>
LayerCount: 2
Fore
SplineSet
503 299 m 0xdc
 496 252 494 197 479 154 c 0
 460 99 411 29 359 4 c 0
 340 -5 324 -7 299 -7 c 0
 272 -7 204 11 184 28 c 0
 164 44 143 63 137 89 c 0
 136 98 134 112 136 121 c 0
 138 139 154 152 172 152 c 0
 192 152 210 135 224 121 c 0
 236 110 265 84 284 84 c 0
 324 84 362 108 385 139 c 0
 410 173 414 229 419 271 c 0
 428 339 436 410 439 483 c 0
 441 528 446 611 446 656 c 1
 438 643 415 607 404 588 c 0
 379 544 331 482 305 442 c 0
 287 414 232 367 197 359 c 0
 191 358 186 357 180 357 c 0
 137 357 96 393 82 420 c 0
 65 451 62 584 62 620 c 0
 62 672 66 723 71 775 c 0
 73 793 71 813 76 830 c 0
 83 857 82 893 107 904 c 0
 111 906 114 906 117 906 c 0
 128 906 136 898 147 890 c 0
 162 879 161 853 161 830 c 0xec
 161 787 150 750 145 711 c 0
 141 684 140 647 140 618 c 0
 140 591 141 461 166 449 c 0
 170 447 175 446 180 446 c 0
 205 446 235 473 251 492 c 0
 298 542 364 679 387 746 c 0
 400 786 423 919 465 919 c 0
 502 919 513 898 520 839 c 0
 524 814 526 784 526 757 c 0
 526 687 522 618 521 548 c 0
 519 464 515 377 503 299 c 0xdc
EndSplineSet
EndChar
StartChar: ij
Encoding: 499 307 243
Width: 558
VWidth: 1000
GlyphClass: 2
Flags: HMW
LayerCount: 2
Fore
SplineSet
168 688 m 0
 162 687 156 687 150 687 c 0
 104 687 54 711 50 746 c 0
 49.5821289636 748.674374633 49.380782019 751.236994896 49.380782019 753.687860789 c 0
 49.380782019 780.562620263 73.5908004256 794 102 794 c 1
 140.423414025 787.745025624 202.800728731 762.326930703 202.800728731 718.459196355 c 0
 202.800728731 713.234141194 201.915780176 707.747340527 200 702 c 0
 197 694 179 688 168 688 c 0
432 812 m 0
 465 808 498 784 498 748 c 0
 498 722 483 712 463 712 c 0
 431 712 388 740 388 768 c 0
 388 788 408 802 426 810 c 0
 428 810 430 812 432 812 c 0
138 292 m 0
 138 232 150 110 202 110 c 0
 284 110 331 349 354 406 c 0
 368 442 402 564 448 564 c 1
 481 557 509 530 518 498 c 0
 519.2 493.2 519.68 488.4 519.68 483.6 c 0
 519.68 464.4 512 445.2 512 426 c 0
 512 324 509 228 506 128 c 0
 504 78 500 19 500 -34 c 0
 500 -72 494 -121 486 -160 c 0
 466 -256 362 -354 266 -354 c 0
 196 -354 148 -340 110 -278 c 0
 104.844591039 -269.811997533 102.448169091 -258.865008052 102.448169091 -247.585428528 c 0
 102.448169091 -221.67050935 115.097780519 -194 136 -194 c 0
 164 -194 178 -234 204 -246 c 0
 226 -255 246 -259 264 -259 c 0
 318 -259 356 -224 378 -186 c 0
 424 -104 409 -30 414 102 c 0
 416 165 421 275 424 316 c 1
 388 236 336 18 198 18 c 0
 68 18 54 156 54 300 c 0
 54 351 57 525 78 554 c 0
 84 563 96 567 108 567 c 0
 125 567 144 560 154 548 c 0
 157.260869565 544.739130435 158.536862004 538.028355388 158.536862004 529.305991617 c 0
 158.536862004 497.905482042 142 440.434782609 142 424 c 0
 140.381966011 388.403252248 137.454915028 352.806504495 137.454915028 317.209756743 c 0
 137.454915028 308.806504495 137.618033989 300.403252248 138 292 c 0
EndSplineSet
Validated: 1
EndChar
StartChar: uni013C
Encoding: 316 316 252
Width: 298
GlyphClass: 2
Flags: MW
HStem: -16 21G<181 187> 906 20G<95 118>
VStem: 67 80 68 80 69 84 187 80 188 80<-180 -157>
LayerCount: 2
Fore
SplineSet
106 -336 m 0xd2
 106 -318 110 -296 126 -282 c 0
 156 -254 188 -212 188 -170 c 0
 188 -144 182 -132 176 -124 c 0
 152 -96 132 -94 132 -82 c 0
 132 -62 136 -54 164 -42 c 0
 168 -40 184 -40 190 -40 c 0
 214 -40 240 -63 252 -82 c 0
 266 -106 268 -128 268 -168 c 0
 268 -192 262 -228 258 -240 c 0
 243 -284 189 -362 138 -362 c 0
 120 -362 106 -352 106 -336 c 0xd2
242 86 m 0
 262 86 290 82 290 62 c 0
 290 32 229 -4 204 -12 c 0
 194 -16 188 -16 186 -16 c 0
 176 -16 162 -14 146 -4 c 0
 98 20 80 64 72 116 c 0
 68 148 66 298 68 438 c 0
 70 622 70 728 70 890 c 0
 70 916 80 926 110 926 c 0xe4
 126 926 146 916 152 898 c 0xcc
 156 888 152 734 154 612 c 0
 156 488 146 386 148 346 c 0
 152 200 146 118 178 80 c 0
 184 72 194 70 204 70 c 0
 210 70 226 86 242 86 c 0
EndSplineSet
EndChar
StartChar: lcaron
Encoding: 318 318 254
Width: 412
GlyphClass: 2
Flags: MW
HStem: -16 21G<191 197> 906 20G<105 128>
VStem: 77 80 78 80 79 84 291 80 292 80<754 777>
LayerCount: 2
Fore
SplineSet
210 598 m 0xd2
 210 616 214 638 230 652 c 0
 260 680 292 722 292 764 c 0
 292 790 286 802 280 810 c 0
 256 838 236 840 236 852 c 0
 236 872 240 880 268 892 c 0
 272 894 288 894 294 894 c 0
 318 894 344 871 356 852 c 0
 370 828 372 806 372 766 c 0
 372 742 366 706 362 694 c 0
 347 650 293 572 242 572 c 0
 224 572 210 582 210 598 c 0xd2
252 86 m 0
 272 86 300 82 300 62 c 0
 300 32 239 -4 214 -12 c 0
 204 -16 198 -16 196 -16 c 0
 186 -16 172 -14 156 -4 c 0
 108 20 90 64 82 116 c 0
 78 148 76 298 78 438 c 0
 80 622 80 728 80 890 c 0
 80 916 90 926 120 926 c 0xe4
 136 926 156 916 162 898 c 0xcc
 166 888 162 734 164 612 c 0
 166 488 156 386 158 346 c 0
 162 200 156 118 188 80 c 0
 194 72 204 70 214 70 c 0
 220 70 236 86 252 86 c 0
EndSplineSet
EndChar
StartChar: ldot
Encoding: 320 320 256
Width: 382
GlyphClass: 2
Flags: MW
HStem: -16 21G<191 197> 420 118<285 299> 518 20G<269 299> 906 20G<105 128>
VStem: 77 80 78 80 79 84 239 104 240 104<485 507 482 513>
LayerCount: 2
Fore
SplineSet
240 500 m 0xb480
 240 526 254 538 284 538 c 0
 314 538 344 524 344 490 c 0xb9
 344 474 338 460 326 444 c 0
 316 428 304 420 294 420 c 0
 276 420 224 441 224 462 c 0xd9
 224 476 240 470 240 500 c 0xb480
252 86 m 0
 272 86 300 82 300 62 c 0
 300 32 239 -4 214 -12 c 0
 204 -16 198 -16 196 -16 c 0
 186 -16 172 -14 156 -4 c 0
 108 20 90 64 82 116 c 0
 78 148 76 298 78 438 c 0
 80 622 80 728 80 890 c 0
 80 916 90 926 120 926 c 0xb9
 136 926 156 916 162 898 c 0xb3
 166 888 162 734 164 612 c 0
 166 488 156 386 158 346 c 0
 162 200 156 118 188 80 c 0
 194 72 204 70 214 70 c 0
 220 70 236 86 252 86 c 0
EndSplineSet
EndChar
StartChar: Lslash
Encoding: 321 321 257
Width: 648
GlyphClass: 2
Flags: MW
HStem: 0 78<263 449.5>
VStem: 159 86<734 740> 164 81<231 261 190 294 190 294>
LayerCount: 2
Fore
SplineSet
56 218 m 0xc0
 25 218 15 248 15 268 c 0
 15 292 75 329 94 340 c 0
 115 354 138 370 164 389 c 1
 163 552 159 634 159 834 c 0
 159 879 162 902 193 902 c 0
 209 902 229 895 240 877 c 0
 250 859 254 846 252 839 c 0
 245 812 248 772 245 740 c 0
 243 715 245 682 245 589 c 0
 245 518 246 503 247 445 c 1xc0
 288 473 310 487 407 549 c 0
 427 562 451 583 486 583 c 0
 510 583 522 578 522 565 c 0
 522 526 451 475 421 457 c 0
 384 435 327 395 277 367 c 0
 268 362 258 356 249 350 c 1
 249 321 l 2
 247 304 245 279 245 243 c 0
 245 137 249 151 249 78 c 1
 258 77 269 77 281 77 c 0
 307 77 341 78 393 78 c 0
 506 78 576 81 603 87 c 0
 610 88 615 88 618 88 c 0
 622 88 625 88 627 87 c 0
 634 83 637 54 637 36 c 0
 637 5 626 2 603 2 c 0
 598 2 593 2 587 2 c 0
 573 2 560 4 544 4 c 0
 432 4 393 2 297 0 c 0
 286 0 274 0 263 0 c 0
 215 0 175 4 169 54 c 0
 161 128 164 168 164 231 c 2
 164 294 l 1
 157 289 149 284 142 279 c 0
 115 259 78 234 76 229 c 0xa0
 72 222 65 218 56 218 c 0xc0
EndSplineSet
EndChar
StartChar: lslash
Encoding: 514 322 258
Width: 520
VWidth: 1000
GlyphClass: 2
Flags: HMW
LayerCount: 2
Fore
SplineSet
276 465 m 1
 275 434 274 382 274 344 c 0
 276 267 283 202 283 135 c 0
 283 112 303 96 330 96 c 0
 351 96 367 114 384 130 c 0
 394 141 407 146 423 146 c 0
 441 146 459 137 468 124 c 0
 471.798294078 119.165807537 473.450417228 113.616224765 473.450417228 107.968811406 c 0
 473.450417228 97.2611069989 467.511106999 86.2017059222 459 79 c 0
 425 52 425 61 393 29 c 0
 366 2 335 2 304 2 c 0
 268 2 254 18 234 40 c 0
 218 60 202 83 200 106 c 0
 197.727272727 138.272727273 197.107438017 165.380165289 197.107438017 192.299774606 c 0
 197.107438017 224.603305785 198 256.636363636 198 297 c 0
 198 337 198 368 198 400 c 1
 170 377 144 356 121 336 c 0
 87 305 67 291 60 291 c 0
 45 291 20 314 20 323 c 0
 20 347 40 368 65 388 c 0
 88 408 112 433 144 460 c 0
 165 477 182 487 200 499 c 1
 202 604 204 648 205 783 c 0
 205 846 209 882 216 891 c 0
 223 898 234 902 249 902 c 0
 285 902 292 886 292 844 c 0
 292 808 290 772 290 735 c 0
 290 704 283 646 283 609 c 0
 283 596 282 581 282 566 c 1
 300 582 316 597 328 609 c 0
 347 629 388 656 417 656 c 0
 425 656 432 654 438 649 c 0
 444 643.5 447.5 636.75 447.5 629.375 c 0
 447.5 622 444 614 436 606 c 0
 421 588 400 568 373 546 c 0
 346 525 328 510 319 501 c 0
 306 491 292 479 276 465 c 1
EndSplineSet
Validated: 1
EndChar
StartChar: napostrophe
Encoding: 329 329 265
Width: 778
GlyphClass: 2
Flags: MW
HStem: -14 21G<246 284> -8 21G<612 628.5> 452 92<512 542> 546 20G<256 260>
VStem: 142 80<754 777> 210 82<347.5 440> 564 88<98 371>
LayerCount: 2
Fore
SplineSet
324 32 m 0xa6
 316 6 300 -14 268 -14 c 0
 224 -14 210 325 210 370 c 0
 210 444 212 472 202 480 c 0
 196 484 190 488 190 496 c 0
 192 526 228 568 256 566 c 0
 264 566 268 560 276 554 c 0x96
 292 536 290 514 292 440 c 0
 292 422 300 266 302 244 c 1
 326 318 360 384 400 456 c 0
 434 518 454 544 546 544 c 0
 626 544 652 506 652 302 c 0
 652 232 650 110 652 98 c 0
 656 74 672 58 672 36 c 0
 672 -4 645 -8 612 -8 c 0
 578 -6 568 16 564 42 c 0x66
 562 60 558 110 560 124 c 0
 564 180 564 300 564 324 c 0
 564 418 562 452 522 452 c 0
 502 452 480 418 462 382 c 0
 422 302 366 184 324 32 c 0xa6
60 598 m 0
 60 616 64 638 80 652 c 0
 110 680 142 722 142 764 c 0
 142 790 136 802 130 810 c 0
 106 838 86 840 86 852 c 0
 86 872 90 880 118 892 c 0
 122 894 138 894 144 894 c 0
 168 894 194 871 206 852 c 0
 220 828 222 806 222 766 c 0
 222 742 216 706 212 694 c 0x6a
 197 650 143 572 92 572 c 0
 74 572 60 582 60 598 c 0
EndSplineSet
EndChar
StartChar: Eng
Encoding: 330 330 266
Width: 782
GlyphClass: 2
Flags: HMW
LayerCount: 2
Fore
SplineSet
158 550 m 1
 170 596 180 612 194 642 c 0
 222 701 250 739 290 798 c 0
 334 862 406 906 462 906 c 0
 547 906 606 863 636 780 c 0
 664 703 697 616 708 526 c 0
 715.722363227 459.808315196 718.576571857 393.616630393 718.576571857 327.424945589 c 0
 718.576571857 273.616630393 716.69041576 219.808315196 714 166 c 0
 707 27 691 -55 660 -174 c 0
 643 -235 617 -319 546 -334 c 0
 543 -335 540 -335 537 -335 c 0
 517 -335 497 -325 478 -322 c 0
 438 -315 390 -320 356 -296 c 0
 339.15474197 -283.871414219 321.401443243 -258.12221797 321.401443243 -234.660438304 c 0
 321.401443243 -223.302656843 325.561930278 -212.480931649 336 -204 c 0
 340 -201 344 -200 348 -200 c 0
 358 -200 369 -205 378 -206 c 0
 412 -211 439 -226 472 -230 c 0
 488 -232 503 -237 517 -237 c 0
 551 -237 561 -212 570 -183 c 0
 607 -66 619 19 628 152 c 0
 631.291502622 204.664041954 633.680172785 275.685677247 633.680172785 339.145292606 c 0
 633.680172785 391.364665194 632.062746067 438.463609992 628 466 c 0
 618 537 598 622 574 694 c 0
 557 744 532 820 460 820 c 0
 384 820 282 638 260 580 c 0
 233 509 210 375 204 298 c 0
 202.302775638 276.501824745 201.725773151 259.164473597 201.725773151 243.633995875 c 0
 201.725773151 210.641343282 204.329782405 185.803101162 204.329782405 146.55118931 c 0
 204.329782405 138.960841228 204.232408121 130.831508589 204 122 c 0
 203.885479365 117.762736519 203.862763561 112.961529081 203.862763561 107.764594444 c 0
 203.862763561 104.347190629 203.872586155 100.758669485 203.872586155 97.0468627764 c 0
 203.872586155 57.1140203858 202.735702682 2.91190089384 176 -6 c 0
 173 -7 170 -7 168 -7 c 0
 140 -7 124 43 114 122 c 0
 103 206 104 242 96 332 c 0
 93 360 92 386 90 414 c 0
 87 450 78 484 74 520 c 0
 69 568 68 614 64 662 c 0
 60 710 56 756 54 804 c 0
 53.2938842902 820.946777036 49.5961722061 836.896355281 49.5961722061 852.552872467 c 0
 49.5961722061 859.069091233 50.2366942591 865.534545617 52 872 c 0
 58 894 64 924 84 934 c 0
 88 936 94 937 99 937 c 0
 109 937 120 934 126 928 c 0
 144 908 143 812 146 756 c 0
 150 686 151 625 158 550 c 1
EndSplineSet
Validated: 524289
EndChar
StartChar: eng
Encoding: 331 331 267
Width: 594
GlyphClass: 2
Flags: HMW
LayerCount: 2
Fore
SplineSet
317 -317 m 0
 301 -314 285 -305 270 -298 c 0
 259 -292 245 -290 240 -280 c 0
 236.125492134 -274.1882382 233.91896329 -265.874507866 233.91896329 -258.290107921 c 0
 233.91896329 -254.129429203 234.583005244 -250.1882382 236 -247 c 0
 240 -238 249 -229 259 -227 c 0
 259.577264638 -226.947521397 260.154529276 -226.922582831 260.731793913 -226.922582831 c 0
 292 -236 l 0
 317 -243 342 -247 368 -247 c 0
 378 -247 386 -245 394 -240 c 0
 420 -222 423 -184 430 -154 c 0
 436 -134 434 -116 436 -96 c 0
 438.290199458 -49.7379709535 439.531396204 -3.05634082244 439.531396204 43.564405305 c 0
 439.531396204 98.7268160325 437.793720759 153.803989155 434 208 c 0
 430 261 436 315 416 361 c 0
 403 392 387 435 355 437 c 0
 353 437 352 437 350 437 c 0
 301 437 266 375 238 333 c 0
 198 271 175 183 173 122 c 0
 172.758567305 118.13707688 172.677431412 114.099284522 172.677431412 109.948192521 c 0
 172.677431412 101.438877515 173.018371057 92.4534681635 173.018371057 83.5223150237 c 0
 173.018371057 60.7184898226 170.795686465 38.2683766307 155 25 c 0
 149 20 140 17 131 17 c 0
 124 17 117 19 112 23 c 0
 83 46 68 245 68 286 c 0
 68 311 65.75 339.5 65.75 367.625 c 0
 65.75 395.75 68 423.5 77 447 c 0
 82 465 110 492 129 492 c 0
 133 492 137 491 142 489 c 0
 152.295297704 483.549548274 154.888670664 474.798271658 154.888670664 462.301948257 c 0
 154.888670664 454.163851564 153.788788505 444.437433328 153 433 c 0
 151 397 151 360 151 324 c 1
 173 370 182 406 207 442 c 0
 236 481 302 529 351 529 c 0
 380 529 407 518 430 502 c 0
 481 465 496 385 504 327 c 0
 516.8 231.8 523.2 135.96 523.2 40.504 c 0
 523.2 16.64 522.8 -7.2 522 -31 c 0
 520 -89 519 -148 506 -204 c 0
 491 -288 465 -315 376 -323 c 0
 371 -324 366 -324 362 -324 c 0
 347 -324 332 -322 317 -317 c 0
EndSplineSet
Validated: 524289
EndChar
StartChar: Omacron
Encoding: 332 332 268
Width: 756
GlyphClass: 2
Flags: MW
HStem: -12 88<328 365> 822 82<441 479 414 519> 996 92<300 307.5 302 337>
VStem: 56 84<402 456.5 402 467> 626 76<405 472>
LayerCount: 2
Fore
SplineSet
216 1098 m 0
 224 1098 230 1096 238 1094 c 0
 246 1092 256 1088 264 1088 c 0
 268 1087 272 1087 276 1087 c 0
 284 1087 292 1088 300 1088 c 2
 404 1088 l 2
 424 1088 445 1090 465 1090 c 0
 472 1090 479 1090 485 1089 c 0
 502 1089 555 1079 556 1070 c 0
 560 1036 536 1019 491 1004 c 0
 469 997 395 996 337 996 c 0
 325 996 313 996 302 996 c 0
 287 996 272 994 257 994 c 0
 228 994 181 1011 178 1044 c 0
 176 1060 186 1076 196 1088 c 0
 202 1094 208 1098 216 1098 c 0
218 780 m 1
 214 782 200 790 196 790 c 0
 186 790 176 738 176 724 c 1
 176 724 208 770 218 780 c 1
564 214 m 0
 596 268 626 340 626 420 c 0
 626 524 624 562 616 598 c 0
 596 694 578 822 460 822 c 0
 422 822 392 814 370 804 c 0
 309 773 215 658 186 596 c 0
 176 578 166 572 156 572 c 1
 151 559 140 463 140 450 c 0
 140 354 136 334 164 252 c 0
 174 220 188 194 198 176 c 0
 246 104 290 76 366 76 c 0
 396 76 440 96 456 106 c 0
 514 148 542 178 564 214 c 0
182 892 m 0
 206 892 266 856 276 842 c 1
 328 880 376 904 452 904 c 0
 506 904 546 892 578 858 c 0
 624 808 624 790 656 724 c 0
 686 664 702 570 702 444 c 0
 702 366 694 310 682 280 c 0
 642 187 582 98 496 42 c 0
 446 8 380 -12 350 -12 c 0
 240 -12 165 51 118 144 c 0
 88 198 90 206 80 258 c 0
 74 290 56 322 56 398 c 0
 56 536 74 626 84 676 c 0
 100 746 92 804 128 856 c 0
 144 880 162 892 182 892 c 0
EndSplineSet
EndChar
StartChar: OE
Encoding: 530 338 274
Width: 1087
VWidth: 1000
GlyphClass: 2
Flags: HMW
LayerCount: 2
Fore
SplineSet
873 788 m 0
 843 788 812 790 786 790 c 0
 732 790 648 792 648 792 c 1
 648 787 631 695 631 668 c 0
 631.666666667 653.666666667 631.888888889 641.444444444 631.888888889 629.925925926 c 0
 631.888888889 606.888888889 631 586.666666667 631 558 c 0
 631 539 632 525 633 510 c 1
 657 511 697 517 711 517 c 0
 747 517 826 517 835 526 c 0
 842 533 871 537 892 537 c 0
 921 537 930 513 930 504 c 0
 930 481 903 461 894 459 c 0
 878 456 838 452 810 441 c 0
 765 424 682 420 630 420 c 1
 630 396 630 379 631 353 c 0
 633 292 633 222 640 178 c 0
 648 141 658 121 676 121 c 0
 685 121 729 126 777 132 c 0
 819 137 865 142 887 146 c 0
 946 155 979 157 984 159 c 0
 990 162 996 163 1003 163 c 0
 1020 163 1037 155 1040 142 c 0
 1042 137 1038 130 1031 119 c 0
 1011 87 1004 70 984 70 c 0
 979 70 928 67 927 67 c 0
 909 63 849 54 799 49 c 0
 754 43 718 40 691 36 c 0
 660 33 630 27 612 27 c 0
 586 27 565 42 558 81 c 0
 557 86 554 101 551 126 c 1
 538 112 523 96 514 88 c 0
 468 43 450 38 430 27 c 0
 412 16 351 -4 338 -4 c 0
 253 -4 178 63 158 126 c 0
 145 166 126 186 117 213 c 0
 109 238 91 290 86 321 c 0
 77 353 75 378 73 400 c 0
 73 407 68 436 68 484 c 0
 68 508 77 558 84 605 c 0
 99 692 131 742 183 814 c 0
 190 825 210 850 255 880 c 0
 280 897 316 906 367 906 c 0
 423 906 462 897 484 880 c 0
 523 848 540 823 545 805 c 0
 546 803 547 799 549 795 c 1
 552 825 l 2
 556 852 568 871 585 879 c 0
 595 882 610 888 631 888 c 0
 640 888 644 886 653 880 c 0
 658 877 691 871 711 871 c 0
 730 871 928 870 948 870 c 0
 980.006872933 870 995.176065603 852.276126039 995.176065603 839.352960627 c 0
 995.176065603 794.816087821 931.247885078 788 873 788 c 0
356 825 m 0
 258 825 183 683 167 600 c 0
 162 569 153 484 153 430 c 0
 153 376 174 324 185 294 c 0
 192 272 192 259 207 229 c 0
 228 193 232 168 261 135 c 0
 277 115 313 101 345 101 c 0
 383 101 405 110 444 151 c 0
 473 178 489 200 496 214 c 0
 532 281 534 412 534 486 c 0
 534 537 529 576 518 645 c 1
 518 683 491 744 469 774 c 0
 442 807 415 825 356 825 c 0
EndSplineSet
Validated: 1
EndChar
StartChar: uni0157
Encoding: 343 343 279
Width: 473
GlyphClass: 2
Flags: MW
HStem: -6 21G<110 133.5> 449 83<427 442.5> 471 85<288 288>
VStem: 32 86 40 86 131 80
LayerCount: 2
Fore
SplineSet
57 -350 m 0xa8
 57 -332 61 -310 77 -296 c 0
 107 -268 139 -226 139 -184 c 0
 139 -158 133 -146 127 -138 c 0
 103 -110 83 -108 83 -96 c 0
 83 -76 87 -68 115 -56 c 0
 119 -54 135 -54 141 -54 c 0
 165 -54 191 -77 203 -96 c 0
 217 -120 219 -142 219 -182 c 0
 219 -206 213 -242 209 -254 c 0xb4
 194 -298 140 -376 89 -376 c 0
 71 -376 57 -366 57 -350 c 0xa8
79 554 m 0
 122 554 141 535 134 503 c 0
 123 452 123 359 132 257 c 1
 153 334 179 412 204 482 c 0xb0
 220 524 238 556 287 556 c 0
 337 556 408 532 433 532 c 0
 457 532 473 522 473 499 c 0xd0
 473 471 458 449 427 449 c 0
 384 450 325 470 288 471 c 1
 240 340 194 197 163 46 c 0
 158 24 144 -6 123 -6 c 0
 97 -6 84 20 79 42 c 0
 39 212 32 421 48 509 c 0
 52 526 55 554 79 554 c 0
EndSplineSet
EndChar
StartChar: rcaron
Encoding: 345 345 281
Width: 473
GlyphClass: 2
Flags: MW
HStem: -6 21G<110 133.5> 449 83<427 442.5> 471 85<288 288>
VStem: 32 86 40 86
LayerCount: 2
Fore
SplineSet
254 650 m 0xa8
 218 650 205 670 181 702 c 0
 165 723 124 778 112 796 c 0
 95 822 84 838 84 850 c 0
 84 866 88 877 96 884 c 0
 103 889 112 894 126 894 c 0
 146 894 161 873 177 849 c 0
 192 826 212 797 229 776 c 0
 241 761 252 749 256 743 c 1
 280 772 298 792 329 833 c 0
 361 875 374 896 398 896 c 0
 423 896 430 876 430 854 c 0
 430 818 404 796 390 778 c 0
 358 736 362 744 310 680 c 0
 295 661 290 650 254 650 c 0xa8
79 554 m 0
 122 554 141 535 134 503 c 0
 123 452 123 359 132 257 c 1
 153 334 179 412 204 482 c 0xb0
 220 524 238 556 287 556 c 0
 337 556 408 532 433 532 c 0
 457 532 473 522 473 499 c 0xd0
 473 471 458 449 427 449 c 0
 384 450 325 470 288 471 c 1
 240 340 194 197 163 46 c 0
 158 24 144 -6 123 -6 c 0
 97 -6 84 20 79 42 c 0
 39 212 32 421 48 509 c 0
 52 526 55 554 79 554 c 0
EndSplineSet
EndChar
StartChar: sacute
Encoding: 347 347 283
Width: 428
GlyphClass: 2
Flags: MW
HStem: -10 84<182 226.5> 476 78<239 268>
VStem: 46 87<369 398 369 411.5> 295 84<456 465>
LayerCount: 2
Fore
SplineSet
308 856 m 0
 326 870 344 876 360 876 c 0
 385 876 400 863 400 838 c 0
 400 795 206 657 158 636 c 0
 152 633 144 632 137 632 c 0
 124 632 96 641 96 658 c 0
 96 664 94 676 112 694 c 0
 126 708 167 743 207 775 c 0
 245 806 282 838 308 856 c 0
258 554 m 0
 296 554 344 536 365 514 c 0
 373 506 379 494 379 470 c 0
 379 442 355 398 325 398 c 0
 303 398 285 418 285 428 c 0
 285 436 295 448 295 460 c 0
 295 470 283 476 253 476 c 0
 225 476 207 466 172 440 c 0
 139 416 133 404 133 392 c 0
 133 346 184 311 212 290 c 0
 259 255 382 146 382 77 c 0
 382 -1 255 -10 198 -10 c 0
 162 -10 64 -1 64 48 c 0
 64 76 78 90 106 90 c 0
 138 90 146 74 218 74 c 0
 256 74 280 83 290 90 c 1
 262 152 208 187 139 246 c 0
 100 279 46 318 46 396 c 0
 46 427 61 464 128 509 c 0
 173 539 202 554 258 554 c 0
EndSplineSet
EndChar
StartChar: Scedilla
Encoding: 350 350 286
Width: 668
GlyphClass: 2
Flags: MW
HStem: 4 89<303.5 356.5> 815 92<300 312> 887 20G<294.5 316.5>
VStem: 75 87 81 87 425 86 528 83 534 83
LayerCount: 2
Fore
SplineSet
341 -260 m 0xa9
 336 -241 366 -228 379 -212 c 0
 391 -196 408 -179 417 -160 c 0
 426 -142 429 -124 431 -104 c 0
 433 -66 407 -13 403 8 c 1
 392 6 370 4 343 4 c 0xb6
 315 4 282 6 255 10 c 0
 204 17 145 15 111 53 c 0
 98 65 93 89 100 105 c 0
 107 119 129 127 145 127 c 0
 179 127 204 107 237 100 c 0
 263 95 290 93 317 93 c 0
 338 93 360 94 381 96 c 0
 448 101 534 141 534 219 c 0
 534 277 495 325 447 355 c 0
 384 394 321 416 245 441 c 0
 209 452 174 458 143 479 c 0
 118 496 96 521 87 548 c 0
 75 589 82 636 98 677 c 0
 134 767 184 879 278 904 c 0
 285 906 291 907 298 907 c 0
 335 907 373 880 402 857 c 0xb2
 418 845 447 823 438 805 c 0
 429 787 416 783 399 783 c 0
 392 783 385 783 378 784 c 0
 360 786 323 815 301 815 c 0
 299 815 298 814 296 814 c 0
 258 803 235 764 214 730 c 0
 187 687 158 631 171 582 c 0
 176 561 195 555 213 542 c 0
 233 530 258 523 282 515 c 0
 362 490 432 472 494 428 c 0
 529 402 568 375 588 338 c 0
 613 289 625 224 611 170 c 0
 598 125 557 92 523 60 c 0xd2
 510 49 489 37 481 31 c 1
 485 24 490 10 494 -1 c 0
 507 -41 521 -80 517 -122 c 0xb6
 515 -180 444 -271 388 -280 c 0
 373 -280 345 -279 341 -260 c 0xa9
EndSplineSet
Substitution2: "'locl' +Vv0w+1cwV99W+mcJMG5bV19i in +MOkwxjDzZYdbVwAA lookup 3 +MLUw1jDGMPww1jDr" uni0218
Substitution2: "'locl' +Vv0w+1cwV99W+mcJMG5bV19i in +MOkwxjDzZYdbVwAA lookup 2 +MLUw1jDGMPww1jDr" uni0218
Substitution2: "'aalt' +MFkweTBmMG51cE9TW1cweDBuMKIwrzC7MLkA lookup 0 +MLUw1jDGMPww1jDr" uni0218
EndChar
StartChar: scedilla
Encoding: 351 351 287
Width: 502
GlyphClass: 2
Flags: MW
HStem: -292 21G<245 253.5> -12 79<243.5 262> -8 21G 474 86<307.5 330.5>
VStem: 62 78 66 78<313 349 313 358> 288 80 374 85 378 85
LayerCount: 2
Fore
SplineSet
234 -286 m 0xd480
 222 -272 226 -252 248 -230 c 0
 272 -204 292 -168 292 -132 c 0
 292 -90 286 -60 262 -12 c 1xda
 225 -12 132 -5 102 8 c 0
 82 16 58 28 52 48 c 0
 46 68 56 94 72 106 c 0
 78 110 85 112 93 112 c 0
 103 112 114 109 122 104 c 0
 167 79 212 67 264 67 c 0
 291 67 324 70 346 74 c 0
 364 78 378 84 378 102 c 0xd9
 378 156 262 184 176 200 c 0
 148 206 118 214 98 234 c 0
 80 252 66 286 66 318 c 0
 66 398 106 454 170 506 c 0
 204 532 280 560 312 560 c 0
 370 560 436 528 436 488 c 0
 436 472 415 461 395 461 c 0
 390 461 385 462 380 464 c 0
 362 470 341 474 320 474 c 0
 295 474 270 469 248 458 c 0
 196 432 144 374 144 324 c 0
 144 302 154 286 214 274 c 0
 291 259 406 230 450 160 c 0
 466 134 466 90 456 60 c 0
 442 13 393 -3 350 -8 c 1xb9
 358 -30 360 -42 364 -60 c 0
 368 -82 374 -106 372 -128 c 0
 368 -170 352 -206 324 -238 c 0
 312 -254 300 -274 282 -282 c 0xba
 273 -286 259 -292 248 -292 c 0
 242 -292 237 -290 234 -286 c 0xd480
EndSplineSet
Substitution2: "'locl' +Vv0w+1cwV99W+mcJMG5bV19i in +MOkwxjDzZYdbVwAA lookup 3 +MLUw1jDGMPww1jDr" uni0219
Substitution2: "'locl' +Vv0w+1cwV99W+mcJMG5bV19i in +MOkwxjDzZYdbVwAA lookup 2 +MLUw1jDGMPww1jDr" uni0219
Substitution2: "'aalt' +MFkweTBmMG51cE9TW1cweDBuMKIwrzC7MLkA lookup 0 +MLUw1jDGMPww1jDr" uni0219
EndChar
StartChar: scaron
Encoding: 353 353 289
Width: 428
GlyphClass: 2
Flags: MW
HStem: -10 84<182 226.5> 476 78<239 268> 884 20G<90 114> 886 20G<364 388.5>
VStem: 46 87<369 398 369 411.5> 295 84<456 465>
LayerCount: 2
Fore
SplineSet
232 660 m 0xdc
 196 660 183 680 159 712 c 0
 143 733 102 788 90 806 c 0
 73 832 62 848 62 860 c 0
 62 888 76 904 104 904 c 0
 124 904 139 883 155 859 c 0xec
 170 836 190 807 207 786 c 0
 219 771 230 759 234 753 c 1
 258 782 275 802 307 843 c 0
 339 885 352 906 376 906 c 0
 401 906 408 886 408 864 c 0
 408 828 382 806 368 788 c 0
 336 746 340 754 288 690 c 0
 273 671 268 660 232 660 c 0xdc
258 554 m 0
 296 554 344 536 365 514 c 0
 373 506 379 494 379 470 c 0
 379 442 355 398 325 398 c 0
 303 398 285 418 285 428 c 0
 285 436 295 448 295 460 c 0
 295 470 283 476 253 476 c 0
 225 476 207 466 172 440 c 0
 139 416 133 404 133 392 c 0
 133 346 184 311 212 290 c 0
 259 255 382 146 382 77 c 0
 382 -1 255 -10 198 -10 c 0
 162 -10 64 -1 64 48 c 0
 64 76 78 90 106 90 c 0
 138 90 146 74 218 74 c 0
 256 74 280 83 290 90 c 1
 262 152 208 187 139 246 c 0
 100 279 46 318 46 396 c 0
 46 427 61 464 128 509 c 0
 173 539 202 554 258 554 c 0
EndSplineSet
EndChar
StartChar: uni0162
Encoding: 354 354 290
Width: 804
GlyphClass: 2
Flags: MW
HStem: 804 82 818 83<76.5 149.5 90 149.5> 821 85<704.5 748.5>
VStem: 372 96 378 96 522 88 528 88
LayerCount: 2
Fore
SplineSet
324 -370 m 0x8a
 312 -368 298 -364 294 -352 c 0
 290 -340 302 -328 310 -318 c 0
 346 -276 408 -260 446 -220 c 0
 482 -180 530 -134 528 -80 c 0
 526 -46 496 -8 466 6 c 0
 450 14 432 22 422 38 c 0
 412 54 416 70 414 92 c 0
 402 240 404 358 398 490 c 0
 392 594 386 708 378 800 c 1
 294 802 204 816 122 818 c 0
 112 818 101 818 90 818 c 0
 63 818 38 821 32 842 c 0
 24 866 46 894 82 898 c 0
 102 900 121 901 140 901 c 0x54
 159 901 177 900 196 900 c 0
 293 898 388 886 485 886 c 0
 492 886 499 886 506 886 c 0x94
 564 888 620 900 678 900 c 0
 698 900 721 906 741 906 c 0
 756 906 769 903 778 892 c 0
 788 880 786 854 776 842 c 0
 760 824 736 821 710 821 c 0
 699 821 689 822 678 822 c 0x34
 669 822 660 821 652 820 c 0
 592 812 526 806 474 804 c 1
 474 728 484 640 486 556 c 0
 488 484 486 410 488 338 c 0
 490 280 494 224 496 166 c 0
 496 140 498 116 498 90 c 1
 545 74 590 43 604 -8 c 0
 618 -54 622 -110 604 -156 c 0
 580 -218 526 -268 472 -308 c 0
 425 -341 384 -370 324 -370 c 0x8a
EndSplineSet
Substitution2: "'locl' +Vv0w+1cwV99W+mcJMG5bV19i in +MOkwxjDzZYdbVwAA lookup 3 +MLUw1jDGMPww1jDr" uni021A
Substitution2: "'locl' +Vv0w+1cwV99W+mcJMG5bV19i in +MOkwxjDzZYdbVwAA lookup 2 +MLUw1jDGMPww1jDr" uni021A
Substitution2: "'aalt' +MFkweTBmMG51cE9TW1cweDBuMKIwrzC7MLkA lookup 0 +MLUw1jDGMPww1jDr" uni021A
EndChar
StartChar: uni0163
Encoding: 355 355 291
Width: 694
GlyphClass: 2
Flags: MW
HStem: 4 86<356 376> 483 81 487 81<276 276>
VStem: 195 81 582 82
LayerCount: 2
Fore
SplineSet
152 480 m 0xd8
 128 477 103 475 78 475 c 0
 67 475 58 476 50 482 c 0
 40 488 30 502 30 514 c 0
 30 526 40 538 50 546 c 0
 62 554 78 552 92 554 c 0
 112 556 132 564 152 564 c 0
 167 564 181 565 196 565 c 1xd8
 195 630 194 725 196 764 c 0
 198 792 188 826 204 848 c 0
 214 861 230 875 245 875 c 0
 249 875 252 874 256 872 c 0
 294 850 276 788 280 744 c 0
 283 713 279 628 277 568 c 1
 324 571 371 574 418 578 c 0
 447 581 470 583 496 583 c 0
 505 583 515 583 526 582 c 0
 550 582 566 582 572 560 c 0
 578 538 566 526 546 516 c 0
 514 498 482 502 446 498 c 0
 389 491 333 489 276 487 c 1xb8
 276 388 265 288 272 192 c 0
 276 128 310 90 354 90 c 0
 398 90 436 104 476 122 c 0
 560 158 576 182 618 182 c 0
 650 182 664 80 664 -16 c 0
 664 -96 624 -170 574 -228 c 0
 552 -254 521 -285 488 -285 c 0
 486 -285 483 -284 480 -284 c 0
 472 -282 464 -274 464 -266 c 0
 462 -226 514 -200 532 -164 c 0
 554 -120 580 -74 582 -24 c 0
 584 6 576 36 558 66 c 1
 528 52 500 36 468 26 c 0
 431 14 396 4 356 4 c 0
 318 6 272 10 246 38 c 0
 192 98 198 194 190 274 c 0
 183 343 191 413 195 483 c 1
 180 482 166 481 152 480 c 0xd8
EndSplineSet
Substitution2: "'locl' +Vv0w+1cwV99W+mcJMG5bV19i in +MOkwxjDzZYdbVwAA lookup 3 +MLUw1jDGMPww1jDr" uni021B
Substitution2: "'locl' +Vv0w+1cwV99W+mcJMG5bV19i in +MOkwxjDzZYdbVwAA lookup 2 +MLUw1jDGMPww1jDr" uni021B
Substitution2: "'aalt' +MFkweTBmMG51cE9TW1cweDBuMKIwrzC7MLkA lookup 0 +MLUw1jDGMPww1jDr" uni021B
EndChar
StartChar: tcaron
Encoding: 357 357 293
Width: 602
GlyphClass: 2
Flags: MW
HStem: -14 86<368 398> 444 98<66 86> 522 20G<66 87> 528 20G 542 20G
VStem: 182 84<421 460> 474 80<816 839>
LayerCount: 2
Fore
SplineSet
392 660 m 0x8e
 392 678 396 700 412 714 c 0
 442 742 474 784 474 826 c 0
 474 852 468 864 462 872 c 0
 438 900 418 902 418 914 c 0
 418 934 422 942 450 954 c 0
 454 956 470 956 476 956 c 0
 500 956 526 933 538 914 c 0
 552 890 554 868 554 828 c 0
 554 804 548 768 544 756 c 0
 529 712 475 634 424 634 c 0
 406 634 392 644 392 660 c 0x8e
106 540 m 0xa6
 112 540 156 542 184 548 c 1
 184 566 186 562 186 594 c 0x96
 186 644 190 700 194 764 c 0
 198 838 194 866 220 866 c 0
 256 866 278 860 278 810 c 0
 278 768 272 730 266 642 c 0
 264 616 266 590 266 562 c 1
 268 562 364 576 390 584 c 0
 416 592 434 596 466 596 c 0
 486 596 512 586 512 568 c 0
 512 558 502 540 486 530 c 0
 448 506 313 486 266 480 c 1x8e
 266 386 l 2
 266 232 270 140 296 104 c 0
 318 72 356 72 380 72 c 0
 418 72 462 116 466 122 c 0
 470 128 470 134 480 134 c 0
 502 134 534 108 534 86 c 0
 534 74 508 46 498 38 c 0
 450 0 440 -14 356 -14 c 0
 228 -14 190 104 188 246 c 0
 188 288 182 382 182 460 c 1
 128 450 96 444 76 444 c 0xc6
 56 444 34 458 34 490 c 0
 34 522 50 542 82 542 c 0
 92 542 100 540 106 540 c 0xa6
EndSplineSet
EndChar
StartChar: Tbar
Encoding: 358 358 294
Width: 768
GlyphClass: 2
Flags: MW
HStem: 336 80 342 85<545 606> 828 91<517 587.5 517 587.5>
VStem: 429 88 432 88 443 86
LayerCount: 2
Fore
SplineSet
410 336 m 0xa4
 387 335 364 327 341 327 c 0
 323 327 299 334 294 354 c 0
 290 368 294 386 304 396 c 0
 318 410 342 406 362 410 c 0
 386 414 412 414 438 416 c 1
 438 429 438 442 438 454 c 0xb0
 436 516 434 576 432 638 c 0
 430 700 433 768 431 826 c 1
 416 825 401 825 386 824 c 0
 358 822 332 820 304 818 c 0
 266 816 228 814 190 814 c 0
 170 814 150 811 130 811 c 0
 120 811 110 812 100 814 c 0
 82 818 54 816 50 834 c 0
 46 850 66 862 80 872 c 0
 94 882 114 882 130 886 c 0
 236 906 344 906 452 912 c 0
 495 915 537 919 578 919 c 0
 597 919 615 918 634 916 c 0
 666 912 720 920 728 888 c 0
 732 870 702 858 686 850 c 0
 652 832 610 832 572 828 c 0
 567 827 563 827 559 827 c 0
 550 827 541 828 532 828 c 0
 527 828 522 828 517 828 c 1
 518 810 520 780 520 762 c 0
 522 706 520 652 522 596 c 0
 524 538 526 482 528 424 c 1
 553 426 578 427 603 427 c 0
 609 427 614 427 618 424 c 0x70
 630 418 644 408 646 394 c 0
 648 384 642 372 634 364 c 0
 619 349 570 342 548 342 c 0
 542 342 536 343 530 343 c 1
 530 316 530 289 530 262 c 0x64
 530 224 532 186 532 148 c 0
 532 104 540 60 530 16 c 0
 526 2 522 -16 512 -26 c 0
 504 -34 492 -38 482 -38 c 0
 472 -38 464 -34 458 -26 c 0
 440 -2 450 32 448 62 c 0
 446 96 446 128 446 162 c 2
 446 248 l 2
 446 276 446 306 444 334 c 0
 444 335 444 337 444 338 c 1
 433 337 422 337 410 336 c 0xa4
EndSplineSet
EndChar
StartChar: tbar
Encoding: 359 359 295
Width: 598
GlyphClass: 2
Flags: MW
HStem: 4 87<367 387.5> 385 81<134.5 180> 395 72<326 342 318 344.5> 548 76<326 390.5>
VStem: 176 82<466 516.5 627 640.5> 180 80<381.5 387>
LayerCount: 2
Fore
SplineSet
168 386 m 0xd4
 157 386 148 385 137 385 c 0
 132 385 127 385 122 386 c 0
 108 388 92 392 80 402 c 0x54
 70 410 58 420 62 432 c 0
 72 460 80 458 144 464 c 0
 156 465 168 466 180 466 c 1
 179 481 176 495 176 510 c 0x58
 176 523 177 535 178 548 c 1
 141 548 105 549 68 554 c 0
 52 556 34 568 34 584 c 0
 34 600 54 614 70 616 c 0
 104 622 130 624 160 626 c 0
 165 626 171 627 176 627 c 1
 176 654 176 720 178 746 c 0
 180 766 180 786 184 804 c 0
 188 820 190 838 202 848 c 0
 209 852 217 855 224 855 c 0
 229 855 233 854 236 852 c 0
 248 844 250 822 252 808 c 0
 257 748 258 687 258 626 c 1
 259 626 261 626 262 626 c 0
 306 626 340 624 384 624 c 0
 397 624 413 625 427 625 c 0
 438 625 447 625 452 622 c 0
 460 618 464 602 462 592 c 0
 460 578 450 564 438 556 c 0
 428 550 418 552 406 550 c 0
 384 548 362 548 340 548 c 0
 312 548 292 550 264 550 c 0
 263 550 261 550 260 550 c 0
 259 522 258 494 258 466 c 1
 283 467 306 467 330 467 c 0x38
 354 467 378 467 402 464 c 0
 430 460 462 464 482 444 c 0
 488 436 494 424 488 416 c 0
 474 396 455 391 428 391 c 0
 412 391 393 393 372 394 c 0
 361 395 350 395 339 395 c 0
 313 395 288 393 260 392 c 1
 260 371 260 351 262 330 c 0x34
 264 306 260 222 266 198 c 0
 272 172 276 142 294 122 c 0
 314 102 353 91 381 91 c 0
 409 91 437 99 464 104 c 0
 490 109 516 132 541 132 c 0
 546 132 550 131 554 130 c 0
 566 126 578 112 576 100 c 0
 568 52 498 36 452 20 c 0
 427 11 401 4 374 4 c 0
 323 4 261 32 228 70 c 0
 196 106 192 160 184 208 c 0
 176 247 180 345 180 387 c 1
 176 387 172 386 168 386 c 0xd4
EndSplineSet
EndChar
StartChar: Utilde
Encoding: 360 360 296
Width: 650
GlyphClass: 2
Flags: MW
HStem: -7 81<317 354 317 363.5> 891 20G<91.5 106 525 538> 1020 84<387 415 387 428.5> 1072 94<236 261.5>
VStem: 50 83<568 613 525.5 649.5> 526 78<491 600 491 651>
LayerCount: 2
Fore
SplineSet
198 1158 m 0xdc
 210 1164 224 1166 240 1166 c 0
 299 1166 371 1104 403 1104 c 0
 427 1104 449 1115 467 1129 c 0
 485 1143 501 1157 519 1157 c 0
 531 1157 551 1148 551 1126 c 0xec
 551 1058 457 1020 400 1020 c 0
 326 1020 281 1072 242 1072 c 0
 230 1072 215 1060 205 1051 c 0
 180 1026 137 980 106 980 c 0
 90 980 83 983 73 1001 c 0
 69 1009 67 1015 67 1019 c 0
 67 1034 179 1147 198 1158 c 0xdc
52 792 m 0xec
 52 848 56 882 61 893 c 0
 69 904 82 911 101 911 c 0
 111 911 120 907 123 903 c 0
 132 892 135 864 135 820 c 0
 135 744 133 650 133 576 c 0
 133 475 144 320 179 228 c 0
 191 197 204 170 232 141 c 0
 272 99 304 74 330 74 c 0
 378 74 426 115 472 189 c 0
 503 240 512 268 518 330 c 0
 525 406 526 410 526 534 c 0
 526 768 510 812 483 842 c 0
 480 847 474 851 474 859 c 0
 474 870 485 882 496 894 c 0
 505 905 518 911 532 911 c 0
 544 911 581 876 592 798 c 0
 602 699 604 662 604 538 c 0
 604 444 605 402 596 325 c 0
 587 252 581 219 538 142 c 0
 489 55 403 -7 324 -7 c 0
 264 -7 229 28 187 68 c 0
 151 103 125 144 102 200 c 0
 60 297 50 512 50 624 c 0
 50 675 52 742 52 792 c 0xec
EndSplineSet
EndChar
StartChar: Umacron
Encoding: 362 362 298
Width: 650
GlyphClass: 2
Flags: MW
HStem: -7 81<317 354 317 363.5> 891 20G<91.5 106 525 538> 1027 92<237 244.5 239 274>
VStem: 50 83<568 613 525.5 649.5> 526 78<491 600 491 651>
LayerCount: 2
Fore
SplineSet
153 1129 m 0
 161 1129 167 1127 175 1125 c 0
 183 1123 193 1119 201 1119 c 0
 205 1118 209 1118 213 1118 c 0
 221 1118 229 1119 237 1119 c 2
 341 1119 l 2
 361 1119 382 1121 402 1121 c 0
 409 1121 416 1121 422 1120 c 0
 440 1120 492 1110 493 1101 c 0
 497 1067 473 1049 428 1035 c 0
 406 1028 332 1027 274 1027 c 0
 262 1027 250 1027 239 1027 c 0
 224 1027 209 1025 194 1025 c 0
 165 1025 118 1042 115 1075 c 0
 113 1091 123 1107 133 1119 c 0
 139 1125 145 1129 153 1129 c 0
52 792 m 0
 52 848 56 882 61 893 c 0
 69 904 82 911 101 911 c 0
 111 911 120 907 123 903 c 0
 132 892 135 864 135 820 c 0
 135 744 133 650 133 576 c 0
 133 475 144 320 179 228 c 0
 191 197 204 170 232 141 c 0
 272 99 304 74 330 74 c 0
 378 74 426 115 472 189 c 0
 503 240 512 268 518 330 c 0
 525 406 526 410 526 534 c 0
 526 768 510 812 483 842 c 0
 480 847 474 851 474 859 c 0
 474 870 485 882 496 894 c 0
 505 905 518 911 532 911 c 0
 544 911 581 876 592 798 c 0
 602 699 604 662 604 538 c 0
 604 444 605 402 596 325 c 0
 587 252 581 219 538 142 c 0
 489 55 403 -7 324 -7 c 0
 264 -7 229 28 187 68 c 0
 151 103 125 144 102 200 c 0
 60 297 50 512 50 624 c 0
 50 675 52 742 52 792 c 0
EndSplineSet
EndChar
StartChar: Uring
Encoding: 366 366 302
Width: 650
GlyphClass: 2
Flags: MW
HStem: -7 81<317 354 317 363.5> 891 20G<91.5 106 525 538> 933 108<304 314.5 304 326.5>
VStem: 50 83<568 613 525.5 649.5> 185 110<1052 1107.5> 357 82<1097 1101> 526 78<491 600 491 651>
LayerCount: 2
Fore
SplineSet
331 1117 m 0
 329 1117 317 1107 305 1097 c 0
 301 1093 295 1087 293 1081 c 0
 295 1071 295 1065 295 1057 c 0
 295 1047 299 1041 309 1041 c 0
 320 1041 357 1082 357 1093 c 0
 357 1109 339 1117 331 1117 c 0
185 1079 m 0
 185 1136 246 1186 295 1201 c 0
 323 1207 341 1211 353 1211 c 0
 373 1211 389 1205 401 1193 c 0
 427 1171 439 1141 439 1109 c 0
 439 1085 429 1079 413 1041 c 0
 402 1012 344 933 309 933 c 0
 246 933 212 985 207 1043 c 1
 201 1045 185 1063 185 1079 c 0
52 792 m 0
 52 848 56 882 61 893 c 0
 69 904 82 911 101 911 c 0
 111 911 120 907 123 903 c 0
 132 892 135 864 135 820 c 0
 135 744 133 650 133 576 c 0
 133 475 144 320 179 228 c 0
 191 197 204 170 232 141 c 0
 272 99 304 74 330 74 c 0
 378 74 426 115 472 189 c 0
 503 240 512 268 518 330 c 0
 525 406 526 410 526 534 c 0
 526 768 510 812 483 842 c 0
 480 847 474 851 474 859 c 0
 474 870 485 882 496 894 c 0
 505 905 518 911 532 911 c 0
 544 911 581 876 592 798 c 0
 602 699 604 662 604 538 c 0
 604 444 605 402 596 325 c 0
 587 252 581 219 538 142 c 0
 489 55 403 -7 324 -7 c 0
 264 -7 229 28 187 68 c 0
 151 103 125 144 102 200 c 0
 60 297 50 512 50 624 c 0
 50 675 52 742 52 792 c 0
EndSplineSet
EndChar
StartChar: Uhungarumlaut
Encoding: 368 368 304
Width: 650
GlyphClass: 2
Flags: MW
HStem: -7 81<327 364 327 373.5> 891 20G<101.5 116 535 548>
VStem: 60 83<568 613 525.5 649.5> 536 78<491 600 491 651>
LayerCount: 2
Fore
SplineSet
438 1116 m 0
 416 1140 411 1155 423 1172 c 0
 435 1191 483 1247 515 1277 c 0
 548 1310 590 1330 616 1330 c 0
 627 1330 635 1327 639 1320 c 0
 651 1296 646 1284 586 1223 c 0
 554 1189 523 1152 517 1140 c 0
 503 1114 487 1100 470 1100 c 0
 459 1100 448 1106 438 1116 c 0
197 1063 m 0
 178 1077 177 1101 190 1143 c 0
 216 1226 294 1308 350 1308 c 0
 374 1308 387 1296 387 1274 c 0
 387 1257 372 1238 331 1211 c 0
 304 1192 272 1143 260 1102 c 0
 255 1084 248 1065 245 1061 c 0
 242 1056 235 1054 227 1054 c 0
 217 1054 205 1058 197 1063 c 0
62 792 m 0
 62 848 66 882 71 893 c 0
 79 904 92 911 111 911 c 0
 121 911 130 907 133 903 c 0
 142 892 145 864 145 820 c 0
 145 744 143 650 143 576 c 0
 143 475 154 320 189 228 c 0
 201 197 214 170 242 141 c 0
 282 99 314 74 340 74 c 0
 388 74 436 115 482 189 c 0
 513 240 522 268 528 330 c 0
 535 406 536 410 536 534 c 0
 536 768 520 812 493 842 c 0
 490 847 484 851 484 859 c 0
 484 870 495 882 506 894 c 0
 515 905 528 911 542 911 c 0
 554 911 591 876 602 798 c 0
 612 699 614 662 614 538 c 0
 614 444 615 402 606 325 c 0
 597 252 591 219 548 142 c 0
 499 55 413 -7 334 -7 c 0
 274 -7 239 28 197 68 c 0
 161 103 135 144 112 200 c 0
 70 297 60 512 60 624 c 0
 60 675 62 742 62 792 c 0
EndSplineSet
EndChar
StartChar: Uogonek
Encoding: 370 370 306
Width: 748
GlyphClass: 2
Flags: MW
HStem: -327 85<549 597> -24 94<318 322> -13 21G
VStem: 51 78 56 78 367 16 372 16 597 78 602 78<521.5 588.5>
LayerCount: 2
Fore
SplineSet
388 -13 m 1xaa80
 359 -19 334 -24 310 -24 c 0
 294 -24 278 -22 262 -17 c 0
 192 -2 153 41 122 98 c 0
 74 186 67 278 59 386 c 0
 51 496 60 620 72 714 c 0
 78 762 104 858 138 858 c 0
 166 858 180 841 180 814 c 0
 180 796 164 762 158 736 c 0
 152 708 144 680 140 652 c 0
 134 600 133 546 134 494 c 0
 140 228 168 124 251 82 c 0
 270 72 298 72 318 70 c 0
 399 70 466 100 514 166 c 0xd5
 578 254 602 358 602 560 c 0
 602 617 591 671 588 726 c 2
 582 828 l 2
 578 891 552 971 612 976 c 0
 639 976 651 951 658 928 c 0
 662 912 660 862 662 828 c 0
 666 746 680 662 680 580 c 0
 680 463 682 346 648 254 c 0
 618 170 590 107 513 40 c 0
 503 31 493 24 482 18 c 1
 463 -32 448 -74 453 -122 c 0
 462 -201 510 -242 588 -242 c 0
 612 -242 637 -237 661 -230 c 0
 680 -225 699 -221 714 -221 c 0
 728 -221 739 -224 743 -232 c 0
 753 -248 737 -270 717 -282 c 0
 668 -314 619 -327 575 -327 c 0
 482 -327 411 -277 381 -187 c 0
 365 -132 372 -61 388 -13 c 1xaa80
EndSplineSet
EndChar
StartChar: uogonek
Encoding: 371 371 307
Width: 651
GlyphClass: 2
Flags: MW
HStem: -318 85<543.5 566.5 523.5 573.5> 37 81<243 282 243 317.5> 521 20G<504 542> 524 20G<138 156>
VStem: 67 74<280 327.5 280 344.5> 396 80<-183 -138.5 -183 -121>
LayerCount: 2
Fore
SplineSet
506 -312 m 0xdc
 479 -307 456 -287 436 -269 c 0
 399 -238 396 -214 396 -168 c 0
 396 -74 442 2 498 74 c 1
 491 105 486 207 482 230 c 1
 441 159 365 37 270 37 c 0
 113 37 67 177 67 312 c 0
 67 377 69 449 101 505 c 0
 112 523 128 544 148 544 c 0
 164 544 174 516 174 496 c 0xdc
 174 480 156 454 152 433 c 0
 143 391 141 348 141 307 c 0
 141 253 157 198 184 162 c 0
 202 136 222 118 264 118 c 0
 300 118 318 135 337 154 c 0
 399 214 435 300 454 385 c 0
 474 473 479 541 529 541 c 0
 555 541 561 513 560 486 c 0xec
 555 365 561 227 573 115 c 0
 575 103 579 94 579 76 c 0
 579 56 570 33 566 24 c 0
 559 7 562 19 526 -28 c 0
 502 -60 476 -113 476 -164 c 0
 476 -202 494 -233 553 -233 c 0
 580 -233 600 -221 634 -213 c 0
 651 -210 672 -206 690 -206 c 0
 711 -206 727 -211 727 -228 c 0
 727 -280 596 -318 551 -318 c 0
 536 -318 521 -316 506 -312 c 0xdc
EndSplineSet
EndChar
StartChar: Uhorn
Encoding: 577 431 321
Width: 814
VWidth: 1000
GlyphClass: 4
Flags: HMW
AnchorPoint: "acute" 309 968 basechar 0
AnchorPoint: "ogonek" 406 76 basechar 0
AnchorPoint: "cedilla" 332 32 basechar 0
LayerCount: 2
Fore
SplineSet
684 1089 m 0
 702 1089 725 1075 735 1058 c 0
 746.309018471 1037.26679947 761.170645242 950.810345397 761.170645242 912.464090945 c 0
 761.170645242 910.121133103 761.115163588 907.957780998 761 906 c 0
 760 892 758 856 757 826 c 0
 754 752 735 677 702 608 c 0
 670 541 647 523 637 518 c 0
 631 515 617 514 607 514 c 1
 607 502 600 447 596 437 c 0
 593 427 590 408 590 395 c 0
 590 364 581 326 571 309 c 0
 566 301 562 286 562 276 c 0
 562 266 559 250 556 242 c 0
 552 234 547 219 544 209 c 0
 539 192 511 149 494 129 c 0
 490 125 478 112 468 99 c 0
 445 71 397 32 369 20 c 0
 355 13 333 10 313 10 c 0
 296 10 281 12 271 16 c 0
 263 20 254 27 251 32 c 0
 247 36 239 43 233 46 c 0
 208 60 182 85 167 113 c 0
 158 129 149 143 147 144 c 0
 145 146 139 157 135 169 c 0
 131 181 124 196 120 203 c 0
 117 210 111 228 109 244 c 0
 106 260 102 275 100 278 c 0
 95 284 74 486 74 503 c 0
 74 509 73 570 73 638 c 0
 73 735 71 767 65 787 c 0
 59.1200480384 809.049819856 56.1212489994 820.055220175 56.1212489994 827.545552416 c 0
 56.1212489994 835.34173739 59.3699479584 839.329931946 66 848 c 0
 76 862 80 864 98 864 c 0
 137.54058454 864 153.91883092 847.786363289 153.91883092 805.861361375 c 0
 153.91883092 800.072726577 153.606601718 793.793939239 153 787 c 0
 152.37107676 780.867998409 152.112976434 774.983212093 152.112976434 769.147404778 c 0
 152.112976434 742.422969366 157.525549131 716.725663214 157.525549131 673.018161666 c 0
 157.525549131 665.566976749 157.368244154 657.592363599 157 649 c 0
 156 623 153 582 152 557 c 0
 151.061120723 545.733448674 150.397708414 531.271480521 150.397708414 514.196013553 c 0
 150.397708414 458.523184193 157.449913495 375.068341504 185 284 c 0
 204 217 199 200 232 152 c 0
 259 112 283 92 313 92 c 0
 333 92 356 102 385 119 c 0
 423 141 416 149 466 222 c 0
 492 260 522 405 524 500 c 0
 524 528 524 567 527 588 c 0
 528 598 528.5 613.75 528.5 630.875 c 0
 528.5 648 528 666.5 527 682 c 0
 525 734 529 738 517 756 c 0
 505.496575182 772.616058071 500.527905057 782.288939279 500.527905057 793.110080567 c 0
 500.527905057 799.221335175 502.112633253 805.698820601 505 814 c 0
 508 824 512 844 512 857 c 0
 512 885 534 900 553 904 c 0
 556 905 560 905 563 905 c 0
 579 905 593 897 601 881 c 0
 605.561679659 872.528309206 607.150656273 865.755305865 607.150656273 852.655376688 c 0
 607.150656273 845.653170007 606.696662955 836.84327023 606 825 c 0
 602.593413823 779.011086611 600.798609505 714.325503663 600.798609505 665.717518553 c 0
 600.798609505 628.712548198 601.838821814 601.02564946 604 598 c 0
 607 595 610 593 612 593 c 0
 624 593 653 690 657 704 c 0
 666 736 678 779 678 822 c 0
 678 838.666666667 678.888888889 860.222222222 678.888888889 880.148148148 c 0
 678.888888889 890.111111111 678.666666667 899.666666667 678 908 c 0
 676 954 668 984 659 984 c 0
 651 984 640 1010 639 1032 c 0
 638.866169459 1034.40894974 638.786070759 1036.5671509 638.786070759 1038.53932211 c 0
 638.786070759 1051.30348231 642.141288662 1056.2751192 656 1071 c 0
 666 1081 678 1089 684 1089 c 0
EndSplineSet
Validated: 1
EndChar
StartChar: uni01D3
Encoding: 467 467 329
Width: 650
GlyphClass: 2
Flags: MW
HStem: -7 81<317 354 317 363.5> 891 20G<91.5 106 525 538>
VStem: 50 83<568 613 525.5 649.5> 526 78<491 600 491 651>
LayerCount: 2
Fore
SplineSet
309 1011 m 0
 273 1011 260 1031 236 1063 c 0
 220 1084 179 1139 167 1157 c 0
 150 1183 139 1199 139 1211 c 0
 139 1227 143 1238 151 1245 c 0
 158 1250 167 1255 181 1255 c 0
 201 1255 216 1234 232 1210 c 0
 247 1187 267 1158 284 1137 c 0
 296 1122 307 1110 311 1104 c 1
 335 1133 353 1152 384 1194 c 0
 416 1236 429 1257 453 1257 c 0
 478 1257 485 1237 485 1215 c 0
 485 1179 459 1157 445 1139 c 0
 413 1097 417 1105 365 1041 c 0
 350 1022 345 1011 309 1011 c 0
52 792 m 0
 52 848 56 882 61 893 c 0
 69 904 82 911 101 911 c 0
 111 911 120 907 123 903 c 0
 132 892 135 864 135 820 c 0
 135 744 133 650 133 576 c 0
 133 475 144 320 179 228 c 0
 191 197 204 170 232 141 c 0
 272 99 304 74 330 74 c 0
 378 74 426 115 472 189 c 0
 503 240 512 268 518 330 c 0
 525 406 526 410 526 534 c 0
 526 768 510 812 483 842 c 0
 480 847 474 851 474 859 c 0
 474 870 485 882 496 894 c 0
 505 905 518 911 532 911 c 0
 544 911 581 876 592 798 c 0
 602 699 604 662 604 538 c 0
 604 444 605 402 596 325 c 0
 587 252 581 219 538 142 c 0
 489 55 403 -7 324 -7 c 0
 264 -7 229 28 187 68 c 0
 151 103 125 144 102 200 c 0
 60 297 50 512 50 624 c 0
 50 675 52 742 52 792 c 0
EndSplineSet
EndChar
StartChar: uni01D5
Encoding: 469 469 331
Width: 650
GlyphClass: 2
Flags: MW
HStem: -7 81<317 354 317 363.5> 891 20G<91.5 106 525 538> 1328 92<272 279.5 274 309>
VStem: 50 83<568 613 525.5 649.5> 105 132 526 78<491 600 491 651>
LayerCount: 2
Fore
SplineSet
188 1430 m 0xf4
 196 1430 202 1428 210 1426 c 0
 218 1424 228 1420 236 1420 c 0
 240 1419 244 1419 248 1419 c 0
 256 1419 264 1420 272 1420 c 2
 376 1420 l 2
 396 1420 417 1422 437 1422 c 0
 444 1422 451 1422 457 1421 c 0
 474 1421 527 1411 528 1402 c 0
 532 1368 508 1351 463 1336 c 0
 441 1329 367 1328 309 1328 c 0
 297 1328 285 1328 274 1328 c 0
 259 1328 244 1326 229 1326 c 0
 200 1326 153 1343 150 1376 c 0
 148 1392 158 1408 168 1420 c 0
 174 1426 180 1430 188 1430 c 0xf4
111 1159 m 0xec
 117 1167 131 1175 135 1175 c 0
 139 1175 153 1175 167 1165 c 0
 179 1157 191 1127 217 1107 c 0
 231 1097 237 1079 237 1057 c 0
 237 1051 235 1047 233 1041 c 0
 231 1037 225 1035 219 1035 c 0
 171 1035 142 1064 115 1099 c 0
 99 1121 105 1149 111 1159 c 0xec
399 1173 m 0
 433 1173 439 1165 467 1129 c 0
 483 1109 497 1105 497 1081 c 0
 497 1049 489 1037 465 1037 c 0
 451 1037 415 1069 395 1089 c 0
 377 1109 365 1125 365 1145 c 0
 365 1165 379 1173 399 1173 c 0
52 792 m 0xf4
 52 848 56 882 61 893 c 0
 69 904 82 911 101 911 c 0
 111 911 120 907 123 903 c 0
 132 892 135 864 135 820 c 0
 135 744 133 650 133 576 c 0
 133 475 144 320 179 228 c 0
 191 197 204 170 232 141 c 0
 272 99 304 74 330 74 c 0
 378 74 426 115 472 189 c 0
 503 240 512 268 518 330 c 0
 525 406 526 410 526 534 c 0
 526 768 510 812 483 842 c 0
 480 847 474 851 474 859 c 0
 474 870 485 882 496 894 c 0
 505 905 518 911 532 911 c 0
 544 911 581 876 592 798 c 0
 602 699 604 662 604 538 c 0
 604 444 605 402 596 325 c 0
 587 252 581 219 538 142 c 0
 489 55 403 -7 324 -7 c 0
 264 -7 229 28 187 68 c 0
 151 103 125 144 102 200 c 0
 60 297 50 512 50 624 c 0
 50 675 52 742 52 792 c 0xf4
EndSplineSet
EndChar
StartChar: uni01DA
Encoding: 474 474 336
Width: 560
GlyphClass: 2
Flags: MW
HStem: -2 88<189.5 222 189.5 246> 520 20G<78 92> 530 20G<428 456.5>
VStem: 46 82<317 367> 72 132 386 82 404 80
LayerCount: 2
Fore
SplineSet
292 950 m 0xb4
 256 950 243 970 219 1002 c 0
 203 1023 162 1078 150 1096 c 0
 133 1122 122 1138 122 1150 c 0
 122 1178 136 1194 164 1194 c 0
 184 1194 199 1173 215 1149 c 0
 230 1126 250 1097 267 1076 c 0
 279 1061 290 1049 294 1043 c 1
 318 1072 335 1092 367 1133 c 0
 399 1175 412 1196 436 1196 c 0
 461 1196 468 1176 468 1154 c 0
 468 1118 442 1096 428 1078 c 0
 396 1036 400 1044 348 980 c 0
 333 961 328 950 292 950 c 0xb4
78 782 m 0xac
 84 790 98 798 102 798 c 0
 106 798 120 798 134 788 c 0
 146 780 158 750 184 730 c 0
 198 720 204 702 204 680 c 0
 204 674 202 670 200 664 c 0
 198 660 192 658 186 658 c 0
 138 658 109 687 82 722 c 0
 66 744 72 772 78 782 c 0xac
366 796 m 0
 400 796 406 788 434 752 c 0
 450 732 464 728 464 704 c 0
 464 672 456 660 432 660 c 0
 418 660 382 692 362 712 c 0
 344 732 332 748 332 768 c 0
 332 788 346 796 366 796 c 0
266 114 m 0
 296 148 355 305 372 354 c 0
 398 426 402 474 404 502 c 0
 406 530 406 544 408 546 c 0
 410 548 420 550 436 550 c 0
 477 550 484 515 484 482 c 0xb2
 484 454 480 418 476 374 c 0
 470 320 468 268 468 168 c 0
 468 124 474 86 490 86 c 0
 504 86 518 100 528 100 c 0
 542 100 546 84 546 62 c 0
 546 16 498 2 466 2 c 0
 450 2 436 6 426 16 c 0
 396 40 392 116 386 170 c 1
 332 36 276 -2 216 -2 c 0
 55 -2 46 225 46 340 c 0
 46 394 50 482 62 528 c 0
 66 540 72 540 84 540 c 0
 100 540 134 532 134 522 c 0
 136 476 128 406 128 360 c 0
 128 274 133 226 140 192 c 0
 148 154 165 86 214 86 c 0xd4
 230 86 250 96 266 114 c 0
EndSplineSet
EndChar
StartChar: uni01E1
Encoding: 481 481 343
Width: 533
GlyphClass: 2
Flags: MW
HStem: -12 86<206 233> -6 21G<408 424> 230 84<260 291> 462 90<266 290 266 299> 832 92<157 164.5 159 194> 914 20G<69 77>
VStem: 54 94 56 94<87 104 87 124> 386 80 402 80 404 80<299 332>
LayerCount: 2
Fore
SplineSet
73 934 m 0xbd20
 81 934 87 932 95 930 c 0
 103 928 113 924 121 924 c 0
 125 923 129 923 133 923 c 0
 141 923 149 924 157 924 c 2
 261 924 l 2
 281 924 302 926 322 926 c 0
 329 926 336 926 342 925 c 0
 359 925 412 915 413 906 c 0
 417 872 393 855 348 840 c 0
 326 833 252 832 194 832 c 0
 182 832 170 832 159 832 c 0
 144 832 129 830 114 830 c 0
 85 830 38 847 35 880 c 0
 33 896 43 912 53 924 c 0
 59 930 65 934 73 934 c 0xbd20
186 766 m 0
 186 782 206 800 224 800 c 0
 248 800 264 792 270 784 c 0
 278 774 294 762 308 752 c 0
 326 740 332 726 332 696 c 0
 332 674 298 660 276 660 c 0
 246 660 228 680 214 698 c 0
 198 716 186 734 186 766 c 0
274 230 m 0
 246 230 208 196 186 170 c 0
 168 148 150 110 150 98 c 0
 150 76 176 74 236 74 c 0
 287 74 340 93 380 124 c 1
 380 140 376 162 366 182 c 0
 356 206 308 230 274 230 c 0
224 548 m 0
 242 550 258 552 274 552 c 0
 306 552 322 550 356 538 c 0
 396 520 406 518 428 498 c 0
 480 446 484 367 484 298 c 0xbe40
 484 216 468 116 468 52 c 0
 468 38 464 18 460 12 c 0
 456 6 432 -6 416 -6 c 0
 400 -6 392 10 388 28 c 1x7e80
 340 2 266 -12 200 -12 c 0
 162 -12 116 -8 102 0 c 0
 84 10 56 74 56 96 c 0
 56 152 86 192 120 228 c 0
 158 268 200 314 296 314 c 0
 338 314 380 290 402 264 c 1
 402 282 404 290 404 308 c 0
 404 356 402 386 392 404 c 0
 378 438 324 462 274 462 c 0
 202 462 162 448 126 416 c 0
 100 394 102 368 62 368 c 0
 52 368 42 376 42 404 c 0
 42 422 44 434 50 444 c 0
 92 508 138 538 224 548 c 0
EndSplineSet
EndChar
StartChar: uni01EC
Encoding: 492 492 352
Width: 756
GlyphClass: 2
Flags: MW
HStem: -354 106<489 529 489 536.5> -12 88<328 355.5> 822 82<441 479 414 519> 996 92<300 307.5 302 337>
VStem: 56 84<402 456.5 402 467> 340 94<-189 -153> 626 76<405 472>
LayerCount: 2
Fore
SplineSet
216 1098 m 0
 224 1098 230 1096 238 1094 c 0
 246 1092 256 1088 264 1088 c 0
 268 1087 272 1087 276 1087 c 0
 284 1087 292 1088 300 1088 c 2
 404 1088 l 2
 424 1088 445 1090 465 1090 c 0
 472 1090 479 1090 485 1089 c 0
 502 1089 555 1079 556 1070 c 0
 560 1036 536 1019 491 1004 c 0
 469 997 395 996 337 996 c 0
 325 996 313 996 302 996 c 0
 287 996 272 994 257 994 c 0
 228 994 181 1011 178 1044 c 0
 176 1060 186 1076 196 1088 c 0
 202 1094 208 1098 216 1098 c 0
182 892 m 0
 206 892 266 856 276 842 c 1
 328 880 376 904 452 904 c 0
 506 904 546 892 578 858 c 0
 624 808 624 790 656 724 c 0
 686 664 702 570 702 444 c 0
 702 366 694 310 682 280 c 0
 651 207 603 130 543 76 c 1
 547 66 546 52 540 42 c 0
 530 24 524 20 484 -32 c 0
 458 -68 434 -120 434 -176 c 0
 434 -202 464 -248 514 -248 c 0
 544 -248 566 -246 604 -238 c 0
 623 -234 647 -230 667 -230 c 0
 690 -230 708 -236 708 -254 c 0
 708 -313 562 -354 511 -354 c 0
 455 -354 425 -338 384 -300 c 0
 344 -266 340 -239 340 -188 c 0
 340 -118 360 -63 395 -4 c 1
 377 -9 361 -12 350 -12 c 0
 240 -12 165 51 118 144 c 0
 88 198 90 206 80 258 c 0
 74 290 56 322 56 398 c 0
 56 536 74 626 84 676 c 0
 100 746 92 804 128 856 c 0
 144 880 162 892 182 892 c 0
564 214 m 0
 596 268 626 340 626 420 c 0
 626 524 624 562 616 598 c 0
 596 694 578 822 460 822 c 0
 422 822 392 814 370 804 c 0
 309 773 215 658 186 596 c 0
 176 578 166 572 156 572 c 1
 151 559 140 463 140 450 c 0
 140 354 136 334 164 252 c 0
 174 220 188 194 198 176 c 0
 246 104 290 76 366 76 c 0
 396 76 440 96 456 106 c 0
 514 148 542 178 564 214 c 0
218 780 m 1
 214 782 200 790 196 790 c 0
 186 790 176 738 176 724 c 1
 176 724 208 770 218 780 c 1
EndSplineSet
EndChar
StartChar: uni0228
Encoding: 552 552 374
Width: 682
GlyphClass: 2
Flags: MW
HStem: -292 84<257 294 257 337> -3 82<193.5 288> 407 79<304 344.5 298 370> 796 93 889 20G
VStem: 99 78 404 90<-130 -117>
LayerCount: 2
Fore
SplineSet
177 250 m 0xec
 177 186 179 137 200 103 c 0
 214 80 231 79 269 79 c 0
 275 79 281 79 288 79 c 0
 320 79 344 81 360 84 c 0
 364 85 368 86 372 87 c 0
 448 111 531 123 610 123 c 0
 622 123 629 122 629 110 c 0
 629 75 577 49 549 43 c 0
 533 40 513 39 499 35 c 0
 471 29 448 23 429 19 c 1
 436 6 444 -6 452 -18 c 0
 484 -72 494 -74 494 -142 c 0
 494 -212 390 -292 284 -292 c 0
 224 -292 158 -260 158 -234 c 0
 158 -216 176 -192 192 -192 c 0
 198 -192 206 -196 218 -200 c 0
 230 -206 246 -208 268 -208 c 0
 320 -208 358 -194 382 -166 c 0
 396 -148 404 -134 404 -126 c 0
 404 -108 382 -66 362 -46 c 0
 346 -30 336 -14 330 4 c 1
 287 1 244 -3 220 -3 c 0
 167 -3 113 49 101 113 c 0
 92 161 99 296 99 442 c 0
 99 519 92 718 83 792 c 0
 81 792 79 792 78 792 c 0
 65 792 51 793 42 804 c 0
 33 817 31 829 31 838 c 0
 31 848 44 860 58 865 c 0
 70 871 75 877 82 881 c 1
 83 881 l 1
 111 887 129 889 224 889 c 0xf6
 360 889 456 891 491 901 c 0
 500 903 508 909 518 909 c 0
 532 909 551 907 575 901 c 0
 585 899 589 896 589 882 c 0
 589 852 579 841 539 828 c 0xec
 486 812 358 806 298 802 c 0
 260 800 232 798 171 796 c 1
 173 767 177 741 177 710 c 2xf4
 177 604 l 2
 177 568 179 529 179 495 c 1
 236 490 275 486 321 486 c 0
 368 486 422 490 511 501 c 0
 528 503 535 504 544 505 c 0
 554 505 569 486 569 468 c 0
 569 456 558 443 531 437 c 0
 484 432 410 407 330 407 c 0
 278 407 222 408 179 412 c 1
 179 368 177 306 177 250 c 0xec
EndSplineSet
EndChar
StartChar: uni0229
Encoding: 553 553 375
Width: 509
GlyphClass: 2
Flags: MW
HStem: -328 84<167 204 167 247> -17 21G -11 21G 468 92<236 259 216 269>
VStem: 41 93<312 326.5> 314 90<-166 -153>
LayerCount: 2
Fore
SplineSet
154 533 m 0
 172 548 202 560 230 560 c 0
 288 560 350 524 394 484 c 0
 432 448 458 422 458 380 c 0
 458 356 424 330 394 312 c 0
 380 302 326 276 302 266 c 0
 248 248 188 228 136 212 c 1
 140 160 158 114 182 90 c 0
 198 74 228 62 288 62 c 0
 316 62 354 86 370 100 c 0
 380 110 416 126 436 126 c 0
 452 126 470 112 470 98 c 0
 470 76 418 44 404 32 c 0
 378 10 359 -4 336 -11 c 1
 344 -27 353 -40 362 -54 c 0
 394 -108 404 -110 404 -178 c 0
 404 -248 300 -328 194 -328 c 0
 134 -328 68 -296 68 -270 c 0
 68 -252 86 -228 102 -228 c 0
 108 -228 116 -232 128 -236 c 0
 140 -242 156 -244 178 -244 c 0
 230 -244 268 -230 292 -202 c 0
 306 -184 314 -170 314 -162 c 0
 314 -144 292 -102 272 -82 c 0
 254 -64 241 -43 237 -17 c 1
 180 -14 145 -4 120 22 c 0
 62 84 41 146 41 250 c 0
 41 403 78 469 154 533 c 0
134 312 m 1
 206 327 304 353 366 388 c 1
 335 423 294 468 244 468 c 0
 228 468 212 462 200 452 c 0
 170 432 134 358 134 312 c 1
EndSplineSet
EndChar
StartChar: uni022B
Encoding: 555 555 377
Width: 528
GlyphClass: 2
Flags: MW
HStem: -10 81<230 249 230 265.5> 463 81<261 328> 946 92<208 215.5 210 245>
VStem: 46 88<267 289 232 349> 62 132 412 78<300 342>
LayerCount: 2
Fore
SplineSet
124 1048 m 0xec
 132 1048 138 1046 146 1044 c 0
 154 1042 164 1038 172 1038 c 0
 176 1037 180 1037 184 1037 c 0
 192 1037 200 1038 208 1038 c 2
 312 1038 l 2
 332 1038 353 1040 373 1040 c 0
 380 1040 387 1040 393 1039 c 0
 410 1039 463 1029 464 1020 c 0
 468 986 444 969 399 954 c 0
 377 947 303 946 245 946 c 0
 233 946 221 946 210 946 c 0
 195 946 180 944 165 944 c 0
 136 944 89 961 86 994 c 0
 84 1010 94 1026 104 1038 c 0
 110 1044 116 1048 124 1048 c 0xec
68 764 m 0
 74 772 88 780 92 780 c 0
 96 780 110 780 124 770 c 0
 136 762 148 732 174 712 c 0
 188 702 194 684 194 662 c 0
 194 656 192 652 190 646 c 0
 188 642 182 640 176 640 c 0
 128 640 99 669 72 704 c 0
 56 726 62 754 68 764 c 0
356 778 m 0
 390 778 396 770 424 734 c 0
 440 714 454 710 454 686 c 0
 454 654 446 642 422 642 c 0
 408 642 372 674 352 694 c 0
 334 714 322 730 322 750 c 0
 322 770 336 778 356 778 c 0
394 417 m 0
 362 453 354 463 302 463 c 0
 220 463 180 439 148 367 c 0
 138 347 134 307 134 271 c 0xf4
 134 193 152 147 188 105 c 0
 208 81 222 71 238 71 c 0
 260 71 286 91 322 123 c 0
 362 157 388 189 400 217 c 0
 410 235 412 281 412 319 c 0
 412 365 404 405 394 417 c 0
286 544 m 0
 446 544 490 484 490 324 c 0
 490 276 489 221 471 182 c 0
 457 152 419 98 372 57 c 0
 327 18 292 -10 239 -10 c 0
 178 -10 121 33 87 97 c 0
 69 129 46 212 46 322 c 0
 46 376 62 416 90 448 c 0
 142 508 184 544 286 544 c 0
EndSplineSet
EndChar
StartChar: uni022C
Encoding: 556 556 378
Width: 756
GlyphClass: 2
Flags: MW
HStem: -12 88<328 365> 822 82<441 479 414 519> 990 83<444 472 444 486> 1041 94<293 318.5> 1354 92<334 341.5 336 371>
VStem: 56 84<402 456.5 402 467> 626 76<405 472>
LayerCount: 2
Fore
SplineSet
250 1456 m 0xde
 258 1456 264 1454 272 1452 c 0
 280 1450 290 1446 298 1446 c 0
 302 1445 306 1445 310 1445 c 0
 318 1445 326 1446 334 1446 c 2
 438 1446 l 2
 458 1446 479 1448 499 1448 c 0
 506 1448 513 1448 519 1447 c 0
 536 1447 589 1437 590 1428 c 0
 594 1394 570 1377 525 1362 c 0
 503 1355 429 1354 371 1354 c 0
 359 1354 347 1354 336 1354 c 0
 321 1354 306 1352 291 1352 c 0
 262 1352 215 1369 212 1402 c 0
 210 1418 220 1434 230 1446 c 0
 236 1452 242 1456 250 1456 c 0xde
255 1127 m 0
 267 1134 281 1135 297 1135 c 0xde
 356 1135 428 1073 460 1073 c 0
 484 1073 506 1084 524 1098 c 0
 542 1112 558 1126 576 1126 c 0
 588 1126 608 1117 608 1095 c 0
 608 1026 515 990 457 990 c 0xee
 383 990 338 1041 299 1041 c 0
 287 1041 272 1030 262 1020 c 0
 237 995 194 949 163 949 c 0
 147 949 140 952 130 970 c 0
 126 978 124 984 124 988 c 0
 124 1003 236 1116 255 1127 c 0
218 780 m 1
 214 782 200 790 196 790 c 0
 186 790 176 738 176 724 c 1
 176 724 208 770 218 780 c 1
564 214 m 0
 596 268 626 340 626 420 c 0
 626 524 624 562 616 598 c 0
 596 694 578 822 460 822 c 0
 422 822 392 814 370 804 c 0
 309 773 215 658 186 596 c 0
 176 578 166 572 156 572 c 1
 151 559 140 463 140 450 c 0
 140 354 136 334 164 252 c 0
 174 220 188 194 198 176 c 0
 246 104 290 76 366 76 c 0
 396 76 440 96 456 106 c 0
 514 148 542 178 564 214 c 0
182 892 m 0
 206 892 266 856 276 842 c 1
 328 880 376 904 452 904 c 0
 506 904 546 892 578 858 c 0
 624 808 624 790 656 724 c 0
 686 664 702 570 702 444 c 0
 702 366 694 310 682 280 c 0
 642 187 582 98 496 42 c 0
 446 8 380 -12 350 -12 c 0
 240 -12 165 51 118 144 c 0
 88 198 90 206 80 258 c 0
 74 290 56 322 56 398 c 0
 56 536 74 626 84 676 c 0
 100 746 92 804 128 856 c 0
 144 880 162 892 182 892 c 0
EndSplineSet
EndChar
StartChar: uni0230
Encoding: 560 560 382
Width: 756
GlyphClass: 2
Flags: MW
HStem: -12 88<328 365> 822 82<441 479 414 519> 1176 92<267 274.5 269 304>
VStem: 56 84<402 456.5 402 467> 626 76<405 472>
LayerCount: 2
Fore
SplineSet
183 1278 m 0
 191 1278 197 1276 205 1274 c 0
 213 1272 223 1268 231 1268 c 0
 235 1267 239 1267 243 1267 c 0
 251 1267 259 1268 267 1268 c 2
 371 1268 l 2
 391 1268 412 1270 432 1270 c 0
 439 1270 446 1270 452 1269 c 0
 469 1269 522 1259 523 1250 c 0
 527 1216 503 1199 458 1184 c 0
 436 1177 362 1176 304 1176 c 0
 292 1176 280 1176 269 1176 c 0
 254 1176 239 1174 224 1174 c 0
 195 1174 148 1191 145 1224 c 0
 143 1240 153 1256 163 1268 c 0
 169 1274 175 1278 183 1278 c 0
296 1110 m 0
 296 1126 316 1144 334 1144 c 0
 358 1144 374 1136 380 1128 c 0
 388 1118 404 1106 418 1096 c 0
 436 1084 442 1070 442 1040 c 0
 442 1018 408 1004 386 1004 c 0
 356 1004 338 1024 324 1042 c 0
 308 1060 296 1078 296 1110 c 0
218 780 m 1
 214 782 200 790 196 790 c 0
 186 790 176 738 176 724 c 1
 176 724 208 770 218 780 c 1
564 214 m 0
 596 268 626 340 626 420 c 0
 626 524 624 562 616 598 c 0
 596 694 578 822 460 822 c 0
 422 822 392 814 370 804 c 0
 309 773 215 658 186 596 c 0
 176 578 166 572 156 572 c 1
 151 559 140 463 140 450 c 0
 140 354 136 334 164 252 c 0
 174 220 188 194 198 176 c 0
 246 104 290 76 366 76 c 0
 396 76 440 96 456 106 c 0
 514 148 542 178 564 214 c 0
182 892 m 0
 206 892 266 856 276 842 c 1
 328 880 376 904 452 904 c 0
 506 904 546 892 578 858 c 0
 624 808 624 790 656 724 c 0
 686 664 702 570 702 444 c 0
 702 366 694 310 682 280 c 0
 642 187 582 98 496 42 c 0
 446 8 380 -12 350 -12 c 0
 240 -12 165 51 118 144 c 0
 88 198 90 206 80 258 c 0
 74 290 56 322 56 398 c 0
 56 536 74 626 84 676 c 0
 100 746 92 804 128 856 c 0
 144 880 162 892 182 892 c 0
EndSplineSet
EndChar
StartChar: uni0251
Encoding: 593 593 388
Width: 578
GlyphClass: 4
Flags: MW
HStem: 16 90<181.5 193 181.5 198.5> 432 86<238 280.5>
VStem: 54 83<259 292.5 259 319> 419 84
AnchorPoint: "acute" 292 574 basechar 0
AnchorPoint: "ogonek" 516 48 basechar 0
AnchorPoint: "cedilla" 300 30 basechar 0
LayerCount: 2
Fore
SplineSet
253 432 m 0
 223 432 191 421 167 381 c 0
 151 354 137 307 137 278 c 0
 137 240 140 197 151 164 c 0
 158 141 177 106 186 106 c 0
 200 106 249 158 272 194 c 0
 311 252 357 347 368 375 c 1
 331 412 308 432 253 432 c 0
514 127 m 0
 519 107 539 86 542 83 c 0
 553 72 556 65 556 56 c 0
 556 35 542 16 512 16 c 0
 488 16 473 33 454 60 c 0
 406 127 422 218 422 287 c 1
 408 259 387 210 359 167 c 0
 309 91 279 61 253 40 c 0
 230 23 211 16 186 16 c 0
 151 16 107 54 92 84 c 0
 55 161 54 208 54 293 c 0
 54 345 98 441 129 471 c 0
 161 501 207 518 251 518 c 0
 323 518 354 495 405 450 c 1
 413 469 424 499 435 517 c 0
 440 525 451 532 465 532 c 0
 482 532 493 522 500 502 c 0
 511 472 503 451 503 344 c 0
 503 264 502 171 514 127 c 0
EndSplineSet
EndChar
StartChar: uni0252
Encoding: 594 594 389
Width: 534
GlyphClass: 4
Flags: MW
HStem: -9 21G<99 116> 9 76<284.5 349.5 284.5 349.5> 427 80<260 298> 533 20G<53.5 87.5>
VStem: 45 78<437 450.5 419 456> 423 76<228.5 260>
AnchorPoint: "acute" 286 574 basechar 0
AnchorPoint: "ogonek" 418 86 basechar 0
AnchorPoint: "cedilla" 294 38 basechar 0
LayerCount: 2
Fore
SplineSet
423 248 m 0
 423 272 400 339 376 371 c 0
 344 413 311 427 285 427 c 0
 235 427 139 349 144 234 c 1
 159 225 174 213 185 200 c 0
 213 164 255 85 314 85 c 0
 385 85 423 177 423 248 c 0
114 -9 m 0
 84 -9 65 13 61 62 c 0
 57 98 51 190 47 334 c 0
 45 388 45 424 45 450 c 0
 45 462 44 471 43 477 c 0
 39 518 46 553 61 553 c 0
 114 553 123 482 123 419 c 1
 174 465 216 507 282 507 c 0
 350 507 388 483 432 433 c 0
 455 407 473 376 479 359 c 0
 485 337 499 281 499 246 c 0
 499 211 488 167 481 137 c 0
 462 62 396 9 303 9 c 0
 244 9 188 52 145 117 c 1
 151 83 150 9 142 1 c 0
 133 -7 118 -9 114 -9 c 0
EndSplineSet
EndChar
StartChar: uni0261
Encoding: 609 609 404
Width: 562
GlyphClass: 4
Flags: MW
HStem: -344 94<255 287 244 325> -5 95<204.5 224 204.5 252.5> 471 87<304.5 324 298.5 336.5>
VStem: 45 92 59 92 383 85 386 83 400 83
AnchorPoint: "acute" 298 588 basechar 0
AnchorPoint: "ogonek" 400 -228 basechar 0
AnchorPoint: "cedilla" 288 -306 basechar 0
LayerCount: 2
Fore
SplineSet
400 366 m 2xe9
 400 378 400 390 400 401 c 1
 375 421 352 471 321 471 c 0
 288 471 242 440 220 412 c 0
 194 383 172 343 163 304 c 0
 152 258 145 184 157 138 c 0
 163 122 196 90 213 90 c 0
 235 90 262 109 277 125 c 0
 339 194 396 263 400 361 c 1
 400 366 l 2xe9
417 508 m 1
 422 513 428 515 434 515 c 0
 453 515 475 498 485 488 c 0
 507 460 494 429 490 400 c 0
 489 376 484 330 483 285 c 0xf2
 482 223 482 188 482 127 c 0
 482 4 473 -105 456 -187 c 0
 442 -259 363 -344 287 -344 c 0
 223 -344 158 -303 158 -254 c 0
 158 -226 168 -202 184 -202 c 0
 219 -202 225 -250 263 -250 c 0
 311 -250 340 -219 352 -204 c 0
 374 -176 385 -106 388 -44 c 0
 392 19 397 114 397 131 c 1xf4
 354 75 290 -5 215 -5 c 0
 139 -5 78 64 64 136 c 0
 45 241 82 355 122 422 c 0
 145 460 170 493 203 523 c 0
 225 541 283 558 314 558 c 0
 334 558 365 550 382 539 c 0
 391 534 404 522 417 508 c 1
EndSplineSet
EndChar
StartChar: uni0268
Encoding: 616 616 411
Width: 470
GlyphClass: 4
Flags: MW
HStem: -10 21G<240.5 260> 198 83<95 120 112.5 120 112.5 163> 203 88 533 20G<199.5 214.5>
VStem: 158 83 163 86
AnchorPoint: "acute" 222 876 basechar 0
AnchorPoint: "ogonek" 250 26 basechar 0
AnchorPoint: "cedilla" 242 32 basechar 0
LayerCount: 2
Fore
SplineSet
241 342 m 0xd8
 241 339 242 318 244 291 c 1
 265 293 281 295 288 296 c 0xb8
 341 308 379 317 398 321 c 0
 407 323 413 325 417 325 c 0
 440 325 451 308 451 281 c 0
 451 272 443 258 424 249 c 0
 409 241 381 234 333 219 c 0
 315 213 286 208 249 203 c 1
 251 173 253 150 254 146 c 0xb4
 267 72 290 70 290 48 c 0
 290 19 270 -10 250 -10 c 0
 231 -10 212 4 196 30 c 0
 172 74 164 134 163 198 c 1
 137 198 112 198 107 198 c 0xd4
 83 198 31 210 31 241 c 0
 31 266 44 295 73 295 c 0
 80 295 105 281 120 281 c 0
 133 282 147 283 161 284 c 1
 161 385 158 456 158 502 c 0
 158 524 191 553 208 553 c 0
 221 553 246 528 246 505 c 0
 246 500 246 492 244 485 c 0
 237 450 241 374 241 342 c 0xd8
215 846 m 0
 198 846 170 811 170 794 c 0
 170 787 170 781 172 775 c 0
 177 745 187 730 202 730 c 0
 212 730 221 732 231 737 c 0
 259 751 250 756 263 783 c 0
 267 790 269 798 269 804 c 0
 269 819 236 846 215 846 c 0
EndSplineSet
EndChar
StartChar: uni0269
Encoding: 617 617 412
Width: 396
GlyphClass: 4
Flags: MW
HStem: -15 21G<167 218.5> -15 92<208.5 218.5> 531 20G<94.5 118.5>
VStem: 81 80<448 476.5>
AnchorPoint: "acute" 124 590 basechar 0
AnchorPoint: "ogonek" 304 96 basechar 0
AnchorPoint: "cedilla" 212 28 basechar 0
LayerCount: 2
Fore
SplineSet
161 472 m 0xb0
 161 424 166 142 179 110 c 0
 190 87 201 77 216 77 c 0
 237 77 254 93 280 127 c 0
 291 142 300 145 308 145 c 0
 338 145 357 137 357 120 c 0x70
 357 102 344 85 322 59 c 0
 271 -2 243 -15 194 -15 c 0
 140 -15 99 54 95 104 c 0
 85 212 81 368 81 468 c 0
 81 485 81 551 108 551 c 0
 129 551 142 545 151 531 c 0
 157 519 161 500 161 472 c 0xb0
EndSplineSet
EndChar
StartChar: uni026C
Encoding: 620 620 415
Width: 600
GlyphClass: 4
Flags: MW
HStem: -11 21G<309 345> 279 80<191 212.5> 458 89<151.5 176> 905 20G<290.5 322>
VStem: 46 91<412.5 437 412.5 463.5> 258 84<812 840 840 858 812 867.5> 266 82
AnchorPoint: "acute" 304 958 basechar 0
AnchorPoint: "ogonek" 334 36 basechar 0
AnchorPoint: "cedilla" 314 28 basechar 0
LayerCount: 2
Fore
SplineSet
264 364 m 1xfa
 252 425 190 458 162 458 c 0
 141 458 137 448 137 426 c 0
 137 399 177 359 205 359 c 0
 226 359 246 361 264 364 c 1xfa
348 298 m 0
 348 297 348 296 348 295 c 0
 350 243 340 114 353 76 c 0
 355 70 372 67 372 61 c 0
 372 17 357 -11 333 -11 c 0
 285 -11 266 42 266 86 c 0xfa
 266 92 266 187 265 283 c 1
 243 281 222 279 203 279 c 0
 134 279 46 358 46 429 c 0
 46 498 84 547 160 547 c 0
 193 547 234 529 262 513 c 1
 261 566 260 614 258 680 c 2
 258 840 l 2
 258 895 277 925 304 925 c 0
 340 925 357 908 357 887 c 0
 357 866 342 876 342 840 c 0xfc
 342 784 339 559 343 387 c 1
 372 397 401 410 435 424 c 0
 483 443 496 475 517 475 c 0
 538 475 564 460 564 435 c 0
 564 369 404 314 348 298 c 0
EndSplineSet
EndChar
StartChar: uni026D
Encoding: 621 621 416
Width: 200
GlyphClass: 4
Flags: MW
HStem: -331 89<215.5 263 215.5 269> 891 20G<105 137>
VStem: 53 88<299.5 570.5 299.5 833>
AnchorPoint: "acute" 112 954 basechar 0
AnchorPoint: "ogonek" 354 -230 basechar 0
AnchorPoint: "cedilla" 198 -284 basechar 0
LayerCount: 2
Fore
SplineSet
361 -178 m 0
 380 -178 403 -191 403 -212 c 0
 403 -244 372 -263 336 -294 c 0
 308 -317 297 -331 241 -331 c 0
 179 -331 138 -315 117 -280 c 1
 97 -255 60 -186 60 -143 c 0
 60 -110 53 111 53 268 c 2
 53 833 l 2
 53 862 82 911 128 911 c 0
 146 911 153 858 153 837 c 0
 153 833 148 831 148 825 c 0
 139 771 141 653 141 488 c 0
 141 111 138 51 151 -131 c 0
 156 -188 181 -242 250 -242 c 0
 276 -242 289 -224 306 -207 c 0
 326 -187 343 -178 361 -178 c 0
EndSplineSet
EndChar
StartChar: uni026E
Encoding: 622 622 417
Width: 580
GlyphClass: 4
Flags: HMW
AnchorPoint: "acute" 272 954 basechar 0
AnchorPoint: "ogonek" 440 -188 basechar 0
AnchorPoint: "cedilla" 284 -222 basechar 0
LayerCount: 2
Fore
SplineSet
142 381 m 1
 142 341 143 91 162 60 c 0
 168 50 170 40 170 28 c 0
 170 4 140 -40 116 -40 c 0
 100 -40 70 0 66 14 c 0
 62 26 62 56 60 104 c 0
 54.6666666667 222.666666667 53.7777777778 288 53.7777777778 362.814814815 c 0
 53.7777777778 400.222222222 54 440 54 490 c 0
 54 604 52 746 52 872 c 0
 52 910 54 912 90 912 c 0
 134 912 134 892 134 864 c 0
 134 836 140 784 140 706 c 0
 140 639 141 553 141 465 c 1
 262 500 311 502 360 502 c 0
 492 502 516 488 516 354 c 0
 516 310 482 276 448 252 c 0
 430 238 412 228 402 220 c 1
 436 202 476 176 492 160 c 0
 530 124 552 110 552 14 c 0
 552 -106 528 -166 468 -218 c 0
 408 -270 394 -276 292 -276 c 0
 240 -276 198 -268 166 -252 c 0
 132 -234 116 -216 116 -196 c 0
 116 -182 124 -154 140 -154 c 0
 154 -154 160 -162 168 -166 c 0
 198 -180 240 -182 290 -182 c 0
 332 -182 362 -178 378 -170 c 0
 402 -156 414 -138 432 -112 c 0
 462 -70 462 -28 462 8 c 0
 462 64 440 108 390 136 c 0
 308 182 274 186 274 206 c 0
 274 242 296 258 346 280 c 0
 404 306 434 336 434 360 c 0
 434 370 430 392 428 396 c 0
 422 406 416 414 410 416 c 0
 404 418 386 420 360 420 c 0
 306 420 247 407 142 381 c 1
EndSplineSet
Validated: 524289
EndChar
StartChar: uni0270
Encoding: 624 624 419
Width: 890
GlyphClass: 4
Flags: HMW
AnchorPoint: "acute" 432 594 basechar 0
AnchorPoint: "ogonek" 790 -318 basechar 0
AnchorPoint: "cedilla" 444 28 basechar 0
LayerCount: 2
Fore
SplineSet
816 434 m 0
 816 395.333333333 816.888888889 367.333333333 816.888888889 336.37037037 c 0
 816.888888889 320.888888889 816.666666667 304.666666667 816 286 c 0
 816 218 812 154 812 114 c 0
 812 -220 833 -153 833 -259 c 0
 833 -303 818 -326 794 -326 c 0
 736 -326 727 -148 726 -112 c 0
 723 -16 722 -13 722 96 c 1
 686 62 616 2 570 2 c 0
 534 2 500 10 482 22 c 0
 466 32 418 78 398 134 c 1
 388 124 362 82 290 40 c 0
 258 20 228 10 202 10 c 0
 170 10 142 26 116 62 c 0
 94 94 54 174 54 220 c 0
 54 242 54 528 86 552 c 0
 90 556 96 556 102 556 c 0
 130 556 154 542 154 522 c 0
 154 514 152 504 150 488 c 0
 146 458 140 314 140 228 c 0
 140 196 152 172 156 166 c 0
 178 130 198 110 220 110 c 0
 232 110 246 116 262 130 c 0
 288 152 340 190 364 244 c 0
 373 262 374.125 291.25 374.125 357.90625 c 0
 374.125 380.125 374 406.5 374 438 c 0
 374 460 374 486 408 486 c 0
 448 486 450 466 456 434 c 0
 464 396 462 290 476 220 c 0
 488 164 514 118 518 114 c 0
 532 98 548 92 564 92 c 0
 582 92 598 100 616 114 c 0
 718 195 728 347 728 466 c 0
 728 490 736 532 768 532 c 0
 810.857142857 532 816.979591837 505.469387755 816.979591837 473.545189504 c 0
 816.979591837 460.775510204 816 447.142857143 816 434 c 0
EndSplineSet
Validated: 524289
EndChar
StartChar: uni0271
Encoding: 625 625 420
Width: 966
GlyphClass: 4
Flags: MW
HStem: -313 93<696 729.5 696 733.5> -18 21G<130.5 174> 338 126<335.5 350> 487 98<743 771>
VStem: 60 88 71 88<401.5 461.5 401.5 463> 808 92 819 92<-41 68>
AnchorPoint: "acute" 482 554 basechar 0
AnchorPoint: "ogonek" 834 -224 basechar 0
AnchorPoint: "cedilla" 504 -286 basechar 0
LayerCount: 2
Fore
SplineSet
171 219 m 1xd5
 209 293 232 348 285 426 c 0
 301 450 321 464 350 464 c 0
 391 464 404 428 425 394 c 0xfa
 453 352 460 301 477 254 c 1
 525 336 576 415 627 486 c 0
 654 523 695 585 747 585 c 0
 812 585 857 536 875 442 c 0
 900 313 911 162 911 -26 c 0
 911 -114 899 -183 860 -242 c 0
 821 -302 763 -313 704 -313 c 0
 668 -313 621 -306 582 -290 c 0
 553 -279 539 -247 539 -204 c 0
 539 -177 553 -161 569 -161 c 0
 582 -161 594 -164 602 -171 c 0
 630 -201 675 -220 717 -220 c 0
 742 -220 770 -210 782 -188 c 0
 819 -121 819 -80 819 -2 c 0
 819 138 821 225 801 369 c 0
 794 417 791 487 751 487 c 0
 735 487 703 448 694 433 c 0xda
 657 372 631 331 586 268 c 0
 559 228 533 159 501 127 c 0
 489 116 479 111 468 111 c 0
 429 111 412 146 404 178 c 0
 375 277 359 338 341 338 c 0xfa
 315 338 240 125 231 97 c 0
 215 48 195 -18 153 -18 c 0
 108 -18 99 63 92 126 c 0
 83 212 71 340 71 444 c 0
 71 482 56 496 85 522 c 0
 94 530 101 533 109 533 c 0
 148 533 159 476 159 447 c 0
 159 356 168 303 171 219 c 1xd5
EndSplineSet
EndChar
StartChar: uni0272
Encoding: 626 626 421
Width: 570
GlyphClass: 4
Flags: HMW
AnchorPoint: "acute" 296 592 basechar 0
AnchorPoint: "ogonek" 464 30 basechar 0
AnchorPoint: "cedilla" 308 26 basechar 0
LayerCount: 2
Fore
SplineSet
158 194 m 0
 158 63.3333333333 178.157943067 -24.1377410468 178.157943067 -140.493140774 c 0
 178.157943067 -161.270890725 177.515151515 -182.96969697 176 -206 c 0
 168 -314 126 -374 46 -374 c 0
 -10 -374 -42 -354 -68 -306 c 0
 -80 -284 -92 -258 -92 -206 c 0
 -92 -176 -66 -148 -46 -148 c 0
 -30 -148 -10 -154 -4 -232 c 0
 -2 -262 6 -278 28 -278 c 0
 54 -278 90 -230 90 -202 c 0
 90 -128 83 -78 77 68 c 0
 70.75 219.25 69.578125 286.90625 69.578125 361.7890625 c 0
 69.578125 406.71875 70 454.25 70 524 c 0
 70 556 82 584 114 584 c 0
 132 584 144 578 148 564 c 0
 152 551 154 476 156 387 c 1
 267 508 317 546 364 546 c 0
 440 546 494 508 494 420 c 0
 494 366 492 114 492 92 c 0
 492 72 514 36 514 22 c 0
 514 -2 494 -18 472 -18 c 0
 432 -18 411 10 410 44 c 0
 408.666666667 92.3333333333 408.222222222 150.222222222 408.222222222 205.925925926 c 0
 408.222222222 317.333333333 410 420 410 420 c 2
 410 442 390 456 364 456 c 0
 341 456 281 411 158 276 c 1
 158 248 158 220 158 194 c 0
EndSplineSet
Validated: 524289
EndChar
StartChar: uni027B
Encoding: 635 635 430
Width: 464
GlyphClass: 4
Flags: MW
HStem: -362 98<444.5 467> 16 95<180 201.5 180 211.5>
VStem: 311 80 319 85<-32 96.5> 325 91<-202 -188.5>
AnchorPoint: "acute" 238 579 basechar 0
AnchorPoint: "ogonek" 449 -319 basechar 0
AnchorPoint: "cedilla" 238 67 basechar 0
LayerCount: 2
Fore
SplineSet
315 65 m 1xc8
 301 53 284 41 269 35 c 0xc8
 241 21 220 16 203 16 c 0
 136 16 123 27 79 82 c 0
 70 92 51 132 51 160 c 0
 51 181 60 196 87 196 c 0
 108 196 125 187 135 168 c 0
 143 143 165 111 195 111 c 0
 208 111 223 117 237 124 c 0
 294 154 311 194 311 287 c 0
 311 335 315 386 313 422 c 0
 311 458 304 483 304 502 c 0
 304 517 307 536 334 536 c 0
 366 536 391 498 391 472 c 0xe0
 391 455 393 348 395 295 c 0
 399 187 404 113 404 80 c 0xd0
 404 33 410 37 412 -18 c 0
 414 -47 416 -140 416 -178 c 0
 416 -226 416 -264 473 -264 c 0
 483 -264 492 -262 499 -258 c 0
 532 -235 545 -226 556 -218 c 0
 568 -208 581 -201 604 -201 c 0
 615 -201 619 -212 619 -243 c 0
 619 -267 604 -290 562 -319 c 0
 518 -349 490 -362 444 -362 c 0
 368 -362 325 -298 325 -231 c 0
 325 -146 321 -129 319 -32 c 0
 319 -19 317 24 315 65 c 1xc8
EndSplineSet
Substitution2: "'sups' +TgowZDBNZYdbVwAA lookup 4 +MLUw1jDGMPww1jDr" uni02B5
Substitution2: "'aalt' +MFkweTBmMG51cE9TW1cweDBuMKIwrzC7MLkA lookup 0 +MLUw1jDGMPww1jDr" uni02B5
EndChar
StartChar: uni027C
Encoding: 636 636 431
Width: 426
GlyphClass: 4
Flags: MW
HStem: 413 93<265 276 239 299.5> 546 20G<77 109.5>
VStem: 47 84<383 393> 53 101<-239 -183 -239 -177>
AnchorPoint: "acute" 212 594 basechar 0
AnchorPoint: "ogonek" 106 -285 basechar 0
AnchorPoint: "cedilla" 104 -283 basechar 0
LayerCount: 2
Fore
SplineSet
91 566 m 0xe0
 128 566 131 404 131 383 c 1xe0
 156 429 211 506 267 506 c 0
 285 506 312 504 343 485 c 0
 366 471 385 466 390 461 c 0
 396 455 403 446 403 418 c 0
 403 397 397 374 353 374 c 0
 332 374 327 413 272 413 c 0
 258 413 226 385 211 340 c 0
 185 262 172 218 159 116 c 0
 151 52 148 54 148 6 c 0
 148 -48 154 -152 154 -214 c 0
 154 -264 149 -296 144 -314 c 0
 138 -334 126 -344 104 -344 c 0
 61 -344 53 -262 53 -232 c 0xd0
 53 -122 58 -78 58 24 c 0
 58 78 47 170 47 288 c 0
 47 498 35 494 35 508 c 0
 35 536 63 566 91 566 c 0xe0
EndSplineSet
EndChar
StartChar: uni027D
Encoding: 637 637 432
Width: 560
GlyphClass: 4
Flags: MW
HStem: -329 96<205.5 219> 458 89<288.5 319.5> 518 20G<86.5 125.5>
VStem: 54 92
AnchorPoint: "acute" 282 584 basechar 0
AnchorPoint: "ogonek" 306 -238 basechar 0
AnchorPoint: "cedilla" 234 -286 basechar 0
LayerCount: 2
Fore
SplineSet
321 547 m 0xd0
 345 547 372 534 399 507 c 0
 430 478 449 467 462 460 c 0
 478 451 500 437 500 413 c 0
 500 397 496 359 471 359 c 0
 451 359 426 374 395 404 c 0
 359 440 330 458 309 458 c 0xd0
 268 458 200 377 182 348 c 0
 171 330 153 303 144 291 c 1
 144 283 146 148 146 139 c 0
 146 110 144 68 143 -9 c 0
 141 -40 144 -65 150 -89 c 0
 171 -195 184 -233 227 -233 c 0
 267 -233 274 -197 319 -197 c 0
 336 -197 357 -197 357 -215 c 0
 357 -273 249 -329 189 -329 c 0
 159 -329 115 -280 96 -239 c 0
 67 -177 63 -112 58 -76 c 0
 56 -58 54 18 56 34 c 0
 58 50 54 206 54 278 c 0
 54 356 59 352 63 442 c 0
 65 498 65 538 108 538 c 0
 143 538 159 527 159 507 c 0
 159 505 157 495 157 491 c 0xb0
 156 477 155 451 155 438 c 1
 195 485 254 547 321 547 c 0xd0
EndSplineSet
EndChar
StartChar: uni027F
Encoding: 639 639 434
Width: 476
GlyphClass: 4
Flags: MW
HStem: -334 21G<389.5 406.5> 458 86<189 253.5 175.5 255.5>
VStem: 28 84<404.5 447.5> 28 436
AnchorPoint: "acute" 232 594 basechar 0
AnchorPoint: "ogonek" 412 -282 basechar 0
AnchorPoint: "cedilla" 402 -284 basechar 0
LayerCount: 2
Fore
SplineSet
205 544 m 0xd0
 302 544 348 533 376 477 c 0
 393 443 401 417 407 384 c 0
 408 377 414 303 414 154 c 0
 414 -11 412 -121 420 -174 c 0
 427 -220 429 -216 458 -252 c 0
 462 -258 464 -266 464 -273 c 0
 464 -288 456 -305 446 -311 c 0
 429 -321 412 -334 401 -334 c 0
 378 -334 365 -332 359 -305 c 0
 351 -273 342 -243 336 -207 c 0
 331 -176 336 -13 331 94 c 0
 327 149 329 284 325 318 c 0
 316 403 308 458 203 458 c 0
 175 458 137 449 127 443 c 0
 118 438 112 428 112 413 c 0
 112 396 106 386 93 386 c 0
 63 386 28 404 28 438 c 0
 28 457 55 493 70 506 c 0xe0
 104 534 146 544 205 544 c 0xd0
EndSplineSet
EndChar
StartChar: uni0280
Encoding: 640 640 435
Width: 512
GlyphClass: 4
Flags: MW
HStem: -18 21G<84 101> 462 94<271 297> 554 20G<78 97>
VStem: 33 95 53 94 373 80 376 80<368 388>
AnchorPoint: "acute" 252 594 basechar 0
AnchorPoint: "ogonek" 455 48 basechar 0
AnchorPoint: "cedilla" 264 28 basechar 0
LayerCount: 2
Fore
SplineSet
147 219 m 1xf2
 148 207 148 194 150 178 c 0
 152 140 158 102 156 82 c 0
 154 52 146 28 136 10 c 0
 122 -12 112 -18 90 -18 c 0
 78 -18 52 32 54 46 c 0
 56 64 60 138 56 162 c 0xec
 48 220 54 290 50 362 c 0
 46 446 52 482 38 510 c 0
 30 520 32 534 42 550 c 0
 52 566 68 574 88 574 c 0
 106 574 120 572 124 564 c 0
 128 556 128 536 128 504 c 0
 128 497 130 471 133 436 c 1
 142 452 152 469 156 474 c 0
 192 525 216 556 282 556 c 0
 359 556 393 540 434 478 c 0
 450 456 456 448 456 420 c 0
 456 316 449 220 329 207 c 1
 351 190 377 170 382 166 c 0
 412 140 464 112 478 100 c 0
 494 86 496 66 496 50 c 0
 496 16 468 2 450 2 c 0
 446 2 438 6 430 12 c 0
 420 24 412 24 390 40 c 0
 366 58 344 70 316 96 c 0
 300 110 258 148 196 192 c 0
 184 200 165 211 147 219 c 1xf2
161 321 m 1
 184 320 209 316 228 308 c 0
 234 306 266 292 294 288 c 0
 300 287 305 287 311 287 c 0
 361 287 376 324 376 368 c 0
 376 408 364 438 336 452 c 0
 320 458 304 462 290 462 c 0
 252 462 238 448 228 430 c 0
 214 403 190 367 161 321 c 1
EndSplineSet
EndChar
StartChar: uni0281
Encoding: 641 641 436
Width: 576
GlyphClass: 4
Flags: HMW
AnchorPoint: "acute" 282 584 basechar 0
AnchorPoint: "ogonek" 450 52 basechar 0
AnchorPoint: "cedilla" 294 48 basechar 0
LayerCount: 2
Fore
SplineSet
96 554 m 0
 132 554 145 526 145 464 c 0
 145 450 133 324 133 198 c 0
 133 150 139 102 143 86 c 0
 144 79 153 76 166 76 c 0
 191 76 232 87 258 96 c 0
 334 123 449 162 449 237 c 0
 449 265 390 276 302 282 c 0
 212 288 166 316 166 344 c 0
 166 366 172 376 184 386 c 0
 196 396 224 416 290 446 c 0
 386 488 450 526 484 558 c 0
 496 568 514 576 527 576 c 0
 539 576 548 570 548 552 c 0
 548 540 544 526 534 512 c 0
 489 450 375 400 303 361 c 1
 335 359 374 355 400 353 c 0
 483 347 532 320 532 232 c 0
 532 157 484 110 400 66 c 0
 320 23 250 -3 144 -22 c 0
 136 -23 129 -24 122 -24 c 0
 46 -24 51 69 48 170 c 0
 48 350 54 286 54 442 c 0
 54 451.481481481 53.9122085048 460.611796982 53.9122085048 469.286897323 c 0
 53.9122085048 519.16872428 56.8148148148 554 96 554 c 0
EndSplineSet
Validated: 524289
Substitution2: "'sups' +TgowZDBNZYdbVwAA lookup 4 +MLUw1jDGMPww1jDr" uni02B6
EndChar
StartChar: uni0283
Encoding: 643 643 438
Width: 322
GlyphClass: 4
Flags: HMW
AnchorPoint: "acute" 197 957 basechar 0
AnchorPoint: "ogonek" 174 -251 basechar 0
AnchorPoint: "cedilla" 125 -287 basechar 0
LayerCount: 2
Fore
SplineSet
-16 -243 m 0
 -16 -224 -5 -199 16 -199 c 0
 56 -199 72 -224 77 -232 c 0
 82 -240 93 -242 109 -242 c 0
 122 -242 132 -231 140 -218 c 0
 163 -182 168 -140 168 -87 c 0
 168 63 154 146 135 288 c 0
 124 373 100 502 100 581 c 0
 100 652 104 704 118 758 c 0
 133 819 165 890 208 917 c 0
 219 923 238 928 265 928 c 0
 288 928 306 924 319 918 c 0
 340 910 369 880 407 834 c 0
 414 826 424 784 424 755 c 0
 424 741 407 716 391 716 c 0
 374 716 347 751 342 768 c 0
 339 778 331 792 311 813 c 0
 298 825 285 844 269 844 c 0
 237 844 203 794 193 724 c 0
 186.574684765 682.527510755 183.561326213 635.937086484 183.561326213 588.214708508 c 0
 183.561326213 554.237412846 185.088836968 519.686315086 188 486 c 0
 191 451 215 320 218 289 c 0
 234 127 250 85 250 -82 c 0
 250 -160 242 -210 224 -247 c 0
 200 -297 174 -338 125 -338 c 0
 52 -338 -16 -286 -16 -243 c 0
EndSplineSet
Validated: 524289
EndChar
StartChar: uni0284
Encoding: 695 644 439
Width: 604
VWidth: 1000
GlyphClass: 4
Flags: HMW
AnchorPoint: "acute" 292 904 basechar 0
AnchorPoint: "ogonek" 280 -268 basechar 0
AnchorPoint: "cedilla" 274 -272 basechar 0
LayerCount: 2
Fore
SplineSet
544 92 m 0
 544 71 530 46 502 22 c 0
 500 20 497 19 495 19 c 0
 485 19 476 34 463 36 c 0
 457 37 446 38 432 38 c 0
 409 38 379 36 349 34 c 1
 351 -9 355 -67 355 -100 c 0
 355 -216 328 -330 185 -330 c 0
 115 -330 104 -317 69 -299 c 0
 38 -284 24 -277 24 -243 c 0
 24 -216 37 -204 61 -204 c 0
 67 -206 112 -206 126 -231 c 0
 130 -241 144 -242 160 -242 c 0
 165 -242 170 -242 175 -242 c 0
 260 -242 275 -186 275 -98 c 0
 275 -70 272 -23 269 26 c 1
 235 23 203 21 169 21 c 0
 135 21 86 25 72 62 c 0
 69.9687113561 67.1705529118 69.0286315862 72.2388049916 69.0286315862 77.0662212274 c 0
 69.0286315862 98.3806232668 87.3552155158 115 111 115 c 0
 128 115 132 112 139 108 c 0
 151 101 194 99 217 99 c 0
 228 99 244 100 262 102 c 1
 255 176 243 230 234 300 c 0
 224 376 207 462 207 553 c 0
 207 669 230 739 270 797 c 0
 308 849 339 884 409 884 c 0
 435 884 481 864 495 849 c 0
 511 834 529 818 544 799 c 0
 554 787 560 776 560 771 c 0
 560 734 549 716 513 716 c 0
 506 716 495 722 483 738 c 0
 471 753 437 798 407 798 c 0
 390 798 365 785 351 768 c 0
 309 713 289 652 289 583 c 0
 289 464 305 392 313 337 c 0
 324 259 338 153 343 110 c 1
 371 113 401 117 428 121 c 0
 448 123 466 129 489 129 c 0
 491 129 493 129 495 129 c 0
 529 129 544 128 544 92 c 0
EndSplineSet
Validated: 1
EndChar
StartChar: uni0285
Encoding: 645 645 440
Width: 754
GlyphClass: 4
Flags: HMW
AnchorPoint: "acute" 362 594 basechar 0
AnchorPoint: "ogonek" 670 -128 basechar 0
AnchorPoint: "cedilla" 472 -254 basechar 0
LayerCount: 2
Fore
SplineSet
83 415 m 0
 129 461 230 543 292 543 c 0
 341 543 356 527 376 490 c 0
 388 469 396 447 401 421 c 0
 409.239283527 376.141678576 414.126182212 300.273797371 414.126182212 195.698127151 c 0
 414.126182212 186.042865893 414.084524053 176.142886309 414 166 c 0
 413.725708115 148.445319349 413.526652268 132.922011731 413.526652268 118.088695886 c 0
 413.526652268 78.8434310425 414.920043196 44.4281086117 420 -10 c 0
 424 -50 441 -204 506 -204 c 0
 525 -204 552 -179 566 -167 c 0
 588 -147 610 -123 631 -103 c 0
 653 -81 667 -63 685 -63 c 0
 702 -63 713 -89 713 -107 c 0
 713 -145 696 -158 664 -191 c 0
 636 -220 540 -300 504 -300 c 0
 436 -300 402 -240 377 -189 c 0
 339 -108 334 91 334 174 c 0
 334 270 333 349 328 380 c 0
 324 407 312 448 287 448 c 0
 269 448 254 445 238 434 c 0
 184 397 163 379 130 336 c 0
 110 309 99 299 83 299 c 0
 50 299 41 318 41 348 c 0
 41 362 51 383 83 415 c 0
EndSplineSet
Validated: 524289
EndChar
StartChar: uni0287
Encoding: 647 647 442
Width: 546
GlyphClass: 4
Flags: MW
HStem: -23 87<160 172 111 225.5> -2 21G 476 86<273 315>
VStem: 366 79
AnchorPoint: "acute" 282 594 basechar 0
AnchorPoint: "ogonek" 410 -288 basechar 0
AnchorPoint: "cedilla" 294 -292 basechar 0
LayerCount: 2
Fore
SplineSet
363 -12 m 1xb0
 307 -19 249 -23 202 -23 c 0
 118 -23 74 -21 60 1 c 0
 55 9 52 6 52 22 c 0
 52 40 58 54 72 60 c 0
 80 64 93 64 111 64 c 0
 123 64 137 64 154 64 c 0
 190 64 236 62 266 62 c 0
 283 62 322 66 361 72 c 1xb0
 360 157 359 260 348 342 c 0
 342 388 328 476 302 476 c 0
 244 476 185 457 134 408 c 0
 108 383 86 378 82 378 c 0
 59 378 46 412 46 432 c 0
 46 442 53 449 82 478 c 0
 134 530 215 562 298 562 c 0
 342 562 377 547 397 495 c 0
 410 461 424 409 429 366 c 0
 440 264 443 174 445 84 c 1
 454 86 460 87 462 88 c 0
 465 89 469 90 473 90 c 0
 485 90 532 77 532 64 c 0
 532 54 524 42 506 22 c 0
 488 2 478 3 470 2 c 0
 462 1 454 -1 445 -2 c 1x70
 444 -103 441 -216 457 -240 c 0
 461 -246 463 -252 463 -260 c 0
 463 -290 413 -346 395 -346 c 0
 385 -346 350 -308 350 -290 c 0
 350 -288 350 -284 352 -282 c 0
 367 -267 366 -240 366 -206 c 0
 366 -155 365 -82 363 -12 c 1xb0
EndSplineSet
EndChar
StartChar: uni0288
Encoding: 648 648 443
Width: 606
GlyphClass: 4
Flags: MW
HStem: -310 21G<311 397> -310 91<311 430> 443 94<122.5 136 118.5 149.5> 501 68<480.5 531> 520 20G 531 20G<356.5 366>
VStem: 234 85<4 13 13 304 304 331 331 450 450 450> 238 84<725.5 820>
AnchorPoint: "acute" 283 879 basechar 0
AnchorPoint: "ogonek" 501 -253 basechar 0
AnchorPoint: "cedilla" 345 -257 basechar 0
LayerCount: 2
Fore
SplineSet
234 450 m 1xa2
 197 446 164 443 135 443 c 0
 110 443 90 450 76 465 c 0
 59 481 58 483 58 492 c 0
 58 520 107 537 130 537 c 0
 142 537 151 535 160 535 c 2xa2
 160 535 182 537 194 537 c 0
 207 538 221 538 234 540 c 1x89
 235 609 238 701 238 750 c 0
 238 802 241 831 248 838 c 0
 257 847 270 850 293 850 c 0
 308 850 315 849 319 843 c 0
 320 840 322 829 322 811 c 0
 322 766 320 637 319 548 c 1
 340 550 355 551 358 551 c 0x85
 374 551 391 553 407 557 c 0x91
 441 566 470 569 491 569 c 0
 508 569 520 566 527 558 c 0
 535 551 544 551 544 515 c 0
 544 504 536 501 526 501 c 0
 499 501 452 481 403 474 c 2
 403 474 360 466 319 461 c 1
 319 331 l 2
 319 293 317 209 319 13 c 0
 319 -21 335 -189 358 -206 c 0
 364 -210 410 -219 421 -219 c 0
 439 -219 468 -211 495 -201 c 0
 506 -195 527 -186 538 -181 c 0
 547 -175 554 -174 562 -174 c 0
 572 -174 590 -183 590 -199 c 0
 590 -210 581 -215 569 -228 c 0x52
 556 -242 538 -265 509 -280 c 0
 472 -298 423 -310 371 -310 c 0
 251 -310 234 -77 234 4 c 0
 232 108 234 222 234 304 c 2
 234 450 l 1xa2
EndSplineSet
EndChar
StartChar: uni028F
Encoding: 655 655 450
Width: 572
GlyphClass: 4
Flags: MW
HStem: -7 21G<310 327>
VStem: 232 82<152 170 151 256>
AnchorPoint: "acute" 289 584 basechar 0
AnchorPoint: "ogonek" 310 23 basechar 0
AnchorPoint: "cedilla" 301 18 basechar 0
LayerCount: 2
Fore
SplineSet
354 34 m 0
 354 17 336 -7 318 -7 c 0
 302 -7 297 -7 280 0 c 0
 264 8 259 17 255 22 c 0
 246 35 235 83 232 152 c 0
 230 188 231 238 232 256 c 1
 204 265 183 281 170 293 c 0
 158 306 148 326 133 347 c 0
 114 373 88 408 73 430 c 0
 59 452 43 473 43 488 c 0
 43 506 70 531 79 531 c 0
 101 531 122 508 133 495 c 0
 153 467 188 406 212 380 c 0
 230 360 246 347 259 340 c 0
 268 337 277 335 286 335 c 0
 302 335 319 353 336 378 c 0
 350 399 349 403 370 441 c 0
 388 473 431 535 440 563 c 0
 445 584 463 617 487 617 c 0
 511 617 521 598 521 556 c 0
 521 535 514 529 493 490 c 0
 422 358 390 304 359 274 c 0
 348 262 331 254 313 250 c 1
 313 214 314 189 314 151 c 0
 316 106 320 77 334 63 c 0
 347 47 354 38 354 34 c 0
EndSplineSet
EndChar
StartChar: uni0295
Encoding: 661 661 456
Width: 530
GlyphClass: 4
Flags: MW
HStem: -22 21G<308 345> 400 92<222 229.5> 850 92<282.5 336>
VStem: 36 92<629 643> 278 92
AnchorPoint: "acute" 290 968 basechar 0
AnchorPoint: "ogonek" 328 25 basechar 0
AnchorPoint: "cedilla" 324 28 basechar 0
LayerCount: 2
Fore
SplineSet
278 410 m 1
 262 406 241 400 218 400 c 0
 129 400 60 507 42 586 c 0
 38 600 36 626 36 632 c 0
 36 654 54 714 66 748 c 0
 78 780 120 840 134 858 c 0
 189 924 241 942 324 942 c 0
 398 942 432 904 472 864 c 0
 490 846 508 822 508 788 c 0
 508 770 480 742 464 742 c 0
 448 742 434 758 422 778 c 0
 396 822 364 850 308 850 c 0
 234 850 196 812 174 766 c 0
 152 720 128 654 128 632 c 0
 128 600 142 574 168 534 c 0
 186 506 208 492 236 492 c 0
 250 492 266 496 284 502 c 0
 298 508 310 510 320 510 c 0
 352 510 372 486 372 450 c 0
 372 442 370 434 368 424 c 0
 362 398 368 172 370 110 c 0
 372 34 378 -22 312 -22 c 0
 304 -22 298 -18 294 -10 c 0
 292 -4 284 14 280 82 c 0
 277 119 277 329 278 410 c 1
EndSplineSet
EndChar
StartChar: uni0298
Encoding: 715 664 459
Width: 822
VWidth: 1000
GlyphClass: 4
Flags: HMW
AnchorPoint: "acute" 442 948 basechar 0
AnchorPoint: "ogonek" 610 96 basechar 0
AnchorPoint: "cedilla" 454 42 basechar 0
LayerCount: 2
Fore
SplineSet
420 432 m 0
 450 432 480 430 480 408 c 0
 480 398 474 386 466 374 c 0
 456 358 446 352 428 352 c 0
 400 352 370 378 370 404 c 0
 370 428 396 432 420 432 c 0
400 800 m 0
 401.033370453 795.866518188 401.532813659 792.133481812 401.532813659 788.80089087 c 0
 401.532813659 779.23359317 397.416573868 772.966629547 390 770 c 0
 386 768 364 767 342 767 c 1
 332 755 319 736 316 732 c 0
 307 718 274 711 257 711 c 0
 255 711 253 711 252 712 c 0
 249 714 240 740 236 762 c 1
 202 732 194 712 172 670 c 0
 138 608 130 576 130 494 c 0
 130 393 143 312 196 226 c 0
 228 174 250 158 308 130 c 0
 362 104 406 92 462 92 c 0
 518 92 562 112 594 150 c 0
 612 172 624 186 628 192 c 0
 679 274 696 336 696 434 c 0
 696 472 682 546 670 586 c 0
 649 658 606 725 560 784 c 0
 540 810 502 828 454 828 c 0
 437 828 416 820 397 809 c 0
 398 806 399 803 400 800 c 0
322 860 m 1
 334 868 343 873 346 876 c 0
 378 902 412 916 450 916 c 0
 498 916 543 902 582 876 c 0
 631 837 699 734 726 674 c 0
 765 588 786 501 786 406 c 0
 786 368 774 318 766 292 c 0
 756 260 752 250 746 232 c 0
 740 216 722 188 706 156 c 0
 652 48 574 -8 448 -8 c 0
 364 -8 286 14 214 58 c 1
 146 110 126 146 82 224 c 0
 52 276 38 362 38 434 c 0
 38 524 48 572 50 588 c 0
 63 690 92 752 164 824 c 0
 190 846 198 856 226 862 c 0
 245 866 260 869 275 869 c 0
 289 869 304 867 322 860 c 1
EndSplineSet
Validated: 1
EndChar
StartChar: uni0299
Encoding: 665 665 460
Width: 554
GlyphClass: 4
Flags: MW
HStem: -4 80<220 259.5 219 273.5> 227 99<269 300.5 269 304.5> 468 87<262 282>
VStem: 83 83 87 83<78 98> 371 83 421 85 425 85<151.5 169 120 174>
AnchorPoint: "acute" 272 594 basechar 0
AnchorPoint: "ogonek" 440 92 basechar 0
AnchorPoint: "cedilla" 284 28 basechar 0
LayerCount: 2
Fore
SplineSet
270 555 m 0xe9
 344 555 386 515 436 465 c 0
 456 443 458 415 458 389 c 0xf4
 458 344 443 315 420 299 c 1
 474 277 510 197 510 141 c 0
 510 99 470 60 427 40 c 0
 357 6 313 -4 234 -4 c 0
 206 -4 184 0 168 9 c 1
 152 7 137 4 126 4 c 0
 112 4 101 11 96 20 c 0
 90 29 87 45 87 72 c 0
 87 124 85 159 81 209 c 0
 80 236 78 256 76 268 c 0
 71 321 74 427 54 461 c 0
 47 474 51 488 69 501 c 0
 89 515 103 522 112 522 c 0
 122 522 133 501 142 477 c 1
 165 522 220 555 270 555 c 0xe9
166 232 m 0
 166 198 170 175 170 137 c 2
 170 78 l 1
 179 76 209 76 229 76 c 0
 290 76 357 85 386 105 c 0
 413 123 425 141 425 162 c 0xf2
 425 186 375 238 351 238 c 1
 341 232 324 227 285 227 c 0
 247 227 222 231 209 238 c 0
 195 245 191 258 191 274 c 0
 191 279 200 301 209 310 c 0
 222 322 251 326 287 326 c 0
 314 326 333 331 344 339 c 0
 355 346 375 360 375 380 c 0
 375 394 371 407 364 416 c 0
 357 425 339 439 315 456 c 0
 303 465 288 468 276 468 c 0
 248 468 224 453 215 436 c 0
 186 392 166 283 166 232 c 0
EndSplineSet
EndChar
StartChar: uni029A
Encoding: 666 666 461
Width: 568
GlyphClass: 4
Flags: MW
HStem: -16 86<187 213> 229 101<202 202> 475 83<171.5 192.5>
VStem: 48 82<142 173 142 176> 67 85<417 449.5 417 470> 424 83<281.5 298>
AnchorPoint: "acute" 252 594 basechar 0
AnchorPoint: "ogonek" 376 121 basechar 0
AnchorPoint: "cedilla" 264 28 basechar 0
LayerCount: 2
Fore
SplineSet
202 330 m 1xec
 224 331 256 349 262 351 c 0
 267 353 273 360 292 360 c 0
 318 360 321 351 321 326 c 0
 321 304 303 283 276 259 c 0
 249 236 226 229 202 229 c 0
 158 229 130 195 130 151 c 0xf4
 130 133 150 85 163 76 c 0
 168 72 179 70 195 70 c 0
 256 70 282 92 316 119 c 0
 346 144 402 189 418 222 c 0
 422 229 424 247 424 277 c 0
 424 319 420 348 413 362 c 0
 391 400 334 434 238 465 c 0
 217 472 199 475 186 475 c 0
 157 475 152 463 152 436 c 0
 152 398 166 358 202 330 c 1xec
48 148 m 0
 48 204 67 263 116 295 c 1
 100 310 67 348 67 430 c 0
 67 510 98 558 175 558 c 0
 256 558 361 512 426 463 c 0
 485 416 507 367 507 304 c 0
 507 259 498 207 492 193 c 0
 480 159 384 70 354 49 c 0
 305 16 243 -16 183 -16 c 0
 156 -16 125 -13 105 6 c 0xec
 67 42 48 74 48 148 c 0
EndSplineSet
EndChar
StartChar: uni029B
Encoding: 667 667 462
Width: 728
GlyphClass: 4
Flags: MW
HStem: -28 114<276 292.5> 480 96<239 273 200 299.5> 542 20G 852 96<517 567.5 517 589>
VStem: 50 84<307 354> 350 80<633 664 610 691>
AnchorPoint: "acute" 362 964 basechar 0
AnchorPoint: "ogonek" 560 72 basechar 0
AnchorPoint: "cedilla" 304 28 basechar 0
LayerCount: 2
Fore
SplineSet
108 92 m 0xbc
 64 158 50 248 50 324 c 0
 50 384 50 402 62 436 c 0
 96 521 152 576 248 576 c 0xdc
 298 576 334 564 352 562 c 1
 348 578 350 620 350 646 c 0xbc
 350 736 360 790 394 850 c 0
 430 912 481 948 553 948 c 0
 582 948 610 942 634 928 c 0
 662 912 688 872 688 848 c 0
 688 842 686 832 680 828 c 0
 674 822 666 820 658 820 c 0
 632 820 622 852 556 852 c 0
 449 852 430 704 430 624 c 0
 430 596 440 570 444 544 c 0
 448 526 454 510 454 488 c 0
 454 462 412 450 392 450 c 0
 350 450 347 480 252 480 c 0
 226 480 198 472 180 454 c 0xdc
 148 422 134 410 134 326 c 0
 134 288 152 212 186 148 c 0
 210 102 254 86 298 86 c 0
 359 86 420 162 420 222 c 1
 396 218 372 206 336 198 c 0
 321 194 305 188 291 188 c 0
 262 188 236 218 236 246 c 0
 236 290 342 292 400 300 c 0
 420 303 442 307 463 307 c 0
 485 307 505 303 522 292 c 0
 548 276 552 240 564 212 c 0
 578 174 584 134 594 96 c 0
 600 76 584 48 564 42 c 0
 562 41 559 41 556 41 c 0
 544 41 529 49 524 62 c 0
 510 100 498 146 492 174 c 1
 484 156 474 116 458 90 c 0
 444 66 428 42 408 24 c 0
 376 -3 313 -28 272 -28 c 0
 204 -28 146 36 108 92 c 0xbc
EndSplineSet
EndChar
StartChar: uni029C
Encoding: 668 668 463
Width: 546
GlyphClass: 4
Flags: MW
HStem: -9 21G<113.5 120> 0 21G<444 472> 523 20G<85 111 414.5 437>
VStem: 62 80 65 80 376 88 379 88<452 457 452 462 452 482>
AnchorPoint: "acute" 282 594 basechar 0
AnchorPoint: "ogonek" 450 32 basechar 0
AnchorPoint: "cedilla" 294 28 basechar 0
LayerCount: 2
Fore
SplineSet
379 457 m 0x6a
 379 507 400 543 429 543 c 0
 445 543 469 531 471 516 c 0
 474 497 467 472 467 452 c 0
 462 322 467 132 491 63 c 0
 497 47 507 35 493 18 c 0
 488 10 477 0 467 0 c 0
 421 0 402 46 400 63 c 0x74
 397 96 392 156 389 180 c 0
 387 201 385 224 384 246 c 1
 352 240 302 232 275 227 c 0
 246 222 186 210 156 204 c 1
 160 156 170 62 166 29 c 0
 163 8 155 -4 134 -7 c 0
 129 -8 123 -9 117 -9 c 0
 110 -9 103 -8 98 -5 c 0
 83 4 89 27 87 46 c 0xb4
 84 117 72 184 68 259 c 0
 65 330 59 394 65 471 c 0
 67 498 70 543 100 543 c 0
 122 543 143 516 145 497 c 0
 147 483 145 471 145 457 c 0
 145 417 145 382 148 349 c 0
 150 332 150 309 152 296 c 1
 225 311 303 325 379 332 c 1
 377 356 379 365 379 457 c 0x6a
EndSplineSet
EndChar
StartChar: uni029D
Encoding: 669 669 464
Width: 480
GlyphClass: 4
Flags: MW
HStem: -339 95<231 245 231 260> -98 86<178 192.5 155 202.5> 540 20G<285 293> 752 89<293.5 303 293.5 314>
VStem: 35 91 41 91 242 106 248 106 258 86 260 89
AnchorPoint: "acute" 292 864 basechar 0
AnchorPoint: "ogonek" 410 -168 basechar 0
AnchorPoint: "cedilla" 264 -292 basechar 0
LayerCount: 2
Fore
SplineSet
262 764 m 0xf5
 248 778 244 794 252 814 c 0
 257 827 285 841 302 841 c 0
 304 841 306 840 308 840 c 0
 324 836 354 800 354 788 c 0
 354 770 328 752 300 752 c 0
 282 752 270 756 262 764 c 0xf5
358 -78 m 1
 392 -98 431 -123 448 -154 c 0
 454 -166 446 -200 434 -208 c 0
 429 -211 423 -213 416 -213 c 0
 401 -213 385 -206 374 -198 c 0
 368 -193 362 -189 355 -185 c 1
 355 -213 344 -282 332 -302 c 0
 324 -316 294 -334 270 -338 c 0
 266 -339 262 -339 258 -339 c 0
 185 -339 99 -286 64 -224 c 0
 42 -188 34 -124 46 -84 c 0
 63 -30 130 -12 180 -12 c 0
 205 -12 242 -21 266 -31 c 1xf840
 265 29 264 80 264 146 c 0xf880
 264 244 250 398 250 492 c 0xfa
 250 524 248 536 260 552 c 0xf840
 266 560 280 560 290 560 c 0
 296 560 308 560 314 556 c 0
 322 550 332 542 334 534 c 0
 344 508 346 486 346 450 c 0
 346 382 350 296 350 220 c 0xf880
 350 156 352 94 354 28 c 0
 354 2 358 -42 358 -78 c 1
266 -127 m 1
 242 -112 217 -98 188 -98 c 0
 168 -98 146 -106 138 -112 c 0
 128 -122 130 -154 144 -176 c 0
 154 -192 162 -200 176 -214 c 0
 190 -226 222 -244 240 -244 c 0
 250 -244 258 -240 260 -232 c 0
 265 -214 266 -182 266 -127 c 1
EndSplineSet
EndChar
StartChar: uni029E
Encoding: 670 670 465
Width: 598
GlyphClass: 4
Flags: MW
HStem: -325 21G 545 20G<470 472 471.5 472>
VStem: 436 77
AnchorPoint: "acute" 292 594 basechar 0
AnchorPoint: "ogonek" 454 -278 basechar 0
AnchorPoint: "cedilla" 454 -282 basechar 0
LayerCount: 2
Fore
SplineSet
96 21 m 0
 79 34 78 71 96 88 c 0
 114 104 157 136 173 151 c 0
 195 169 214 188 234 210 c 0
 267 244 315 282 333 311 c 1
 324 320 299 323 281 331 c 0
 256 340 236 343 211 354 c 0
 177 368 173 368 142 390 c 0
 99 421 49 449 49 476 c 0
 49 493 61 516 78 516 c 0
 123 516 137 491 186 464 c 0
 232 439 256 428 304 408 c 0
 330 397 420 355 420 320 c 0
 420 300 405 278 393 262 c 0
 366 226 324 188 292 156 c 0
 254 120 216 84 173 46 c 0
 159 33 131 17 111 17 c 0
 105 17 100 18 96 21 c 0
436 154 m 0
 436 185 434 212 436 242 c 0
 438 275 441 309 443 341 c 0
 445 386 445 433 445 478 c 0
 445 503 430 532 445 554 c 0
 450 560 461 565 470 565 c 2
 470 565 471 565 472 565 c 0
 490 561 511 538 519 521 c 0
 535 482 528 435 529 392 c 0
 529 361 528 331 526 300 c 0
 524 266 519 230 517 196 c 0
 515 174 515 154 515 133 c 0
 515 106 513 77 513 50 c 2
 513 -24 l 2
 513 -44 513 -65 511 -85 c 0
 510 -121 504 -157 501 -193 c 0
 497 -226 502 -258 492 -289 c 0
 486 -303 466 -323 452 -325 c 0
 441 -326 430 -316 425 -307 c 0
 396 -253 421 -182 423 -121 c 0
 425 -73 430 -26 432 23 c 0
 434 66 436 111 436 154 c 0
EndSplineSet
EndChar
StartChar: uni029F
Encoding: 722 671 466
Width: 520
VWidth: 1000
GlyphClass: 4
Flags: HMW
AnchorPoint: "acute" 262 614 basechar 0
AnchorPoint: "ogonek" 430 52 basechar 0
AnchorPoint: "cedilla" 274 48 basechar 0
LayerCount: 2
Fore
SplineSet
176 2 m 0
 170 2 165 2 159 2 c 0
 153 2 147 2 141 2 c 0
 104 2 80 7 62 42 c 0
 55.2911238224 59.8903364737 54.2083750906 78.4057982191 54.2083750906 97.196894566 c 0
 54.2083750906 106.153240501 54.4543468029 115.172203286 54.4543468029 124.215941119 c 0
 54.4543468029 130.136881147 54.3489152604 136.068440574 54 142 c 0
 53.3333333333 163.333333333 53.1111111111 184.444444444 53.1111111111 205.481481481 c 0
 53.1111111111 247.555555556 54 289.333333333 54 332 c 2
 54 510 l 2
 54 523.75 50.09375 539.0625 50.09375 553.0078125 c 0
 50.09375 561.375 51.5 569.25 56 576 c 0
 62 586 74 592 86 592 c 0
 132 592 138 512 138 480 c 0
 138 398 136 326 136 250 c 0
 136 226.8 135.68 203.6 135.68 181.936 c 0
 135.68 149.44 136.4 120.4 140 100 c 1
 161 98 181 97 201 97 c 0
 244 97 284 101 335 101 c 0
 348 101 362 101 376 100 c 0
 382 100 388 100 395 100 c 0
 405 100 415 100 426 100 c 0
 447 100 467 99 478 92 c 0
 487.167089681 86.7616630393 491.189146716 67.8032390216 491.189146716 51.9693621192 c 0
 491.189146716 43.6217065678 490.071247279 36.1424945589 488 32 c 0
 477 10 403 8 380 8 c 0
 303 5 283 1 233 1 c 0
 217 1 199 1 176 2 c 0
EndSplineSet
Validated: 1
EndChar
StartChar: uni02A0
Encoding: 672 672 467
Width: 808
GlyphClass: 4
Flags: MW
HStem: -326 21G<496 509> -4 98<215.5 252> 468 95<270 298> 806 93<624.5 663 624.5 663.5>
VStem: 58 88 60 88 453 89 455 84 455 89
AnchorPoint: "acute" 272 594 basechar 0
AnchorPoint: "ogonek" 506 -292 basechar 0
AnchorPoint: "cedilla" 234 46 basechar 0
LayerCount: 2
Fore
SplineSet
784 813 m 0xf480
 784 797 762 759 739 759 c 0
 699 759 687 806 640 806 c 0
 600 806 561 732 555 680 c 0xfa
 550 615 544 522 543 457 c 0xf9
 541 392 546 329 544 265 c 0xfa
 544 211 541 158 541 104 c 0
 541 54 544 -58 546 -109 c 0
 548 -134 550 -161 550 -186 c 0
 550 -208 548 -228 548 -253 c 0
 548 -271 548 -291 541 -310 c 0
 537 -320 517 -326 501 -326 c 0
 491 -326 483 -324 480 -319 c 0
 469 -305 465 -262 463 -233 c 0
 462 -193 462 -152 462 -112 c 0
 462 -75 460 -39 460 -1 c 0
 458 51 457 137 457 206 c 1xf9
 453 200 449 193 445 187 c 0
 430 162 353 64 330 45 c 0
 297 15 275 -4 229 -4 c 0
 202 -4 175 11 154 27 c 0
 97 70 64 138 60 209 c 0
 58 261 69 313 85 362 c 0
 103 414 120 473 161 511 c 0
 197 544 244 563 296 563 c 0
 359 563 417 507 455 461 c 1
 456 519 455 608 460 660 c 0
 467 741 487 791 528 840 c 0
 555 872 604 899 645 899 c 0
 681 899 714 881 742 860 c 0
 760 847 784 827 784 813 c 0xf480
280 468 m 0
 229 468 208 428 188 387 c 0
 150 313 134 238 163 160 c 0
 175 124 195 94 233 94 c 0
 280 94 429 291 429 333 c 0
 429 369 393 403 366 427 c 0
 339 450 316 468 280 468 c 0
EndSplineSet
EndChar
StartChar: uni02A1
Encoding: 673 673 468
Width: 596
GlyphClass: 4
Flags: HMW
AnchorPoint: "acute" 278 950 basechar 0
AnchorPoint: "ogonek" 288 24 basechar 0
AnchorPoint: "cedilla" 284 28 basechar 0
LayerCount: 2
Fore
SplineSet
428 333 m 0
 442 334 456 336 470 336 c 0
 503 336 532 329 536 302 c 0
 536.386958131 299.936223302 536.574267468 297.951474252 536.574267468 296.041997362 c 0
 536.574267468 268.343978182 497.16230704 256.484055826 456 249 c 0
 413 242 369 241 325 240 c 1
 328 199 329 159 329 118 c 0
 329 109 329.222222222 100.111111111 329.222222222 91.3333333333 c 0
 329.222222222 73.7777777778 328.333333333 56.6666666667 323 40 c 0
 317 23 312 0 295 -7 c 0
 290 -9 285 -10 280 -10 c 0
 271 -10 263 -8 257 -2 c 0
 246.703982322 9.19132356352 244.022904608 23.7893307954 244.022904608 39.5513570363 c 0
 244.022904608 56.6816355599 247.189657376 75.1867941922 247.189657376 92.1879667804 c 0
 247.189657376 94.4885625451 247.131669521 96.7616181354 247 99 c 0
 246.447213595 111.437694101 246.276393202 123.951781405 246.276393202 136.521147349 c 0
 246.276393202 156.858808663 246.723606798 177.341191337 246.723606798 197.878852651 c 0
 246.723606798 210.571825393 246.552786405 223.285912696 246 236 c 1
 222 234 198 232 173 228 c 1
 146 228 103 241 103 274 c 0
 103 291 124 302 146 304 c 0
 181 306 210 313 241 318 c 1
 236 361 231 404 228 439 c 0
 226.832508715 456.512369269 223.961222556 469.93563084 223.961222556 481.855700078 c 0
 223.961222556 490.355602098 225.421202065 498.091167204 230 506 c 0
 238 521 257 526 272 536 c 0
 293 551 315 564 336 580 c 0
 361 599 390 614 410 639 c 0
 433.827466814 667.239960669 461.548954031 700.152745821 461.548954031 736.363768169 c 0
 461.548954031 741.18512291 461.057511062 746.064948378 460 751 c 0
 446 811 341 836 288 836 c 0
 232 836 200 817 154 787 c 0
 139 777 114 764 93 764 c 0
 84 764 77 766 70 770 c 0
 65.3245553203 772.597469266 63.6177231404 778.433424896 63.6177231404 785.124504063 c 0
 63.6177231404 791.313421694 65.0779754132 798.23392624 67 804 c 0
 97 887 237 925 314 925 c 0
 362 925 410 915 450 887 c 0
 488 863 528 827 542 781 c 0
 544.232707642 772.069169431 545.234555182 762.092107774 545.234555182 751.618445182 c 0
 545.234555182 719.872982643 536.030741969 683.565326684 524 658 c 0
 494 590 382 494 314 458 c 1
 313 449.5 312.5 435.25 312.5 419.625 c 0
 312.5 404 313 387 314 373 c 0
 314 357 316 341 318 325 c 1
 355 328 391 329 428 333 c 0
EndSplineSet
Validated: 524289
EndChar
StartChar: uni02A2
Encoding: 674 674 469
Width: 610
GlyphClass: 4
Flags: MW
HStem: -2 21G<363 365> 176 89<399 440> 182 94<191 202 172 217.5> 412 94<230 241.5 230 242> 529 20G<355 368.5> 820 98<335 355.5>
VStem: 50 88<630 676> 309 85<336 339> 316 84<82 156.5>
AnchorPoint: "acute" 337 955 basechar 0
AnchorPoint: "ogonek" 377 61 basechar 0
AnchorPoint: "cedilla" 366 56 basechar 0
LayerCount: 2
Fore
SplineSet
197 182 m 0xaf
 185 182 174 181 165 181 c 0
 130 181 119 185 101 198 c 0
 87 208 71 222 65 230 c 0
 55 244 55 248 65 264 c 0
 75 279 90 288 104 288 c 0
 109 288 114 287 119 284 c 0
 127 280 157 276 187 276 c 0
 217 276 235 274 255 272 c 0
 274 269 287 270 310 269 c 1
 309 289 309 305 309 316 c 0xaf
 309 362 306 384 304 432 c 1
 276 417 258 412 226 412 c 0
 178 416 132 448 98 494 c 0
 68 534 50 592 50 660 c 0
 50 692 56 734 62 750 c 0
 80 803 150 869 202 888 c 1
 250 910 304 918 357 918 c 0
 386 918 413 915 430 910 c 0
 492 888 536 850 564 826 c 0
 578 812 568 748 552 736 c 0
 543 730 534 727 524 727 c 0
 514 727 504 731 496 738 c 0
 470 760 442 794 408 810 c 0
 397 816 370 820 341 820 c 0
 329 820 317 820 306 818 c 0
 212 803 138 769 138 658 c 0
 138 602 154 560 192 524 c 0
 204 513 221 506 239 506 c 0
 244 506 249 507 254 508 c 0
 296 520 304 542 344 548 c 0
 349 549 353 549 357 549 c 0
 380 549 391 539 394 510 c 0
 396 500 396 486 396 470 c 0
 394 440 394 384 394 344 c 0
 394 328 395 297 395 264 c 1
 412 264 425 265 437 265 c 0
 443 265 449 265 455 264 c 0xdf
 531 254 533 254 533 232 c 0
 533 220 529 206 521 200 c 0
 498 179 433 176 399 176 c 1
 399 167 400 159 400 154 c 0
 400 146 406 122 412 98 c 0xce80
 416 84 428 68 424 54 c 0
 420 42 406 36 396 26 c 0
 382 10 366 -2 364 -2 c 0
 362 -2 348 10 336 24 c 0
 314 50 316 52 316 112 c 0
 316 120 315 147 314 180 c 1xae80
 271 182 238 182 197 182 c 0xaf
EndSplineSet
EndChar
